<?xml version="1.0" encoding="UTF-8"?>
<svg width="1200pt" height="1200pt" version="1.1" viewBox="0 0 1200 1200" xmlns="http://www.w3.org/2000/svg">
 <path d="m337.5 337.5c0-144.75 117.75-262.5 262.5-262.5s262.5 117.75 262.5 262.5-117.75 262.5-262.5 262.5-262.5-117.75-262.5-262.5zm701.14 649.09c-47.102-205.5-227.48-349.09-438.64-349.09-211.16 0-391.54 143.55-438.64 349.09-7.7617 33.898 0.1875 68.926 21.824 96.074 21.449 26.926 53.477 42.336 87.863 42.336l657.9 0.003906c34.387 0 66.414-15.449 87.863-42.336 21.637-27.148 29.586-62.137 21.824-96.074z"/>
</svg>
