<?xml version="1.0" encoding="UTF-8" standalone="no"?>
<!-- Created with Inkscape (http://www.inkscape.org/) -->

<svg
   width="210mm"
   height="297mm"
   viewBox="0 0 210 297"
   version="1.1"
   id="svg5"
   inkscape:version="1.2.2 (b0a84865, 2022-12-01)"
   sodipodi:docname="grid_logo.svg"
   xml:space="preserve"
   xmlns:inkscape="http://www.inkscape.org/namespaces/inkscape"
   xmlns:sodipodi="http://sodipodi.sourceforge.net/DTD/sodipodi-0.dtd"
   xmlns="http://www.w3.org/2000/svg"
   xmlns:svg="http://www.w3.org/2000/svg"><sodipodi:namedview
     id="namedview7"
     pagecolor="#ffffff"
     bordercolor="#666666"
     borderopacity="1.0"
     inkscape:showpageshadow="2"
     inkscape:pageopacity="0.0"
     inkscape:pagecheckerboard="0"
     inkscape:deskcolor="#d1d1d1"
     inkscape:document-units="mm"
     showgrid="false"
     inkscape:zoom="1.6819304"
     inkscape:cx="225.93087"
     inkscape:cy="290.1428"
     inkscape:window-width="2120"
     inkscape:window-height="1124"
     inkscape:window-x="2684"
     inkscape:window-y="212"
     inkscape:window-maximized="0"
     inkscape:current-layer="layer1"
     showguides="true"><sodipodi:guide
       position="37.439619,212.91817"
       orientation="1,0"
       id="guide10833"
       inkscape:locked="false" /><sodipodi:guide
       position="74.879238,203.55826"
       orientation="1,0"
       id="guide10835"
       inkscape:locked="false" /><sodipodi:guide
       position="57.260592,196.95128"
       orientation="0,-1"
       id="guide10837"
       inkscape:locked="false" /><sodipodi:guide
       position="49.94571,232.50318"
       orientation="1,0"
       id="guide10839"
       inkscape:locked="false" /><sodipodi:guide
       position="24.854873,239.42479"
       orientation="1,0"
       id="guide10841"
       inkscape:locked="false" /><sodipodi:guide
       position="62.530454,216.77225"
       orientation="1,0"
       id="guide10843"
       inkscape:locked="false" /><sodipodi:guide
       position="41.765625,199.23226"
       orientation="0,-1"
       id="guide10845"
       inkscape:locked="false" /><sodipodi:guide
       position="13.921875,141.89301"
       orientation="0,-1"
       id="guide12409"
       inkscape:locked="false" /><sodipodi:guide
       position="9.5958687,135.99391"
       orientation="0,-1"
       id="guide12411"
       inkscape:locked="false" /><sodipodi:guide
       position="15.416314,227.15466"
       orientation="0,-1"
       id="guide50222"
       inkscape:locked="false" /></sodipodi:namedview><defs
     id="defs2" /><g
     inkscape:label="Layer 1"
     inkscape:groupmode="layer"
     id="layer1"><text
       xml:space="preserve"
       style="font-size:8.74546px;line-height:1.25;font-family:sans-serif;text-align:center;text-anchor:middle;stroke-width:0.219;fill:#000000;fill-opacity:1;stroke-dasharray:none"
       x="70.357872"
       y="176.18762"
       id="text113"
       transform="scale(1.0949799,0.91325877)"><tspan
         sodipodi:role="line"
         id="tspan111"
         style="font-style:normal;font-variant:normal;font-weight:normal;font-stretch:normal;font-family:Tahoma;-inkscape-font-specification:Tahoma;stroke-width:0.219;fill:#000000;fill-opacity:1;stroke-dasharray:none"
         x="70.357872"
         y="176.18762">MICROGRID SOLUTIONS</tspan></text><text
       xml:space="preserve"
       style="font-size:9.60228px;line-height:1.25;font-family:sans-serif;text-align:center;text-anchor:middle;fill:#000000;fill-opacity:1;stroke-width:0.240058"
       x="50.765072"
       y="105.51376"
       id="text113-3"
       transform="scale(0.98342324,1.0168562)"><tspan
         sodipodi:role="line"
         id="tspan111-7"
         style="font-style:normal;font-variant:normal;font-weight:normal;font-stretch:normal;font-family:Tahoma;-inkscape-font-specification:Tahoma;fill:#000000;fill-opacity:1;stroke-width:0.240058"
         x="50.765072"
         y="105.51376">SOLUTIONS</tspan></text><text
       xml:space="preserve"
       style="font-size:9.60228px;line-height:1.25;font-family:sans-serif;text-align:center;text-anchor:middle;fill:#000000;fill-opacity:1;stroke-width:0.240058"
       x="50.650394"
       y="84.403992"
       id="text113-3-7"
       transform="scale(0.98342323,1.0168562)"><tspan
         sodipodi:role="line"
         id="tspan111-7-5"
         style="font-style:normal;font-variant:normal;font-weight:normal;font-stretch:normal;font-family:Tahoma;-inkscape-font-specification:Tahoma;fill:#000000;fill-opacity:1;stroke-width:0.240058"
         x="50.650394"
         y="84.403992">MICROGRID</tspan></text><path
       class="st0"
       d="m 49.579409,91.287655 h 0.782235 c 0.179915,0 0.326863,0.138887 0.326863,0.308923 v 0.271429 h 0.947063 c 0.127952,0 0.232995,0.09928 0.232995,0.220204 v 5.468165 c 0,0.120933 -0.105043,0.220212 -0.232995,0.220212 h -3.330087 c -0.127948,0 -0.232995,-0.09928 -0.232995,-0.220212 v -5.468165 c 0,-0.120929 0.105047,-0.220204 0.232995,-0.220204 h 0.947067 v -0.271429 c 0,-0.170036 0.146949,-0.308923 0.326859,-0.308923 z m -0.867721,1.19608 h 2.518238 v 4.611635 h -2.518238 z m 0.884487,1.294303 0.725237,0.0085 -0.337476,1.033961 h 0.783352 l -1.289569,1.508172 0.327419,-1.039772 h -0.630813 z m -1.215259,-1.612203 h 3.179226 v 5.247435 h -3.179226 z"
       id="path9105"
       style="stroke-width:0.0543187;fill:#4169e1;fill-opacity:1" /><path
       class="st0"
       d="m 17.443608,154.40334 h 0.506701 c 0.116542,0 0.211729,0.08 0.211729,0.17786 v 0.15628 h 0.61347 c 0.08288,0 0.150925,0.0572 0.150925,0.12678 v 3.14831 c 0,0.0696 -0.06804,0.12679 -0.150925,0.12679 H 16.61841 c -0.08288,0 -0.150925,-0.0572 -0.150925,-0.12679 v -3.14831 c 0,-0.0696 0.06804,-0.12678 0.150925,-0.12678 h 0.613472 v -0.15628 c 0,-0.0979 0.09519,-0.17786 0.211726,-0.17786 z m -0.562075,0.68865 h 1.631215 v 2.65515 h -1.631215 z m 0.572936,0.74519 0.46978,0.005 -0.218604,0.5953 h 0.507424 l -0.835331,0.86834 0.212089,-0.59865 h -0.408616 z m -0.787197,-0.92823 h 2.059377 v 3.02122 h -2.059377 z"
       id="path9105-3"
       style="clip-rule:evenodd;fill-rule:evenodd;stroke-width:0.0331722;fill:#4169e1;fill-opacity:1" /><path
       d="m 35.528432,89.047902 c -0.06318,-0.04178 -0.08446,-0.134368 -0.04827,-0.207281 0.0362,-0.07292 0.116403,-0.0975 0.179572,-0.05571 l 0.293135,0.194988 c 0.06318,0.04178 0.08446,0.134363 0.04827,0.207282 -0.0362,0.07292 -0.116402,0.0975 -0.179572,0.05571 z m 2.712031,2.058882 0.06246,0.72507 h 1.17112 l -0.114982,-0.72507 z m 1.424508,0 0.114982,0.72507 h 0.917023 l -0.173184,-0.72507 z m 1.11505,1.074091 h -0.944705 l 0.08872,0.56121 h 0.99013 z m 0.217899,0.911872 h -1.017811 l 0.08872,0.561215 h 1.062525 z m 0.217188,0.910229 h -1.090916 l 0.166086,1.04788 h 1.174668 z m -1.23145,1.04788 -0.166087,-1.04788 h -1.328688 l 0.09014,1.04788 z m -1.708416,0 -0.09014,-1.04788 h -1.642407 l -0.12421,1.04788 z m -2.16054,0 0.12421,-1.04788 h -1.254874 l -0.210801,1.04788 z m -1.650925,0 0.210802,-1.04788 h -0.970965 l -0.249839,1.04788 z m -0.676411,-1.396894 h 0.95748 l 0.112853,-0.561215 h -0.936896 z m 0.217191,-0.911877 h 0.9227 l 0.112853,-0.56121 h -0.901408 z m 0.217189,-0.910231 h 0.888631 l 0.146213,-0.72507 h -0.861661 z m 1.344304,-0.72507 -0.146213,0.72507 h 1.075302 l 0.08588,-0.72507 z m 1.318042,0 c 0,0.0067 -6.76e-4,0.01229 -0.0014,0.01886 l -0.08375,0.706231 h 1.200932 l -0.06246,-0.725078 z m 4.647574,4.293087 h -3.753264 v 1.613186 h 1.156215 v 0.736542 h -2.950512 v -0.736542 h 1.156215 v -1.613186 h -3.753264 c -0.02201,0 -0.04542,-0.0039 -0.06884,-0.01149 -0.04613,-0.01474 -0.08944,-0.04343 -0.121371,-0.08193 -0.04045,-0.04835 -0.066,-0.1106 -0.066,-0.181062 0,-0.02045 0.0029,-0.04264 0.0085,-0.06555 v 0 l 0.967418,-4.054673 c 0.0149,-0.06142 0.03974,-0.12126 0.07879,-0.166319 0.04329,-0.05 0.09937,-0.08112 0.169635,-0.08112 h 1.88231 c -0.107885,-0.20564 -0.170344,-0.446511 -0.170344,-0.70459 0,-0.375233 0.132016,-0.715242 0.344946,-0.961844 0.212932,-0.245793 0.507488,-0.398178 0.833272,-0.398178 0.325783,0 0.619628,0.152385 0.833269,0.398178 0.212931,0.245785 0.344948,0.585795 0.344948,0.961844 0,0.258079 -0.06246,0.49895 -0.170345,0.70459 h 2.311011 c 0.06387,0 0.115691,0.02623 0.156859,0.06883 0.0043,0.0039 0.0085,0.0082 0.01207,0.01229 0.03904,0.0451 0.06387,0.10487 0.07878,0.166319 l 0.968127,4.055495 c 0.0057,0.02378 0.0086,0.0451 0.0086,0.06475 0,0.07046 -0.02556,0.132727 -0.066,0.180245 -0.03194,0.03852 -0.07594,0.06718 -0.121369,0.08192 -0.02415,0.0082 -0.04756,0.01229 -0.06956,0.01229 z m -3.199644,-3.218996 0.04827,0.56121 h 1.237838 l -0.08872,-0.56121 z m -2.981743,0 -0.112853,0.56121 h 1.149828 l 0.066,-0.56121 z m 1.407474,0 -0.06602,0.56121 h 1.386181 l -0.04827,-0.56121 z m 1.653055,0.911872 0.04827,0.561215 h 1.303848 l -0.08872,-0.561215 z m -3.243649,0 -0.112853,0.561215 h 1.225772 l 0.06602,-0.561215 z m 1.482709,0 -0.06602,0.561215 h 1.57214 l -0.04827,-0.561215 z M 36.193487,88.19256 c -0.0362,-0.07292 -0.0149,-0.165502 0.04827,-0.207281 0.06318,-0.04178 0.143374,-0.01719 0.179572,0.05571 l 0.168926,0.337545 c 0.0362,0.07292 0.0149,0.165496 -0.04756,0.207281 -0.06318,0.04178 -0.143374,0.01719 -0.179572,-0.05571 z m 0.946123,-0.358033 c 0,-0.0844 0.05891,-0.152385 0.132017,-0.152385 0.0731,0 0.132018,0.068 0.132018,0.152385 v 0.389983 c 0,0.08439 -0.05891,0.152386 -0.132018,0.152386 -0.0731,0 -0.132017,-0.068 -0.132017,-0.152386 z m 0.975934,0.237598 c 0.0362,-0.07292 0.116402,-0.0975 0.179571,-0.05571 0.06318,0.04178 0.08446,0.134361 0.04827,0.207281 l -0.168925,0.338367 c -0.0362,0.07291 -0.116403,0.09749 -0.179573,0.05571 -0.06317,-0.04178 -0.08446,-0.134367 -0.04827,-0.20728 z m 0.740999,0.767673 c 0.06317,-0.04178 0.143374,-0.0172 0.179571,0.05571 0.0362,0.07292 0.0149,0.165494 -0.04827,0.207279 l -0.292425,0.194995 c -0.06318,0.04178 -0.143373,0.0172 -0.179572,-0.05492 -0.0362,-0.07292 -0.0149,-0.165494 0.04827,-0.207281 z m 0.31017,1.092115 c 0.0731,0 0.132017,0.068 0.132017,0.152392 0,0.0844 -0.05891,0.152386 -0.132017,0.152386 h -0.337851 c -0.0731,0 -0.132018,-0.068 -0.132018,-0.152386 0,-0.08438 0.05891,-0.152392 0.132018,-0.152392 z m -3.844114,0.242512 c -0.0731,0 -0.132017,-0.068 -0.132017,-0.152386 0,-0.0844 0.05891,-0.152391 0.132017,-0.152391 h 0.33785 c 0.0731,0 0.132017,0.068 0.132017,0.152391 0,0.08439 -0.05891,0.152386 -0.132017,0.152386 z"
       id="path9153"
       style="stroke-width:0.0762568;fill:#4169e1;fill-opacity:1" /><path
       d="m 20.234745,156.15403 c -0.03793,-0.0248 -0.0507,-0.0798 -0.02897,-0.12307 0.02173,-0.0433 0.06987,-0.0579 0.107792,-0.0331 l 0.17596,0.11577 c 0.03792,0.0248 0.0507,0.0798 0.02897,0.12307 -0.02173,0.0433 -0.06987,0.0579 -0.107792,0.0331 z m 1.62795,1.22243 0.03749,0.4305 h 0.702987 l -0.06902,-0.4305 z m 0.855089,0 0.06902,0.4305 h 0.550461 l -0.103957,-0.4305 z m 0.66933,0.63773 h -0.567078 l 0.05326,0.33321 h 0.594345 z m 0.130798,0.54142 h -0.610961 l 0.05326,0.33321 h 0.637802 z m 0.130372,0.54043 H 22.99344 l 0.0997,0.62216 h 0.705118 z m -0.739202,0.62216 -0.0997,-0.62216 h -0.797571 l 0.05411,0.62216 z m -1.02551,0 -0.05411,-0.62216 h -0.985886 l -0.07456,0.62216 z m -1.296907,0 0.07456,-0.62216 h -0.753263 l -0.126537,0.62216 z m -0.991,0 0.126538,-0.62216 h -0.58284 l -0.149971,0.62216 z m -0.406028,-0.82938 h 0.574746 l 0.06774,-0.33321 h -0.56239 z m 0.130373,-0.54142 h 0.553868 l 0.06774,-0.33321 H 19.40053 Z m 0.130372,-0.54044 H 19.9838 l 0.08777,-0.4305 h -0.517229 z m 0.806944,-0.4305 -0.08777,0.4305 h 0.645471 l 0.05155,-0.4305 z m 0.791181,0 c 0,0.004 -4.06e-4,0.007 -8.41e-4,0.0112 l -0.05027,0.41931 h 0.720883 l -0.03749,-0.4305 z m 2.789797,2.54897 h -2.25297 v 0.95781 h 0.69404 v 0.43731 h -1.771102 v -0.43731 h 0.694041 v -0.95781 h -2.25297 c -0.01321,0 -0.02727,-0.002 -0.04132,-0.007 -0.02769,-0.009 -0.05369,-0.0258 -0.07286,-0.0486 -0.02428,-0.0287 -0.03962,-0.0657 -0.03962,-0.1075 0,-0.0122 0.0017,-0.0253 0.0051,-0.0389 v 0 l 0.580712,-2.40741 c 0.0089,-0.0365 0.02386,-0.072 0.0473,-0.0987 0.02599,-0.0297 0.05965,-0.0482 0.101827,-0.0482 h 1.129893 c -0.06476,-0.12209 -0.102252,-0.26511 -0.102252,-0.41834 0,-0.22279 0.07925,-0.42467 0.20706,-0.57108 0.127817,-0.14594 0.30463,-0.23642 0.500188,-0.23642 0.195558,0 0.371944,0.0905 0.500186,0.23642 0.127816,0.14593 0.207062,0.34781 0.207062,0.57108 0,0.15323 -0.03749,0.29625 -0.102253,0.41834 h 1.387229 c 0.03834,0 0.06945,0.0156 0.09416,0.0409 0.0026,0.002 0.0051,0.005 0.0072,0.007 0.02343,0.0268 0.03834,0.0623 0.04729,0.0987 l 0.581138,2.4079 c 0.0034,0.0141 0.0052,0.0268 0.0052,0.0385 0,0.0419 -0.01534,0.0788 -0.03962,0.10702 -0.01917,0.0229 -0.04558,0.0399 -0.07285,0.0486 -0.0145,0.005 -0.02855,0.007 -0.04176,0.007 z m -1.920649,-1.91124 0.02897,0.33321 h 0.743036 l -0.05326,-0.33321 z m -1.789849,0 -0.06774,0.33321 h 0.690207 l 0.03962,-0.33321 z m 0.844863,0 -0.03963,0.33321 h 0.832083 l -0.02898,-0.33321 z m 0.992279,0.54142 0.02897,0.33321 h 0.78266 l -0.05326,-0.33321 z m -1.947064,0 -0.06774,0.33321 h 0.735794 l 0.03963,-0.33321 z m 0.890025,0 -0.03963,0.33321 h 0.943708 l -0.02897,-0.33321 z m -0.273951,-2.90943 c -0.02173,-0.0433 -0.0089,-0.0983 0.02897,-0.12306 0.03793,-0.0248 0.08606,-0.0102 0.107791,0.0331 l 0.101401,0.20041 c 0.02173,0.0433 0.0089,0.0983 -0.02855,0.12307 -0.03793,0.0248 -0.08606,0.0102 -0.107792,-0.0331 z m 0.567928,-0.21257 c 0,-0.0501 0.03536,-0.0905 0.07925,-0.0905 0.04388,0 0.07925,0.0404 0.07925,0.0905 v 0.23154 c 0,0.0501 -0.03536,0.0905 -0.07925,0.0905 -0.04388,0 -0.07925,-0.0404 -0.07925,-0.0905 z m 0.585824,0.14107 c 0.02173,-0.0433 0.06987,-0.0579 0.107791,-0.0331 0.03793,0.0248 0.0507,0.0798 0.02897,0.12307 l -0.101401,0.20091 c -0.02173,0.0433 -0.06987,0.0579 -0.107792,0.0331 -0.03792,-0.0248 -0.0507,-0.0798 -0.02897,-0.12307 z m 0.444799,0.45579 c 0.03792,-0.0248 0.08606,-0.0102 0.107791,0.0331 0.02173,0.0433 0.0089,0.0983 -0.02897,0.12307 l -0.175534,0.11577 c -0.03793,0.0248 -0.08606,0.0102 -0.107792,-0.0326 -0.02173,-0.0433 -0.0089,-0.0983 0.02897,-0.12307 z m 0.186185,0.64843 c 0.04388,0 0.07925,0.0404 0.07925,0.0905 0,0.0501 -0.03536,0.0905 -0.07925,0.0905 h -0.202801 c -0.04388,0 -0.07925,-0.0404 -0.07925,-0.0905 0,-0.0501 0.03536,-0.0905 0.07925,-0.0905 z m -2.307504,0.14399 c -0.04388,0 -0.07925,-0.0404 -0.07925,-0.0905 0,-0.0501 0.03536,-0.0905 0.07925,-0.0905 h 0.202801 c 0.04388,0 0.07925,0.0404 0.07925,0.0905 0,0.0501 -0.03536,0.0905 -0.07925,0.0905 z"
       id="path9153-9"
       style="stroke-width:0.0455249;fill:#4169e1;fill-opacity:1" /><path
       d="m 61.166345,92.591626 a 0.63565081,0.56705036 0 0 1 0.06438,0.0327 l 0.01072,0.0055 a 0.53641419,0.4785235 0 0 1 0.127842,0.108462 0.52210982,0.4657629 0 0 1 0.07957,0.140368 v 0 a 0.52657992,0.46975056 0 0 1 0.02058,0.159506 0.67856397,0.60533222 0 0 1 -0.03303,0.159505 v 0 a 0.71521893,0.63803135 0 0 1 -0.03661,0.07975 0.83233597,0.742509 0 0 1 -0.04647,0.07177 0.81713756,0.72895078 0 0 1 -0.276259,0.217734 2.3164153,2.0664241 0 0 1 -0.308436,0.133981 c -0.849317,0.311043 -1.687022,0.685891 -2.536339,0.988954 a 0.28072343,0.2504273 0 0 1 -0.0894,0.01515 v 0 a 0.20383739,0.18183893 0 0 1 -0.111753,-0.02558 l -0.03303,-0.02313 a 0.17880473,0.15950784 0 0 1 -0.03043,-0.03748 l -0.0089,-0.01914 -0.01078,-0.02147 a 0.1591362,0.14196197 0 0 1 0,-0.0311 v 0 a 0.20383739,0.18183893 0 0 1 0.04199,-0.104475 v 0 a 0.36565566,0.32619351 0 0 1 0.06081,-0.05742 c 0.747403,-0.555088 1.533252,-1.083061 2.294064,-1.62299 0.05367,-0.03828 0.109073,-0.07498 0.163609,-0.106873 a 0.99862436,0.89085122 0 0 1 0.172541,-0.07974 h 0.01162 a 0.58558547,0.52238812 0 0 1 0.188643,-0.03429 0.60435996,0.53913648 0 0 1 0.197572,0.02559 h 0.0089 a 0.65531934,0.58459619 0 0 1 0.08045,0.02792 z m -1.283824,4.49413 h 1.5261 l 0.572169,-3.498804 a 0.14572586,0.12999889 0 0 1 0.144834,-0.118834 h 0.536415 a 0.14572586,0.12999889 0 0 1 0.143043,0.108467 l 0.661583,3.509171 h 1.533245 a 0.07956811,0.07098099 0 0 1 0.07868,0.07018 v 0.532758 a 0.07956811,0.07098099 0 0 1 -0.07868,0.07018 h -5.117389 a 0.07867408,0.07018344 0 0 1 -0.07867,-0.07018 v -0.532758 a 0.07867408,0.07018344 0 0 1 0.07867,-0.07018 z m 2.860877,-5.269338 a 0.80462124,0.71778529 0 0 1 0.256582,0.152328 0.78048265,0.6962517 0 0 1 0.229769,0.4865 v 0.01197 a 0.78405873,0.69944188 0 0 1 -0.231554,0.497664 0.77690657,0.69306152 0 0 1 -0.25658,0.152328 0.78674082,0.70183445 0 0 1 -1.030814,-0.38122 0.7903169,0.70502463 0 0 1 0,-0.538341 0.78674082,0.70183445 0 0 1 0.170756,-0.228898 v 0 a 0.81803165,0.72974833 0 0 1 0.256585,-0.151525 0.78763489,0.70263198 0 0 1 0.602569,0 z m 0,-0.365278 a 0.49975921,0.44582438 0 0 1 -0.07152,0.03589 0.52032176,0.4641678 0 0 1 -0.173442,0.04306 0.49528911,0.44183671 0 0 1 -0.169867,-0.01196 h -0.008 a 0.55697676,0.49686693 0 0 1 -0.160922,-0.0662 0.59631376,0.53195862 0 0 1 -0.124273,-0.0981 l -0.0098,-0.0096 a 0.68929227,0.61490272 0 0 1 -0.05271,-0.0646 c -0.01519,-0.02233 -0.03043,-0.04625 -0.04381,-0.07099 v 0 c -0.107282,-0.202576 -0.07152,-0.412329 -0.03577,-0.626069 0.160922,-0.797536 0.201155,-1.655686 0.362974,-2.453229 a 0.30843816,0.27515101 0 0 1 0.02862,-0.07018 v -0.0055 a 0.21635373,0.19300449 0 0 1 0.07599,-0.06859 h 0.0052 a 0.15109,0.13478413 0 0 1 0.04471,-0.01435 0.15645415,0.13956936 0 0 1 0.03757,0 0.16897047,0.15073491 0 0 1 0.05899,-0.0012 l 0.02862,0.01276 a 0.20651946,0.18423155 0 0 1 0.07867,0.07974 l 0.0052,0.0096 a 0.3522453,0.31423042 0 0 1 0.02505,0.08694 c 0.157347,0.811897 0.244964,1.734649 0.357607,2.562489 a 0.1966852,0.17545862 0 0 1 0,0.02871 v 0 c 0.0072,0.05582 0.01337,0.110854 0.0152,0.165088 a 0.98342596,0.87729314 0 0 1 -0.01162,0.179449 v 0.0055 a 0.61061815,0.54471927 0 0 1 -0.06438,0.159506 0.58200938,0.51919802 0 0 1 -0.135897,0.145955 0.63118071,0.56306268 0 0 1 -0.06973,0.04545 z m 0.625811,1.674839 a 0.62581656,0.5582774 0 0 1 0,-0.07339 0.52121577,0.46496532 0 0 1 0.04471,-0.159505 0.48545484,0.43306377 0 0 1 0.0894,-0.122823 l 0.0079,-0.0072 a 0.5435664,0.48490384 0 0 1 0.143937,-0.09092 0.66694166,0.59496425 0 0 1 0.159144,-0.04784 h 0.01252 a 0.67677587,0.60373716 0 0 1 0.0894,-0.0088 0.72773519,0.6491969 0 0 1 0.0894,0 h 0.0066 a 0.82965389,0.74011635 0 0 1 0.35046,0.106069 2.4299563,2.1677115 0 0 1 0.284301,0.181835 c 0.725946,0.503247 1.460828,0.997725 2.192141,1.496187 l 0.01253,0.0096 a 0.33794093,0.3014698 0 0 1 0.05452,0.06221 0.21814177,0.19459956 0 0 1 0.02862,0.09172 v 0.02073 0.01356 a 0.16897047,0.15073491 0 0 1 -0.02147,0.04784 0.18327485,0.16349553 0 0 1 -0.03485,0.03509 l -0.01252,0.008 a 0.15645415,0.13956936 0 0 1 -0.02408,0.01276 0.22439994,0.20018234 0 0 1 -0.121586,0.01595 0.35760945,0.31901566 0 0 1 -0.0894,-0.02073 l -2.692805,-1.008158 c -0.06257,-0.02313 -0.125163,-0.04865 -0.18506,-0.07975 a 1.0165049,0.90680205 0 0 1 -0.172546,-0.0965 h -0.0045 A 0.57932735,0.51680538 0 0 1 63.3775,93.206452 0.54714248,0.48809398 0 0 1 63.3677,93.126702 Z"
       id="path9238"
       style="stroke-width:0.0844405;fill:#4169e1;fill-opacity:1" /><path
       d="m 13.577581,158.1081 a 0.44095341,0.35750582 0 0 1 0.04466,0.0206 l 0.0074,0.003 a 0.37211259,0.30169267 0 0 1 0.08868,0.0684 0.36218959,0.29364755 0 0 1 0.0552,0.0885 v 0 a 0.36529051,0.29616163 0 0 1 0.01428,0.10057 0.47072243,0.38164122 0 0 1 -0.02291,0.10056 v 0 a 0.49615012,0.4022569 0 0 1 -0.0254,0.0503 0.57739466,0.46812648 0 0 1 -0.03224,0.0453 0.56685147,0.45957849 0 0 1 -0.191641,0.13727 1.6069062,1.3028096 0 0 1 -0.213964,0.0845 c -0.589174,0.1961 -1.170293,0.43243 -1.759468,0.6235 a 0.19473892,0.15788583 0 0 1 -0.06202,0.01 v 0 a 0.14140278,0.11464321 0 0 1 -0.07752,-0.0161 l -0.02291,-0.0146 a 0.12403753,0.10056423 0 0 1 -0.02111,-0.0236 l -0.0062,-0.012 -0.0075,-0.0136 a 0.11039339,0.08950216 0 0 1 0,-0.0196 v 0 a 0.14140278,0.11464321 0 0 1 0.02913,-0.0659 v 0 a 0.25365674,0.20565383 0 0 1 0.04218,-0.0362 c 0.518477,-0.34997 1.063623,-0.68283 1.591401,-1.02324 0.03723,-0.0242 0.07566,-0.0473 0.113497,-0.0674 a 0.69274956,0.56165117 0 0 1 0.119692,-0.0503 h 0.0081 a 0.40622289,0.32934781 0 0 1 0.130862,-0.0216 0.41924683,0.33990707 0 0 1 0.137057,0.0161 h 0.0062 a 0.45459755,0.36856786 0 0 1 0.05581,0.0176 z m -0.890593,2.83339 h 1.058661 l 0.396916,-2.20587 a 0.10109059,0.08195985 0 0 1 0.100472,-0.0749 h 0.372113 a 0.10109059,0.08195985 0 0 1 0.09923,0.0684 l 0.458943,2.21241 h 1.063618 a 0.0551967,0.04475108 0 0 1 0.05458,0.0443 v 0.33589 a 0.0551967,0.04475108 0 0 1 -0.05458,0.0443 h -3.549953 a 0.05457651,0.04424825 0 0 1 -0.05457,-0.0443 v -0.33589 a 0.05457651,0.04424825 0 0 1 0.05457,-0.0443 z m 1.984601,-3.32213 a 0.55816885,0.45253903 0 0 1 0.177992,0.096 0.54142381,0.43896284 0 0 1 0.159391,0.30672 v 0.008 a 0.54390455,0.44097414 0 0 1 -0.16063,0.31376 0.53894307,0.43695154 0 0 1 -0.17799,0.096 0.54576513,0.44248257 0 0 1 -0.71508,-0.24034 0.54824587,0.44449387 0 0 1 0,-0.33942 0.54576513,0.44248257 0 0 1 0.118454,-0.1443 v 0 a 0.5674717,0.46008131 0 0 1 0.177994,-0.0955 0.54638535,0.44298538 0 0 1 0.418005,0 z m 0,-0.2303 a 0.34668488,0.28107699 0 0 1 -0.04961,0.0226 0.3609492,0.29264189 0 0 1 -0.120317,0.0272 0.34358396,0.2785629 0 0 1 -0.117838,-0.008 h -0.0055 a 0.38637692,0.31325757 0 0 1 -0.111633,-0.0417 0.41366515,0.33538168 0 0 1 -0.08621,-0.0618 l -0.0068,-0.006 a 0.4781647,0.38767509 0 0 1 -0.03656,-0.0407 c -0.01054,-0.0141 -0.02111,-0.0292 -0.03039,-0.0448 v 0 c -0.07442,-0.12772 -0.04961,-0.25996 -0.02481,-0.39471 0.111633,-0.50282 0.139542,-1.04385 0.251797,-1.54668 a 0.21396474,0.17347328 0 0 1 0.01985,-0.0443 v -0.003 a 0.15008541,0.12168272 0 0 1 0.05271,-0.0433 h 0.0036 a 0.10481171,0.08497677 0 0 1 0.03102,-0.009 0.10853285,0.0879937 0 0 1 0.02606,0 0.11721546,0.0950332 0 0 1 0.04092,-6.3e-4 l 0.01985,0.008 a 0.14326334,0.11615168 0 0 1 0.05457,0.0503 l 0.0036,0.006 a 0.24435392,0.19811151 0 0 1 0.01738,0.0548 c 0.109152,0.51187 0.169932,1.09364 0.248073,1.61556 a 0.13644128,0.11062065 0 0 1 0,0.0181 v 0 c 0.005,0.0352 0.0093,0.0699 0.01054,0.10408 a 0.68220637,0.55310326 0 0 1 -0.0081,0.11314 v 0.003 a 0.42358816,0.34342683 0 0 1 -0.04466,0.10056 0.40374214,0.32733656 0 0 1 -0.09427,0.092 0.43785248,0.35499172 0 0 1 -0.04837,0.0287 z m 0.434127,1.05593 a 0.43413135,0.35197477 0 0 1 0,-0.0463 0.36156938,0.2931447 0 0 1 0.03102,-0.10057 0.33676189,0.27303187 0 0 1 0.06202,-0.0774 l 0.0055,-0.004 a 0.3770741,0.30571525 0 0 1 0.09985,-0.0573 0.46265999,0.37510457 0 0 1 0.110399,-0.0301 h 0.0087 a 0.46948202,0.38063559 0 0 1 0.06202,-0.006 0.5048327,0.4092964 0 0 1 0.06202,0 h 0.0046 a 0.57553409,0.466618 0 0 1 0.243116,0.0669 1.68567,1.3666678 0 0 1 0.197221,0.11463 c 0.503591,0.31729 1.013382,0.62904 1.520696,0.9433 l 0.0087,0.006 a 0.23443092,0.19006638 0 0 1 0.03782,0.0392 0.15132578,0.12268835 0 0 1 0.01985,0.0578 v 0.0131 0.009 a 0.11721546,0.0950332 0 0 1 -0.01489,0.0301 0.12713847,0.10307833 0 0 1 -0.02418,0.0221 l -0.0087,0.005 a 0.10853285,0.0879937 0 0 1 -0.0167,0.008 0.1556671,0.12620811 0 0 1 -0.08434,0.0101 0.24807505,0.20112844 0 0 1 -0.06202,-0.013 l -1.868009,-0.63561 c -0.0434,-0.0146 -0.08683,-0.0306 -0.128377,-0.0503 a 0.70515336,0.57170762 0 0 1 -0.119696,-0.0608 h -0.0031 a 0.40188161,0.32582808 0 0 1 -0.137683,-0.19259 0.37955484,0.30772653 0 0 1 -0.0068,-0.0503 z"
       id="path9238-1"
       style="stroke-width:0.055843;fill:#4169e1;fill-opacity:1" /><rect
       style="fill:#4169e1;fill-opacity:1;stroke-width:0.240058"
       id="rect10779"
       width="50.810909"
       height="1.4513344"
       x="24.697563"
       y="108.8225" /><text
       xml:space="preserve"
       style="font-size:9.60228px;line-height:1.25;font-family:sans-serif;text-align:center;text-anchor:middle;fill:#000000;fill-opacity:1;stroke-width:0.240058"
       x="166.33685"
       y="105.62788"
       id="text113-3-9"
       transform="scale(0.98342323,1.0168562)"><tspan
         sodipodi:role="line"
         id="tspan111-7-0"
         style="font-style:normal;font-variant:normal;font-weight:normal;font-stretch:normal;font-family:Tahoma;-inkscape-font-specification:Tahoma;fill:#000000;fill-opacity:1;stroke-width:0.240058"
         x="166.33685"
         y="105.62788">SOLUTIONS</tspan></text><text
       xml:space="preserve"
       style="font-size:9.60228px;line-height:1.25;font-family:sans-serif;text-align:center;text-anchor:middle;fill:#000000;fill-opacity:1;stroke-width:0.240058"
       x="166.22218"
       y="84.518105"
       id="text113-3-7-9"
       transform="scale(0.98342323,1.0168562)"><tspan
         sodipodi:role="line"
         id="tspan111-7-5-3"
         style="font-style:normal;font-variant:normal;font-weight:normal;font-stretch:normal;font-family:Tahoma;-inkscape-font-specification:Tahoma;fill:#000000;fill-opacity:1;stroke-width:0.240058"
         x="166.22218"
         y="84.518105">MICROGRID</tspan></text><path
       class="st0"
       d="m 163.23539,91.403688 h 0.78224 c 0.17991,0 0.32686,0.138887 0.32686,0.308923 v 0.271429 h 0.94706 c 0.12796,0 0.233,0.09928 0.233,0.220204 v 5.468165 c 0,0.120933 -0.10504,0.220212 -0.233,0.220212 h -3.33008 c -0.12795,0 -0.233,-0.09928 -0.233,-0.220212 v -5.468165 c 0,-0.120929 0.10505,-0.220204 0.233,-0.220204 h 0.94706 v -0.271429 c 0,-0.170036 0.14695,-0.308923 0.32686,-0.308923 z m -0.86772,1.19608 h 2.51824 v 4.611635 h -2.51824 z m 0.88449,1.294303 0.72523,0.0085 -0.33747,1.033961 h 0.78335 l -1.28957,1.508172 0.32742,-1.039772 h -0.63081 z m -1.21526,-1.612203 h 3.17922 v 5.247435 h -3.17922 z"
       id="path9105-4"
       style="clip-rule:evenodd;fill:#fff200;fill-opacity:1;fill-rule:evenodd;stroke-width:0.0543187" /><path
       d="m 149.18442,89.163935 c -0.0632,-0.04178 -0.0845,-0.134368 -0.0483,-0.207281 0.0362,-0.07292 0.1164,-0.0975 0.17957,-0.05571 l 0.29314,0.194988 c 0.0632,0.04178 0.0845,0.134363 0.0483,0.207282 -0.0362,0.07292 -0.11641,0.0975 -0.17958,0.05571 z m 2.71203,2.058882 0.0625,0.72507 h 1.17112 l -0.11499,-0.72507 z m 1.4245,0 0.11499,0.72507 h 0.91702 l -0.17318,-0.72507 z m 1.11505,1.074091 h -0.9447 l 0.0887,0.56121 h 0.99013 z m 0.2179,0.911872 h -1.01781 l 0.0887,0.561215 h 1.06253 z m 0.21719,0.910229 h -1.09091 l 0.16608,1.04788 h 1.17467 z m -1.23145,1.04788 -0.16609,-1.04788 h -1.32868 l 0.0901,1.04788 z m -1.70841,0 -0.0901,-1.04788 h -1.64241 l -0.12421,1.04788 z m -2.16054,0 0.12421,-1.04788 h -1.25488 l -0.2108,1.04788 z m -1.65093,0 0.21081,-1.04788 h -0.97097 l -0.24984,1.04788 z m -0.67641,-1.396894 h 0.95748 l 0.11286,-0.561215 h -0.9369 z m 0.21719,-0.911877 h 0.9227 l 0.11286,-0.56121 h -0.90141 z m 0.21719,-0.910231 h 0.88863 l 0.14622,-0.72507 h -0.86166 z m 1.34431,-0.72507 -0.14622,0.72507 h 1.07531 l 0.0859,-0.72507 z m 1.31804,0 c 0,0.0067 -6.8e-4,0.01229 -0.001,0.01886 l -0.0838,0.706231 h 1.20093 l -0.0625,-0.725078 z m 4.64757,4.293087 h -3.75326 v 1.613186 h 1.15621 v 0.736542 h -2.95051 V 97.12909 h 1.15622 v -1.613186 h -3.75327 c -0.022,0 -0.0454,-0.0039 -0.0688,-0.01149 -0.0461,-0.01474 -0.0894,-0.04343 -0.12137,-0.08193 -0.0405,-0.04835 -0.066,-0.1106 -0.066,-0.181062 0,-0.02045 0.003,-0.04264 0.008,-0.06555 v 0 l 0.96742,-4.054673 c 0.0149,-0.06142 0.0397,-0.12126 0.0788,-0.166319 0.0433,-0.05 0.0994,-0.08112 0.16963,-0.08112 h 1.88231 c -0.10788,-0.20564 -0.17034,-0.446511 -0.17034,-0.70459 0,-0.375233 0.13202,-0.715242 0.34495,-0.961844 0.21293,-0.245793 0.50748,-0.398178 0.83327,-0.398178 0.32578,0 0.61963,0.152385 0.83327,0.398178 0.21293,0.245785 0.34495,0.585795 0.34495,0.961844 0,0.258079 -0.0625,0.49895 -0.17035,0.70459 h 2.31101 c 0.0639,0 0.11569,0.02623 0.15686,0.06883 0.004,0.0039 0.008,0.0082 0.0121,0.01229 0.039,0.0451 0.0639,0.10487 0.0788,0.166319 l 0.96812,4.055495 c 0.006,0.02378 0.009,0.0451 0.009,0.06475 0,0.07046 -0.0256,0.132727 -0.066,0.180245 -0.0319,0.03852 -0.0759,0.06718 -0.12137,0.08192 -0.0241,0.0082 -0.0476,0.01229 -0.0696,0.01229 z m -3.19964,-3.218996 0.0483,0.56121 h 1.23783 l -0.0887,-0.56121 z m -2.98174,0 -0.11286,0.56121 h 1.14983 l 0.066,-0.56121 z m 1.40747,0 -0.066,0.56121 h 1.38618 l -0.0483,-0.56121 z m 1.65305,0.911872 0.0483,0.561215 h 1.30385 l -0.0887,-0.561215 z m -3.24364,0 -0.11286,0.561215 h 1.22577 l 0.066,-0.561215 z m 1.4827,0 -0.066,0.561215 h 1.57214 l -0.0483,-0.561215 z m -0.45638,-4.900187 c -0.0362,-0.07292 -0.0149,-0.165502 0.0483,-0.207281 0.0632,-0.04178 0.14338,-0.01719 0.17958,0.05571 l 0.16892,0.337545 c 0.0362,0.07292 0.0149,0.165496 -0.0476,0.207281 -0.0632,0.04178 -0.14337,0.01719 -0.17957,-0.05571 z m 0.94613,-0.358033 c 0,-0.0844 0.0589,-0.152385 0.13201,-0.152385 0.0731,0 0.13202,0.068 0.13202,0.152385 v 0.389983 c 0,0.08439 -0.0589,0.152386 -0.13202,0.152386 -0.0731,0 -0.13201,-0.068 -0.13201,-0.152386 z m 0.97593,0.237598 c 0.0362,-0.07292 0.1164,-0.0975 0.17957,-0.05571 0.0632,0.04178 0.0845,0.134361 0.0483,0.207281 l -0.16892,0.338367 c -0.0362,0.07291 -0.11641,0.09749 -0.17958,0.05571 -0.0632,-0.04178 -0.0845,-0.134367 -0.0483,-0.20728 z m 0.741,0.767673 c 0.0632,-0.04178 0.14337,-0.0172 0.17957,0.05571 0.0362,0.07292 0.0149,0.165494 -0.0483,0.207279 l -0.29242,0.194995 c -0.0632,0.04178 -0.14338,0.0172 -0.17958,-0.05492 -0.0362,-0.07292 -0.0149,-0.165494 0.0483,-0.207281 z m 0.31017,1.092115 c 0.0731,0 0.13201,0.068 0.13201,0.152392 0,0.0844 -0.0589,0.152386 -0.13201,0.152386 h -0.33785 c -0.0731,0 -0.13202,-0.068 -0.13202,-0.152386 0,-0.08438 0.0589,-0.152392 0.13202,-0.152392 z m -3.84411,0.242512 c -0.0731,0 -0.13202,-0.068 -0.13202,-0.152386 0,-0.0844 0.0589,-0.152391 0.13202,-0.152391 h 0.33785 c 0.0731,0 0.13201,0.068 0.13201,0.152391 0,0.08439 -0.0589,0.152386 -0.13201,0.152386 z"
       id="path9153-0"
       style="fill:#fff200;fill-opacity:1;stroke-width:0.0762568" /><path
       d="m 174.82233,92.707659 a 0.63565081,0.56705036 0 0 1 0.0644,0.0327 l 0.0107,0.0055 a 0.53641419,0.4785235 0 0 1 0.12784,0.108462 0.52210982,0.4657629 0 0 1 0.0796,0.140368 v 0 a 0.52657992,0.46975056 0 0 1 0.0206,0.159506 0.67856397,0.60533222 0 0 1 -0.033,0.159505 v 0 a 0.71521893,0.63803135 0 0 1 -0.0366,0.07975 0.83233597,0.742509 0 0 1 -0.0465,0.07177 0.81713756,0.72895078 0 0 1 -0.27626,0.217734 2.3164153,2.0664241 0 0 1 -0.30843,0.133981 c -0.84932,0.311043 -1.68703,0.685891 -2.53634,0.988954 a 0.28072343,0.2504273 0 0 1 -0.0894,0.01515 v 0 a 0.20383739,0.18183893 0 0 1 -0.11176,-0.02558 l -0.033,-0.02313 a 0.17880473,0.15950784 0 0 1 -0.0304,-0.03748 l -0.009,-0.01914 -0.0108,-0.02147 a 0.1591362,0.14196197 0 0 1 0,-0.0311 v 0 a 0.20383739,0.18183893 0 0 1 0.042,-0.104475 v 0 a 0.36565566,0.32619351 0 0 1 0.0608,-0.05742 c 0.74741,-0.555088 1.53325,-1.083061 2.29407,-1.62299 0.0537,-0.03828 0.10907,-0.07498 0.16361,-0.106873 a 0.99862436,0.89085122 0 0 1 0.17254,-0.07974 h 0.0116 a 0.58558547,0.52238812 0 0 1 0.18864,-0.03429 0.60435996,0.53913648 0 0 1 0.19757,0.02559 h 0.009 a 0.65531934,0.58459619 0 0 1 0.0804,0.02792 z m -1.28383,4.49413 h 1.5261 l 0.57217,-3.498804 a 0.14572586,0.12999889 0 0 1 0.14484,-0.118834 h 0.53641 a 0.14572586,0.12999889 0 0 1 0.14305,0.108467 l 0.66158,3.509171 h 1.53324 a 0.07956811,0.07098099 0 0 1 0.0787,0.07018 v 0.532758 a 0.07956811,0.07098099 0 0 1 -0.0787,0.07018 h -5.11739 a 0.07867408,0.07018344 0 0 1 -0.0787,-0.07018 v -0.532758 a 0.07867408,0.07018344 0 0 1 0.0787,-0.07018 z m 2.86088,-5.269338 a 0.80462124,0.71778529 0 0 1 0.25658,0.152328 0.78048265,0.6962517 0 0 1 0.22977,0.4865 v 0.01197 a 0.78405873,0.69944188 0 0 1 -0.23155,0.497664 0.77690657,0.69306152 0 0 1 -0.25658,0.152328 0.78674082,0.70183445 0 0 1 -1.03082,-0.38122 0.7903169,0.70502463 0 0 1 0,-0.538341 0.78674082,0.70183445 0 0 1 0.17076,-0.228898 v 0 a 0.81803165,0.72974833 0 0 1 0.25658,-0.151525 0.78763489,0.70263198 0 0 1 0.60257,0 z m 0,-0.365278 a 0.49975921,0.44582438 0 0 1 -0.0715,0.03589 0.52032176,0.4641678 0 0 1 -0.17344,0.04306 0.49528911,0.44183671 0 0 1 -0.16987,-0.01196 h -0.008 a 0.55697676,0.49686693 0 0 1 -0.16092,-0.0662 0.59631376,0.53195862 0 0 1 -0.12427,-0.0981 l -0.01,-0.0096 a 0.68929227,0.61490272 0 0 1 -0.0527,-0.0646 c -0.0152,-0.02233 -0.0304,-0.04625 -0.0438,-0.07099 v 0 c -0.10728,-0.202576 -0.0715,-0.412329 -0.0358,-0.626069 0.16092,-0.797536 0.20115,-1.655686 0.36297,-2.453229 a 0.30843816,0.27515101 0 0 1 0.0286,-0.07018 v -0.0055 a 0.21635373,0.19300449 0 0 1 0.076,-0.06859 h 0.005 a 0.15109,0.13478413 0 0 1 0.0447,-0.01435 0.15645415,0.13956936 0 0 1 0.0376,0 0.16897047,0.15073491 0 0 1 0.059,-0.0012 l 0.0286,0.01276 a 0.20651946,0.18423155 0 0 1 0.0787,0.07974 l 0.005,0.0096 a 0.3522453,0.31423042 0 0 1 0.0251,0.08694 c 0.15735,0.811897 0.24497,1.734649 0.35761,2.562489 a 0.1966852,0.17545862 0 0 1 0,0.02871 v 0 c 0.007,0.05582 0.0134,0.110854 0.0152,0.165088 a 0.98342596,0.87729314 0 0 1 -0.0116,0.179449 v 0.0055 a 0.61061815,0.54471927 0 0 1 -0.0644,0.159506 0.58200938,0.51919802 0 0 1 -0.1359,0.145955 0.63118071,0.56306268 0 0 1 -0.0697,0.04545 z m 0.62581,1.674839 a 0.62581656,0.5582774 0 0 1 0,-0.07339 0.52121577,0.46496532 0 0 1 0.0447,-0.159505 0.48545484,0.43306377 0 0 1 0.0894,-0.122823 l 0.008,-0.0072 a 0.5435664,0.48490384 0 0 1 0.14394,-0.09092 0.66694166,0.59496425 0 0 1 0.15914,-0.04784 h 0.0125 a 0.67677587,0.60373716 0 0 1 0.0894,-0.0088 0.72773519,0.6491969 0 0 1 0.0894,0 h 0.007 a 0.82965389,0.74011635 0 0 1 0.35046,0.106069 2.4299563,2.1677115 0 0 1 0.2843,0.181835 c 0.72595,0.503247 1.46083,0.997725 2.19215,1.496187 l 0.0125,0.0096 a 0.33794093,0.3014698 0 0 1 0.0545,0.06221 0.21814177,0.19459956 0 0 1 0.0286,0.09172 v 0.02073 0.01356 a 0.16897047,0.15073491 0 0 1 -0.0215,0.04784 0.18327485,0.16349553 0 0 1 -0.0348,0.03509 l -0.0125,0.008 a 0.15645415,0.13956936 0 0 1 -0.0241,0.01276 0.22439994,0.20018234 0 0 1 -0.12159,0.01595 0.35760945,0.31901566 0 0 1 -0.0894,-0.02073 l -2.69281,-1.008158 c -0.0626,-0.02313 -0.12516,-0.04865 -0.18506,-0.07975 a 1.0165049,0.90680205 0 0 1 -0.17254,-0.0965 h -0.004 a 0.57932735,0.51680538 0 0 1 -0.19848,-0.305462 0.54714248,0.48809398 0 0 1 -0.01,-0.07975 z"
       id="path9238-7"
       style="fill:#fff200;fill-opacity:1;stroke-width:0.0844405" /><rect
       style="fill:#fff200;fill-opacity:1;stroke-width:0.240058"
       id="rect10779-5"
       width="50.810909"
       height="1.4513344"
       x="138.35355"
       y="108.93853" /><text
       xml:space="preserve"
       style="font-size:9.60228px;line-height:1.25;font-family:sans-serif;text-align:center;text-anchor:middle;fill:#000000;fill-opacity:1;stroke-width:0.240058"
       x="50.525135"
       y="65.86956"
       id="text113-3-75"
       transform="scale(0.98342323,1.0168562)"><tspan
         sodipodi:role="line"
         id="tspan111-7-06"
         style="font-style:normal;font-variant:normal;font-weight:normal;font-stretch:normal;font-family:Tahoma;-inkscape-font-specification:Tahoma;fill:#000000;fill-opacity:1;stroke-width:0.240058"
         x="50.525135"
         y="65.86956">SOLUTIONS</tspan></text><text
       xml:space="preserve"
       style="font-size:9.60228px;line-height:1.25;font-family:sans-serif;text-align:center;text-anchor:middle;fill:#000000;fill-opacity:1;stroke-width:0.240058"
       x="50.41045"
       y="44.759781"
       id="text113-3-7-4"
       transform="scale(0.98342323,1.0168562)"><tspan
         sodipodi:role="line"
         id="tspan111-7-5-7"
         style="font-style:normal;font-variant:normal;font-weight:normal;font-stretch:normal;font-family:Tahoma;-inkscape-font-specification:Tahoma;fill:#000000;fill-opacity:1;stroke-width:0.240058"
         x="50.41045"
         y="44.759781">MICROGRID</tspan></text><path
       class="st0"
       d="m 49.343452,50.975189 h 0.78223 c 0.17992,0 0.32686,0.13889 0.32686,0.30893 v 0.27143 h 0.94707 c 0.12795,0 0.23299,0.0993 0.23299,0.2202 v 5.46816 c 0,0.12094 -0.10504,0.22022 -0.23299,0.22022 h -3.33009 c -0.12795,0 -0.233,-0.0993 -0.233,-0.22022 v -5.46816 c 0,-0.12093 0.10505,-0.2202 0.233,-0.2202 h 0.94707 v -0.27143 c 0,-0.17004 0.14695,-0.30893 0.32686,-0.30893 z m -0.86773,1.19608 h 2.51824 v 4.61164 h -2.51824 z m 0.88449,1.29431 0.72524,0.008 -0.33748,1.03396 h 0.78335 l -1.28956,1.50817 0.32742,-1.03977 h -0.63082 z m -1.21526,-1.61221 h 3.17923 v 5.24744 h -3.17923 z"
       id="path9105-8"
       style="clip-rule:evenodd;fill:#3548ba;fill-opacity:1;fill-rule:evenodd;stroke-width:0.0543187" /><path
       d="m 35.29247,48.735439 c -0.06318,-0.0418 -0.08446,-0.13437 -0.04827,-0.20728 0.0362,-0.0729 0.116403,-0.0975 0.179572,-0.0557 l 0.293135,0.19499 c 0.06318,0.0418 0.08446,0.13436 0.04827,0.20728 -0.0362,0.0729 -0.116402,0.0975 -0.179572,0.0557 z m 2.712031,2.05888 0.06246,0.72507 h 1.17112 l -0.114982,-0.72507 z m 1.424508,0 0.114982,0.72507 h 0.91702 l -0.17318,-0.72507 z m 1.115052,1.07409 h -0.94471 l 0.0887,0.56121 h 0.99013 z m 0.2179,0.91188 h -1.01781 l 0.0887,0.56121 h 1.06252 z m 0.21719,0.91022 h -1.09092 l 0.16609,1.04789 h 1.17466 z m -1.23145,1.04789 -0.166092,-1.04789 h -1.328688 l 0.09014,1.04789 z m -1.708421,0 -0.09014,-1.04789 h -1.642407 l -0.12421,1.04789 z m -2.16054,0 0.12421,-1.04789 h -1.254874 l -0.210801,1.04789 z m -1.650925,0 0.210802,-1.04789 h -0.970965 l -0.249839,1.04789 z m -0.676411,-1.3969 h 0.95748 l 0.112853,-0.56121 h -0.936896 z m 0.217191,-0.91188 h 0.9227 l 0.112853,-0.56121 H 33.90274 Z m 0.217189,-0.91023 h 0.888631 l 0.146213,-0.72507 h -0.861661 z m 1.344304,-0.72507 -0.146213,0.72507 h 1.075302 l 0.08588,-0.72507 z m 1.318042,0 c 0,0.007 -6.76e-4,0.0123 -0.0014,0.0189 l -0.08375,0.70623 h 1.200932 l -0.06246,-0.72507 z m 4.647571,4.29309 H 37.54244 v 1.61319 h 1.156215 v 0.73654 h -2.950512 v -0.73654 h 1.156215 v -1.61319 h -3.753264 c -0.02201,0 -0.04542,-0.004 -0.06884,-0.0115 -0.04613,-0.0147 -0.08944,-0.0434 -0.121371,-0.0819 -0.04045,-0.0483 -0.066,-0.1106 -0.066,-0.18106 0,-0.0204 0.0029,-0.0426 0.0085,-0.0656 v 0 l 0.967418,-4.05467 c 0.0149,-0.0614 0.03974,-0.12126 0.07879,-0.16632 0.04329,-0.05 0.09937,-0.0811 0.169635,-0.0811 h 1.88231 c -0.107885,-0.20564 -0.170344,-0.44651 -0.170344,-0.70459 0,-0.37524 0.132016,-0.71525 0.344946,-0.96185 0.212932,-0.24579 0.507488,-0.39818 0.833272,-0.39818 0.325783,0 0.619628,0.15239 0.833269,0.39818 0.212931,0.24579 0.344948,0.5858 0.344948,0.96185 0,0.25808 -0.06246,0.49895 -0.170345,0.70459 h 2.311009 c 0.0639,0 0.11569,0.0262 0.15686,0.0688 0.004,0.004 0.008,0.008 0.0121,0.0123 0.039,0.0451 0.0639,0.10487 0.0788,0.16632 l 0.96813,4.05549 c 0.006,0.0238 0.009,0.0451 0.009,0.0648 0,0.0705 -0.0256,0.13273 -0.066,0.18025 -0.0319,0.0385 -0.0759,0.0672 -0.12137,0.0819 -0.0241,0.008 -0.0476,0.0123 -0.0696,0.0123 z m -3.199641,-3.219 0.04827,0.56121 h 1.237838 l -0.08872,-0.56121 z m -2.981743,0 -0.112853,0.56121 h 1.149828 l 0.066,-0.56121 z m 1.407474,0 -0.06602,0.56121 h 1.386181 l -0.04827,-0.56121 z m 1.653055,0.91188 0.04827,0.56121 h 1.303848 l -0.08872,-0.56121 z m -3.243649,0 -0.112853,0.56121 h 1.225772 l 0.06602,-0.56121 z m 1.482709,0 -0.06602,0.56121 h 1.57214 l -0.04827,-0.56121 z m -0.456381,-4.90019 c -0.0362,-0.0729 -0.0149,-0.1655 0.04827,-0.20728 0.06318,-0.0418 0.143374,-0.0172 0.179572,0.0557 l 0.168926,0.33754 c 0.0362,0.0729 0.0149,0.1655 -0.04756,0.20728 -0.06318,0.0418 -0.143374,0.0172 -0.179572,-0.0557 z m 0.946123,-0.35803 c 0,-0.0844 0.05891,-0.15239 0.132017,-0.15239 0.0731,0 0.132018,0.068 0.132018,0.15239 v 0.38998 c 0,0.0844 -0.05891,0.15239 -0.132018,0.15239 -0.0731,0 -0.132017,-0.068 -0.132017,-0.15239 z m 0.975934,0.23759 c 0.0362,-0.0729 0.116402,-0.0975 0.179571,-0.0557 0.06318,0.0418 0.08446,0.13436 0.04827,0.20728 l -0.168925,0.33837 c -0.0362,0.0729 -0.116403,0.0975 -0.179573,0.0557 -0.06317,-0.0418 -0.08446,-0.13436 -0.04827,-0.20728 z m 0.740999,0.76768 c 0.06317,-0.0418 0.143374,-0.0172 0.179571,0.0557 0.0362,0.0729 0.0149,0.16549 -0.04827,0.20728 l -0.292425,0.19499 c -0.06318,0.0418 -0.143373,0.0172 -0.179572,-0.0549 -0.0362,-0.0729 -0.0149,-0.16549 0.04827,-0.20728 z m 0.31017,1.09211 c 0.0731,0 0.132017,0.068 0.132017,0.15239 0,0.0844 -0.05891,0.15239 -0.132017,0.15239 H 38.5929 c -0.0731,0 -0.132018,-0.068 -0.132018,-0.15239 0,-0.0844 0.05891,-0.15239 0.132018,-0.15239 z m -3.844114,0.24251 c -0.0731,0 -0.132017,-0.068 -0.132017,-0.15238 0,-0.0844 0.05891,-0.15239 0.132017,-0.15239 h 0.33785 c 0.0731,0 0.132017,0.068 0.132017,0.15239 0,0.0844 -0.05891,0.15238 -0.132017,0.15238 z"
       id="path9153-4"
       style="fill:#3548ba;fill-opacity:1;stroke-width:0.0762568" /><path
       d="m 60.930382,52.279169 a 0.63565081,0.56705036 0 0 1 0.0644,0.0327 l 0.0107,0.005 a 0.53641419,0.4785235 0 0 1 0.12784,0.10846 0.52210982,0.4657629 0 0 1 0.0796,0.14037 v 0 a 0.52657992,0.46975056 0 0 1 0.0206,0.1595 0.67856397,0.60533222 0 0 1 -0.033,0.15951 v 0 a 0.71521893,0.63803135 0 0 1 -0.0366,0.0797 0.83233597,0.742509 0 0 1 -0.0465,0.0718 0.81713756,0.72895078 0 0 1 -0.27626,0.21773 2.3164153,2.0664241 0 0 1 -0.30843,0.13398 c -0.84932,0.31104 -1.68702,0.68589 -2.53634,0.98896 a 0.28072343,0.2504273 0 0 1 -0.0894,0.0152 v 0 a 0.20383739,0.18183893 0 0 1 -0.11175,-0.0256 l -0.033,-0.0231 a 0.17880473,0.15950784 0 0 1 -0.0304,-0.0375 l -0.009,-0.0191 -0.0108,-0.0215 a 0.1591362,0.14196197 0 0 1 0,-0.0311 v 0 a 0.20383739,0.18183893 0 0 1 0.042,-0.10448 v 0 a 0.36565566,0.32619351 0 0 1 0.0608,-0.0574 c 0.7474,-0.55509 1.53325,-1.08306 2.29406,-1.62299 0.0537,-0.0383 0.10907,-0.075 0.16361,-0.10687 a 0.99862436,0.89085122 0 0 1 0.17254,-0.0797 h 0.0116 a 0.58558547,0.52238812 0 0 1 0.18864,-0.0343 0.60435996,0.53913648 0 0 1 0.19758,0.0256 h 0.009 a 0.65531934,0.58459619 0 0 1 0.0804,0.0279 z m -1.28382,4.49413 h 1.5261 l 0.57217,-3.49881 a 0.14572586,0.12999889 0 0 1 0.14483,-0.11883 h 0.53642 a 0.14572586,0.12999889 0 0 1 0.14304,0.10846 l 0.66158,3.50917 h 1.53325 a 0.07956811,0.07098099 0 0 1 0.0787,0.0702 v 0.53276 a 0.07956811,0.07098099 0 0 1 -0.0787,0.0702 h -5.11739 a 0.07867408,0.07018344 0 0 1 -0.0787,-0.0702 v -0.53276 a 0.07867408,0.07018344 0 0 1 0.0787,-0.0702 z m 2.86088,-5.26934 a 0.80462124,0.71778529 0 0 1 0.25658,0.15233 0.78048265,0.6962517 0 0 1 0.22977,0.4865 v 0.012 a 0.78405873,0.69944188 0 0 1 -0.23156,0.49766 0.77690657,0.69306152 0 0 1 -0.25658,0.15233 0.78674082,0.70183445 0 0 1 -1.03081,-0.38122 0.7903169,0.70502463 0 0 1 0,-0.53834 0.78674082,0.70183445 0 0 1 0.17075,-0.2289 v 0 a 0.81803165,0.72974833 0 0 1 0.25659,-0.15153 0.78763489,0.70263198 0 0 1 0.60257,0 z m 0,-0.36528 a 0.49975921,0.44582438 0 0 1 -0.0715,0.0359 0.52032176,0.4641678 0 0 1 -0.17344,0.0431 0.49528911,0.44183671 0 0 1 -0.16986,-0.012 h -0.008 a 0.55697676,0.49686693 0 0 1 -0.16093,-0.0662 0.59631376,0.53195862 0 0 1 -0.12427,-0.0981 l -0.01,-0.01 a 0.68929227,0.61490272 0 0 1 -0.0527,-0.0646 c -0.0152,-0.0223 -0.0304,-0.0463 -0.0438,-0.071 v 0 c -0.10728,-0.20258 -0.0715,-0.41233 -0.0358,-0.62607 0.16092,-0.79754 0.20116,-1.65569 0.36298,-2.45323 a 0.30843816,0.27515101 0 0 1 0.0286,-0.0702 v -0.005 a 0.21635373,0.19300449 0 0 1 0.076,-0.0686 h 0.005 a 0.15109,0.13478413 0 0 1 0.0447,-0.0143 0.15645415,0.13956936 0 0 1 0.0376,0 0.16897047,0.15073491 0 0 1 0.059,-10e-4 l 0.0286,0.0128 a 0.20651946,0.18423155 0 0 1 0.0787,0.0797 l 0.005,0.01 a 0.3522453,0.31423042 0 0 1 0.0251,0.0869 c 0.15734,0.8119 0.24496,1.73465 0.3576,2.56249 a 0.1966852,0.17545862 0 0 1 0,0.0287 v 0 c 0.007,0.0558 0.0134,0.11085 0.0152,0.16509 a 0.98342596,0.87729314 0 0 1 -0.0116,0.17945 v 0.005 a 0.61061815,0.54471927 0 0 1 -0.0644,0.1595 0.58200938,0.51919802 0 0 1 -0.13589,0.14596 0.63118071,0.56306268 0 0 1 -0.0697,0.0455 z m 0.62581,1.67484 a 0.62581656,0.5582774 0 0 1 0,-0.0734 0.52121577,0.46496532 0 0 1 0.0447,-0.15951 0.48545484,0.43306377 0 0 1 0.0894,-0.12282 l 0.008,-0.007 a 0.5435664,0.48490384 0 0 1 0.14393,-0.0909 0.66694166,0.59496425 0 0 1 0.15915,-0.0478 h 0.0125 a 0.67677587,0.60373716 0 0 1 0.0894,-0.009 0.72773519,0.6491969 0 0 1 0.0894,0 h 0.007 a 0.82965389,0.74011635 0 0 1 0.35046,0.10607 2.4299563,2.1677115 0 0 1 0.2843,0.18183 c 0.72594,0.50325 1.46083,0.99773 2.19214,1.49619 l 0.0125,0.01 a 0.33794093,0.3014698 0 0 1 0.0545,0.0622 0.21814177,0.19459956 0 0 1 0.0286,0.0917 v 0.0207 0.0136 a 0.16897047,0.15073491 0 0 1 -0.0215,0.0478 0.18327485,0.16349553 0 0 1 -0.0349,0.0351 l -0.0125,0.008 a 0.15645415,0.13956936 0 0 1 -0.0241,0.0128 0.22439994,0.20018234 0 0 1 -0.12159,0.016 0.35760945,0.31901566 0 0 1 -0.0894,-0.0207 l -2.6928,-1.00816 c -0.0626,-0.0231 -0.12516,-0.0486 -0.18506,-0.0798 a 1.0165049,0.90680205 0 0 1 -0.17255,-0.0965 h -0.004 a 0.57932735,0.51680538 0 0 1 -0.19847,-0.30546 0.54714248,0.48809398 0 0 1 -0.01,-0.0798 z"
       id="path9238-0"
       style="fill:#3548ba;fill-opacity:1;stroke-width:0.0844405" /><rect
       style="fill:#3548ba;fill-opacity:1;stroke-width:0.240058"
       id="rect10779-0"
       width="50.810909"
       height="1.4513344"
       x="24.461597"
       y="68.51004" /><text
       xml:space="preserve"
       style="font-size:9.60228px;line-height:1.25;font-family:sans-serif;text-align:center;text-anchor:middle;fill:#000000;fill-opacity:1;stroke-width:0.240058"
       x="166.17691"
       y="65.714844"
       id="text113-3-8"
       transform="scale(0.98342323,1.0168562)"><tspan
         sodipodi:role="line"
         id="tspan111-7-58"
         style="font-style:normal;font-variant:normal;font-weight:normal;font-stretch:normal;font-family:Tahoma;-inkscape-font-specification:Tahoma;fill:#000000;fill-opacity:1;stroke-width:0.240058"
         x="166.17691"
         y="65.714844">SOLUTIONS</tspan></text><text
       xml:space="preserve"
       style="font-size:9.60228px;line-height:1.25;font-family:sans-serif;text-align:center;text-anchor:middle;fill:#000000;fill-opacity:1;stroke-width:0.240058"
       x="166.06223"
       y="44.605076"
       id="text113-3-7-99"
       transform="scale(0.98342323,1.0168562)"><tspan
         sodipodi:role="line"
         id="tspan111-7-5-9"
         style="font-style:normal;font-variant:normal;font-weight:normal;font-stretch:normal;font-family:Tahoma;-inkscape-font-specification:Tahoma;fill:#000000;fill-opacity:1;stroke-width:0.240058"
         x="166.06223"
         y="44.605076">MICROGRID</tspan></text><path
       class="st0"
       d="m 163.07808,50.81788 h 0.78224 c 0.17991,0 0.32686,0.13889 0.32686,0.30893 v 0.27143 h 0.94707 c 0.12795,0 0.23299,0.0993 0.23299,0.2202 v 5.46816 c 0,0.12094 -0.10504,0.22022 -0.23299,0.22022 h -3.33009 c -0.12795,0 -0.233,-0.0993 -0.233,-0.22022 v -5.46816 c 0,-0.12093 0.10505,-0.2202 0.233,-0.2202 h 0.94707 v -0.27143 c 0,-0.17004 0.14695,-0.30893 0.32685,-0.30893 z m -0.86772,1.19608 h 2.51824 v 4.61164 h -2.51824 z m 0.88449,1.29431 0.72524,0.009 -0.33748,1.03396 h 0.78335 l -1.28957,1.50817 0.32742,-1.03977 H 162.673 Z m -1.21526,-1.61221 h 3.17923 v 5.24744 h -3.17923 z"
       id="path9105-33"
       style="clip-rule:evenodd;fill:#eab308;fill-opacity:1;fill-rule:evenodd;stroke-width:0.0543187" /><path
       d="m 149.02711,48.57813 c -0.0632,-0.0418 -0.0845,-0.13437 -0.0483,-0.20728 0.0362,-0.0729 0.1164,-0.0975 0.17957,-0.0557 l 0.29314,0.19499 c 0.0632,0.0418 0.0844,0.13436 0.0483,0.20728 -0.0362,0.0729 -0.11641,0.0975 -0.17958,0.0557 z m 2.71203,2.05888 0.0625,0.72507 h 1.17112 l -0.11498,-0.72507 z m 1.42451,0 0.11498,0.72507 h 0.91702 l -0.17318,-0.72507 z m 1.11505,1.07409 h -0.94471 l 0.0887,0.56121 h 0.99013 z m 0.2179,0.91188 h -1.01781 l 0.0887,0.56121 h 1.06252 z m 0.21718,0.91022 h -1.09091 l 0.16608,1.04788 h 1.17467 z m -1.23145,1.04788 -0.16608,-1.04788 h -1.32869 l 0.0901,1.04788 z m -1.70841,0 -0.0901,-1.04788 h -1.64241 l -0.12421,1.04788 z m -2.16054,0 0.12421,-1.04788 h -1.25488 l -0.2108,1.04788 z m -1.65093,0 0.21081,-1.04788 h -0.97097 l -0.24984,1.04788 z m -0.67641,-1.39689 h 0.95748 l 0.11286,-0.56121 h -0.9369 z m 0.21719,-0.91188 h 0.9227 l 0.11286,-0.56121 h -0.90141 z m 0.21719,-0.91023 h 0.88863 l 0.14622,-0.72507 h -0.86166 z m 1.34431,-0.72507 -0.14622,0.72507 h 1.07531 l 0.0859,-0.72507 z m 1.31804,0 c 0,0.007 -6.8e-4,0.0123 -0.001,0.0189 l -0.0837,0.70623 h 1.20093 l -0.0625,-0.72507 z m 4.64757,4.29309 h -3.75326 v 1.61319 h 1.15621 v 0.73654 h -2.95051 V 56.54329 H 150.639 V 54.9301 h -3.75327 c -0.022,0 -0.0454,-0.004 -0.0688,-0.0115 -0.0461,-0.0147 -0.0894,-0.0434 -0.12137,-0.0819 -0.0404,-0.0483 -0.066,-0.1106 -0.066,-0.18106 0,-0.0204 0.003,-0.0426 0.008,-0.0656 v 0 l 0.96742,-4.05467 c 0.0149,-0.0614 0.0397,-0.12126 0.0788,-0.16632 0.0433,-0.05 0.0994,-0.0811 0.16963,-0.0811 h 1.88231 c -0.10788,-0.20564 -0.17034,-0.44651 -0.17034,-0.70459 0,-0.37524 0.13202,-0.71525 0.34495,-0.96185 0.21293,-0.24579 0.50748,-0.39818 0.83327,-0.39818 0.32578,0 0.61963,0.15239 0.83327,0.39818 0.21293,0.24579 0.34494,0.5858 0.34494,0.96185 0,0.25808 -0.0625,0.49895 -0.17034,0.70459 h 2.31101 c 0.0639,0 0.11569,0.0262 0.15686,0.0688 0.004,0.004 0.008,0.008 0.0121,0.0123 0.039,0.0451 0.0639,0.10487 0.0788,0.16632 l 0.96813,4.05549 c 0.006,0.0238 0.009,0.0451 0.009,0.0648 0,0.0705 -0.0256,0.13273 -0.066,0.18025 -0.0319,0.0385 -0.0759,0.0672 -0.12137,0.0819 -0.0242,0.008 -0.0476,0.0123 -0.0696,0.0123 z m -3.19964,-3.219 0.0483,0.56121 h 1.23784 l -0.0887,-0.56121 z m -2.98175,0 -0.11285,0.56121 h 1.14983 l 0.066,-0.56121 z m 1.40748,0 -0.066,0.56121 h 1.38618 l -0.0483,-0.56121 z m 1.65305,0.91188 0.0483,0.56121 h 1.30385 l -0.0887,-0.56121 z m -3.24364,0 -0.11286,0.56121 h 1.22577 l 0.066,-0.56121 z m 1.4827,0 -0.066,0.56121 h 1.57214 l -0.0483,-0.56121 z m -0.45638,-4.90019 c -0.0362,-0.0729 -0.0149,-0.1655 0.0483,-0.20728 0.0632,-0.0418 0.14338,-0.0172 0.17957,0.0557 l 0.16893,0.33754 c 0.0362,0.0729 0.0149,0.1655 -0.0476,0.20728 -0.0632,0.0418 -0.14337,0.0172 -0.17957,-0.0557 z m 0.94613,-0.35803 c 0,-0.0844 0.0589,-0.15239 0.13201,-0.15239 0.0731,0 0.13202,0.068 0.13202,0.15239 v 0.38998 c 0,0.0844 -0.0589,0.15238 -0.13202,0.15238 -0.0731,0 -0.13201,-0.068 -0.13201,-0.15238 z m 0.97593,0.23759 c 0.0362,-0.0729 0.1164,-0.0975 0.17957,-0.0557 0.0632,0.0418 0.0845,0.13436 0.0483,0.20728 l -0.16892,0.33837 c -0.0362,0.0729 -0.11641,0.0975 -0.17958,0.0557 -0.0632,-0.0418 -0.0845,-0.13436 -0.0483,-0.20728 z m 0.741,0.76768 c 0.0632,-0.0418 0.14337,-0.0172 0.17957,0.0557 0.0362,0.0729 0.0149,0.16549 -0.0483,0.20728 l -0.29243,0.19499 c -0.0632,0.0418 -0.14337,0.0172 -0.17957,-0.0549 -0.0362,-0.0729 -0.0149,-0.16549 0.0483,-0.20728 z m 0.31017,1.09211 c 0.0731,0 0.13202,0.068 0.13202,0.15239 0,0.0844 -0.0589,0.15239 -0.13202,0.15239 h -0.33785 c -0.0731,0 -0.13202,-0.068 -0.13202,-0.15239 0,-0.0844 0.0589,-0.15239 0.13202,-0.15239 z m -3.84411,0.24251 c -0.0731,0 -0.13202,-0.068 -0.13202,-0.15238 0,-0.0844 0.0589,-0.15239 0.13202,-0.15239 h 0.33785 c 0.0731,0 0.13201,0.068 0.13201,0.15239 0,0.0844 -0.0589,0.15238 -0.13201,0.15238 z"
       id="path9153-7"
       style="fill:#eab308;fill-opacity:1;stroke-width:0.0762568" /><path
       d="m 174.66502,52.12185 a 0.63565081,0.56705036 0 0 1 0.0644,0.0327 l 0.0107,0.005 a 0.53641419,0.4785235 0 0 1 0.12784,0.10846 0.52210982,0.4657629 0 0 1 0.0796,0.14037 v 0 a 0.52657992,0.46975056 0 0 1 0.0206,0.1595 0.67856397,0.60533222 0 0 1 -0.033,0.15951 v 0 a 0.71521893,0.63803135 0 0 1 -0.0366,0.0797 0.83233597,0.742509 0 0 1 -0.0465,0.0718 0.81713756,0.72895078 0 0 1 -0.27626,0.21773 2.3164153,2.0664241 0 0 1 -0.30843,0.13398 c -0.84932,0.31104 -1.68702,0.68589 -2.53634,0.98896 a 0.28072343,0.2504273 0 0 1 -0.0894,0.0152 v 0 a 0.20383739,0.18183893 0 0 1 -0.11175,-0.0256 l -0.033,-0.0231 a 0.17880473,0.15950784 0 0 1 -0.0304,-0.0375 l -0.009,-0.0191 -0.0108,-0.0215 a 0.1591362,0.14196197 0 0 1 0,-0.0311 v 0 a 0.20383739,0.18183893 0 0 1 0.042,-0.10448 v 0 a 0.36565566,0.32619351 0 0 1 0.0608,-0.0574 c 0.7474,-0.55509 1.53325,-1.08306 2.29406,-1.62299 0.0537,-0.0383 0.10907,-0.075 0.16361,-0.10687 a 0.99862436,0.89085122 0 0 1 0.17254,-0.0797 h 0.0116 a 0.58558547,0.52238812 0 0 1 0.18864,-0.0343 0.60435996,0.53913648 0 0 1 0.19757,0.0256 h 0.009 a 0.65531934,0.58459619 0 0 1 0.0805,0.0279 z m -1.28382,4.49413 h 1.5261 l 0.57217,-3.4988 a 0.14572586,0.12999889 0 0 1 0.14483,-0.11883 h 0.53641 a 0.14572586,0.12999889 0 0 1 0.14305,0.10846 l 0.66158,3.50917 h 1.53325 a 0.07956811,0.07098099 0 0 1 0.0787,0.0702 v 0.53276 a 0.07956811,0.07098099 0 0 1 -0.0787,0.0702 h -5.11739 a 0.07867408,0.07018344 0 0 1 -0.0787,-0.0702 v -0.53276 a 0.07867408,0.07018344 0 0 1 0.0787,-0.0702 z m 2.86087,-5.26933 a 0.80462124,0.71778529 0 0 1 0.25659,0.15232 0.78048265,0.6962517 0 0 1 0.22976,0.4865 v 0.012 a 0.78405873,0.69944188 0 0 1 -0.23155,0.49766 0.77690657,0.69306152 0 0 1 -0.25658,0.15233 0.78674082,0.70183445 0 0 1 -1.03081,-0.38122 0.7903169,0.70502463 0 0 1 0,-0.53834 0.78674082,0.70183445 0 0 1 0.17075,-0.2289 v 0 a 0.81803165,0.72974833 0 0 1 0.25659,-0.15153 0.78763489,0.70263198 0 0 1 0.60257,0 z m 0,-0.36528 a 0.49975921,0.44582438 0 0 1 -0.0715,0.0359 0.52032176,0.4641678 0 0 1 -0.17344,0.0431 0.49528911,0.44183671 0 0 1 -0.16987,-0.012 h -0.008 a 0.55697676,0.49686693 0 0 1 -0.16092,-0.0662 0.59631376,0.53195862 0 0 1 -0.12427,-0.0981 l -0.01,-0.01 a 0.68929227,0.61490272 0 0 1 -0.0527,-0.0646 c -0.0152,-0.0223 -0.0304,-0.0463 -0.0438,-0.071 v 0 c -0.10728,-0.20258 -0.0715,-0.41233 -0.0358,-0.62607 0.16092,-0.79754 0.20115,-1.65569 0.36297,-2.45323 a 0.30843816,0.27515101 0 0 1 0.0286,-0.0702 v -0.005 a 0.21635373,0.19300449 0 0 1 0.076,-0.0686 h 0.005 a 0.15109,0.13478413 0 0 1 0.0447,-0.0143 0.15645415,0.13956936 0 0 1 0.0376,0 0.16897047,0.15073491 0 0 1 0.059,-10e-4 l 0.0286,0.0128 a 0.20651946,0.18423155 0 0 1 0.0787,0.0797 l 0.005,0.01 a 0.3522453,0.31423042 0 0 1 0.025,0.0869 c 0.15735,0.8119 0.24497,1.73465 0.35761,2.56249 a 0.1966852,0.17545862 0 0 1 0,0.0287 v 0 c 0.007,0.0558 0.0134,0.11085 0.0152,0.16509 a 0.98342596,0.87729314 0 0 1 -0.0116,0.17945 v 0.006 a 0.61061815,0.54471927 0 0 1 -0.0644,0.1595 0.58200938,0.51919802 0 0 1 -0.1359,0.14596 0.63118071,0.56306268 0 0 1 -0.0697,0.0455 z m 0.62581,1.67484 a 0.62581656,0.5582774 0 0 1 0,-0.0734 0.52121577,0.46496532 0 0 1 0.0447,-0.15951 0.48545484,0.43306377 0 0 1 0.0894,-0.12282 l 0.008,-0.007 a 0.5435664,0.48490384 0 0 1 0.14394,-0.0909 0.66694166,0.59496425 0 0 1 0.15915,-0.0478 h 0.0125 a 0.67677587,0.60373716 0 0 1 0.0894,-0.009 0.72773519,0.6491969 0 0 1 0.0894,0 h 0.007 a 0.82965389,0.74011635 0 0 1 0.35046,0.10607 2.4299563,2.1677115 0 0 1 0.2843,0.18183 c 0.72594,0.50325 1.46082,0.99773 2.19214,1.49619 l 0.0125,0.01 a 0.33794093,0.3014698 0 0 1 0.0545,0.0622 0.21814177,0.19459956 0 0 1 0.0286,0.0917 v 0.0207 0.0136 a 0.16897047,0.15073491 0 0 1 -0.0215,0.0478 0.18327485,0.16349553 0 0 1 -0.0349,0.0351 l -0.0125,0.008 a 0.15645415,0.13956936 0 0 1 -0.0241,0.0128 0.22439994,0.20018234 0 0 1 -0.12159,0.016 0.35760945,0.31901566 0 0 1 -0.0894,-0.0207 l -2.6928,-1.00816 c -0.0626,-0.0231 -0.12517,-0.0486 -0.18506,-0.0798 a 1.0165049,0.90680205 0 0 1 -0.17255,-0.0965 h -0.004 a 0.57932735,0.51680538 0 0 1 -0.19847,-0.30546 0.54714248,0.48809398 0 0 1 -0.01,-0.0797 z"
       id="path9238-73"
       style="fill:#eab308;fill-opacity:1;stroke-width:0.0844405" /><rect
       style="fill:#eab308;fill-opacity:1;stroke-width:0.240058"
       id="rect10779-2"
       width="50.810909"
       height="1.4513344"
       x="138.19624"
       y="68.35273" /><text
       xml:space="preserve"
       style="font-size:9.60228px;line-height:1.25;font-family:sans-serif;text-align:center;text-anchor:middle;fill:#000000;fill-opacity:1;stroke-width:0.240058"
       x="108.75092"
       y="105.47318"
       id="text113-3-5"
       transform="scale(0.98342323,1.0168562)"><tspan
         sodipodi:role="line"
         id="tspan111-7-6"
         style="font-style:normal;font-variant:normal;font-weight:normal;font-stretch:normal;font-family:Tahoma;-inkscape-font-specification:Tahoma;fill:#000000;fill-opacity:1;stroke-width:0.240058"
         x="108.75092"
         y="105.47318">SOLUTIONS</tspan></text><text
       xml:space="preserve"
       style="font-size:9.60228px;line-height:1.25;font-family:sans-serif;text-align:center;text-anchor:middle;fill:#000000;fill-opacity:1;stroke-width:0.240058"
       x="108.63623"
       y="84.363403"
       id="text113-3-7-3"
       transform="scale(0.98342323,1.0168562)"><tspan
         sodipodi:role="line"
         id="tspan111-7-5-4"
         style="font-style:normal;font-variant:normal;font-weight:normal;font-stretch:normal;font-family:Tahoma;-inkscape-font-specification:Tahoma;fill:#000000;fill-opacity:1;stroke-width:0.240058"
         x="108.63623"
         y="84.363403">MICROGRID</tspan></text><path
       class="st0"
       d="m 106.60404,91.246379 h 0.78224 c 0.17991,0 0.32686,0.138887 0.32686,0.308923 v 0.271429 h 0.94706 c 0.12795,0 0.233,0.09928 0.233,0.220204 V 97.5151 c 0,0.120933 -0.10505,0.220212 -0.233,0.220212 h -3.33009 c -0.12794,0 -0.23299,-0.09928 -0.23299,-0.220212 v -5.468165 c 0,-0.120929 0.10505,-0.220204 0.23299,-0.220204 h 0.94707 v -0.271429 c 0,-0.170036 0.14695,-0.308923 0.32686,-0.308923 z m -0.86772,1.19608 h 2.51824 v 4.611635 h -2.51824 z m 0.88449,1.294303 0.72523,0.0085 -0.33747,1.033961 h 0.78335 l -1.28957,1.508172 0.32742,-1.039772 h -0.63081 z m -1.21526,-1.612203 h 3.17922 v 5.247435 h -3.17922 z"
       id="path9105-0"
       style="clip-rule:evenodd;fill:#a3e635;fill-opacity:1;fill-rule:evenodd;stroke-width:0.0543187" /><path
       d="m 92.553062,89.006626 c -0.06318,-0.04178 -0.08446,-0.134368 -0.04827,-0.207281 0.0362,-0.07292 0.116403,-0.0975 0.179572,-0.05571 l 0.293135,0.194988 c 0.06318,0.04178 0.08446,0.134363 0.04827,0.207282 -0.0362,0.07292 -0.116402,0.0975 -0.179572,0.05571 z m 2.712031,2.058882 0.06246,0.72507 h 1.17112 l -0.114982,-0.72507 z m 1.424508,0 0.114982,0.72507 h 0.917023 l -0.173184,-0.72507 z m 1.115048,1.074091 h -0.944703 l 0.08872,0.56121 h 0.990133 z m 0.2179,0.911872 h -1.01781 l 0.08872,0.561215 h 1.06253 z m 0.21719,0.910229 h -1.090917 l 0.166086,1.04788 h 1.174671 z m -1.231451,1.04788 -0.166087,-1.04788 h -1.328688 l 0.09014,1.04788 z m -1.708416,0 -0.09014,-1.04788 h -1.642407 l -0.12421,1.04788 z m -2.16054,0 0.12421,-1.04788 h -1.254874 l -0.210801,1.04788 z m -1.650925,0 0.210802,-1.04788 h -0.970965 l -0.249839,1.04788 z m -0.676411,-1.396894 h 0.95748 l 0.112853,-0.561215 h -0.936896 z m 0.217191,-0.911877 h 0.9227 l 0.112853,-0.56121 h -0.901408 z m 0.217189,-0.910231 h 0.888631 l 0.146213,-0.72507 h -0.861661 z m 1.344304,-0.72507 -0.146213,0.72507 h 1.075302 l 0.08588,-0.72507 z m 1.318042,0 c 0,0.0067 -6.76e-4,0.01229 -0.0014,0.01886 l -0.08375,0.706231 h 1.200932 l -0.06246,-0.725078 z m 4.647577,4.293087 h -3.753267 v 1.613186 h 1.156215 v 0.736542 h -2.950512 v -0.736542 h 1.156215 v -1.613186 h -3.753264 c -0.02201,0 -0.04542,-0.0039 -0.06884,-0.01149 -0.04613,-0.01474 -0.08944,-0.04343 -0.121371,-0.08193 -0.04045,-0.04835 -0.066,-0.1106 -0.066,-0.181062 0,-0.02045 0.0029,-0.04264 0.0085,-0.06555 v 0 l 0.967418,-4.054673 c 0.0149,-0.06142 0.03974,-0.12126 0.07879,-0.166319 0.04329,-0.05 0.09937,-0.08112 0.169635,-0.08112 h 1.88231 c -0.107885,-0.20564 -0.170344,-0.446511 -0.170344,-0.70459 0,-0.375233 0.132016,-0.715242 0.344946,-0.961844 0.212932,-0.245793 0.507488,-0.398178 0.833272,-0.398178 0.325783,0 0.619628,0.152385 0.833269,0.398178 0.212931,0.245785 0.344948,0.585795 0.344948,0.961844 0,0.258079 -0.06246,0.49895 -0.170345,0.70459 h 2.311011 c 0.06387,0 0.115691,0.02623 0.156859,0.06883 0.0043,0.0039 0.0085,0.0082 0.01207,0.01229 0.03904,0.0451 0.06387,0.10487 0.07878,0.166319 l 0.96812,4.055495 c 0.006,0.02378 0.009,0.0451 0.009,0.06475 0,0.07046 -0.0256,0.132727 -0.066,0.180245 -0.0319,0.03852 -0.0759,0.06718 -0.12137,0.08192 -0.0242,0.0082 -0.0476,0.01229 -0.0696,0.01229 z m -3.199647,-3.218996 0.04827,0.56121 h 1.237838 l -0.08872,-0.56121 z m -2.981743,0 -0.112853,0.56121 h 1.149828 l 0.066,-0.56121 z m 1.407474,0 -0.06602,0.56121 h 1.386181 l -0.04827,-0.56121 z m 1.653055,0.911872 0.04827,0.561215 h 1.303848 l -0.08872,-0.561215 z m -3.243649,0 -0.112853,0.561215 h 1.225772 l 0.06602,-0.561215 z m 1.482709,0 -0.06602,0.561215 h 1.57214 l -0.04827,-0.561215 z m -0.456381,-4.900187 c -0.0362,-0.07292 -0.0149,-0.165502 0.04827,-0.207281 0.06318,-0.04178 0.143374,-0.01719 0.179572,0.05571 l 0.168926,0.337545 c 0.0362,0.07292 0.0149,0.165496 -0.04756,0.207281 -0.06318,0.04178 -0.143374,0.01719 -0.179572,-0.05571 z m 0.946123,-0.358033 c 0,-0.0844 0.05891,-0.152385 0.132017,-0.152385 0.0731,0 0.132018,0.068 0.132018,0.152385 v 0.389983 c 0,0.08439 -0.05891,0.152386 -0.132018,0.152386 -0.0731,0 -0.132017,-0.068 -0.132017,-0.152386 z m 0.975934,0.237598 c 0.0362,-0.07292 0.116402,-0.0975 0.179571,-0.05571 0.06318,0.04178 0.08446,0.134361 0.04827,0.207281 l -0.168925,0.338367 c -0.0362,0.07291 -0.116403,0.09749 -0.179573,0.05571 -0.06317,-0.04178 -0.08446,-0.134367 -0.04827,-0.20728 z m 0.740999,0.767673 c 0.06317,-0.04178 0.143374,-0.0172 0.179571,0.05571 0.0362,0.07292 0.0149,0.165494 -0.04827,0.207279 l -0.292425,0.194995 c -0.06318,0.04178 -0.143373,0.0172 -0.179572,-0.05492 -0.0362,-0.07292 -0.0149,-0.165494 0.04827,-0.207281 z m 0.31017,1.092115 c 0.0731,0 0.132017,0.068 0.132017,0.152392 0,0.0844 -0.05891,0.152386 -0.132017,0.152386 h -0.337851 c -0.0731,0 -0.132018,-0.068 -0.132018,-0.152386 0,-0.08438 0.05891,-0.152392 0.132018,-0.152392 z m -3.844114,0.242512 c -0.0731,0 -0.132017,-0.068 -0.132017,-0.152386 0,-0.0844 0.05891,-0.152391 0.132017,-0.152391 h 0.33785 c 0.0731,0 0.132017,0.068 0.132017,0.152391 0,0.08439 -0.05891,0.152386 -0.132017,0.152386 z"
       id="path9153-6"
       style="fill:#a3e635;fill-opacity:1;stroke-width:0.0762568" /><path
       d="m 118.19098,92.55035 a 0.63565081,0.56705036 0 0 1 0.0644,0.0327 l 0.0107,0.0055 a 0.53641419,0.4785235 0 0 1 0.12784,0.108462 0.52210982,0.4657629 0 0 1 0.0796,0.140368 v 0 a 0.52657992,0.46975056 0 0 1 0.0206,0.159506 0.67856397,0.60533222 0 0 1 -0.033,0.159505 v 0 a 0.71521893,0.63803135 0 0 1 -0.0366,0.07975 0.83233597,0.742509 0 0 1 -0.0465,0.07177 0.81713756,0.72895078 0 0 1 -0.27626,0.217734 2.3164153,2.0664241 0 0 1 -0.30844,0.133981 c -0.84931,0.311043 -1.68702,0.685891 -2.53634,0.988954 a 0.28072343,0.2504273 0 0 1 -0.0894,0.01515 v 0 a 0.20383739,0.18183893 0 0 1 -0.11175,-0.02558 l -0.033,-0.02313 a 0.17880473,0.15950784 0 0 1 -0.0304,-0.03748 l -0.009,-0.01914 -0.0108,-0.02147 a 0.1591362,0.14196197 0 0 1 0,-0.0311 v 0 a 0.20383739,0.18183893 0 0 1 0.042,-0.104475 v 0 a 0.36565566,0.32619351 0 0 1 0.0608,-0.05742 c 0.7474,-0.555088 1.53325,-1.083061 2.29407,-1.62299 0.0537,-0.03828 0.10907,-0.07498 0.1636,-0.106873 a 0.99862436,0.89085122 0 0 1 0.17255,-0.07974 h 0.0116 a 0.58558547,0.52238812 0 0 1 0.18864,-0.03429 0.60435996,0.53913648 0 0 1 0.19757,0.02559 h 0.009 a 0.65531934,0.58459619 0 0 1 0.0804,0.02792 z m -1.28383,4.49413 h 1.5261 l 0.57217,-3.498804 a 0.14572586,0.12999889 0 0 1 0.14484,-0.118834 h 0.53641 a 0.14572586,0.12999889 0 0 1 0.14304,0.108467 l 0.66159,3.509171 h 1.53324 a 0.07956811,0.07098099 0 0 1 0.0787,0.07018 v 0.532758 a 0.07956811,0.07098099 0 0 1 -0.0787,0.07018 h -5.11739 a 0.07867408,0.07018344 0 0 1 -0.0787,-0.07018 V 97.11466 a 0.07867408,0.07018344 0 0 1 0.0787,-0.07018 z m 2.86088,-5.269338 a 0.80462124,0.71778529 0 0 1 0.25658,0.152328 0.78048265,0.6962517 0 0 1 0.22977,0.4865 v 0.01197 a 0.78405873,0.69944188 0 0 1 -0.23155,0.497664 0.77690657,0.69306152 0 0 1 -0.25658,0.152328 0.78674082,0.70183445 0 0 1 -1.03082,-0.38122 0.7903169,0.70502463 0 0 1 0,-0.538341 0.78674082,0.70183445 0 0 1 0.17076,-0.228898 v 0 a 0.81803165,0.72974833 0 0 1 0.25658,-0.151525 0.78763489,0.70263198 0 0 1 0.60257,0 z m 0,-0.365278 a 0.49975921,0.44582438 0 0 1 -0.0715,0.03589 0.52032176,0.4641678 0 0 1 -0.17344,0.04306 0.49528911,0.44183671 0 0 1 -0.16987,-0.01196 h -0.008 a 0.55697676,0.49686693 0 0 1 -0.16092,-0.0662 0.59631376,0.53195862 0 0 1 -0.12427,-0.0981 l -0.01,-0.0096 a 0.68929227,0.61490272 0 0 1 -0.0527,-0.0646 c -0.0152,-0.02233 -0.0304,-0.04625 -0.0438,-0.07099 v 0 c -0.10728,-0.202576 -0.0715,-0.412329 -0.0358,-0.626069 0.16092,-0.797536 0.20115,-1.655686 0.36297,-2.453229 a 0.30843816,0.27515101 0 0 1 0.0286,-0.07018 v -0.0055 a 0.21635373,0.19300449 0 0 1 0.076,-0.06859 h 0.005 a 0.15109,0.13478413 0 0 1 0.0447,-0.01435 0.15645415,0.13956936 0 0 1 0.0376,0 0.16897047,0.15073491 0 0 1 0.059,-0.0012 l 0.0286,0.01276 a 0.20651946,0.18423155 0 0 1 0.0787,0.07974 l 0.005,0.0096 a 0.3522453,0.31423042 0 0 1 0.0251,0.08694 c 0.15735,0.811897 0.24496,1.734649 0.35761,2.562489 a 0.1966852,0.17545862 0 0 1 0,0.02871 v 0 c 0.007,0.05582 0.0134,0.110854 0.0152,0.165088 a 0.98342596,0.87729314 0 0 1 -0.0116,0.179449 v 0.0055 a 0.61061815,0.54471927 0 0 1 -0.0644,0.159506 0.58200938,0.51919802 0 0 1 -0.1359,0.145955 0.63118071,0.56306268 0 0 1 -0.0697,0.04545 z m 0.62581,1.674839 a 0.62581656,0.5582774 0 0 1 0,-0.07339 0.52121577,0.46496532 0 0 1 0.0447,-0.159505 0.48545484,0.43306377 0 0 1 0.0894,-0.122823 l 0.008,-0.0072 a 0.5435664,0.48490384 0 0 1 0.14394,-0.09092 0.66694166,0.59496425 0 0 1 0.15914,-0.04784 h 0.0125 a 0.67677587,0.60373716 0 0 1 0.0894,-0.0088 0.72773519,0.6491969 0 0 1 0.0894,0 h 0.007 a 0.82965389,0.74011635 0 0 1 0.35046,0.106069 2.4299563,2.1677115 0 0 1 0.2843,0.181835 c 0.72595,0.503247 1.46083,0.997725 2.19214,1.496187 l 0.0125,0.0096 a 0.33794093,0.3014698 0 0 1 0.0545,0.06221 0.21814177,0.19459956 0 0 1 0.0286,0.09172 v 0.02073 0.01356 a 0.16897047,0.15073491 0 0 1 -0.0215,0.04784 0.18327485,0.16349553 0 0 1 -0.0349,0.03509 l -0.0125,0.008 a 0.15645415,0.13956936 0 0 1 -0.0241,0.01276 0.22439994,0.20018234 0 0 1 -0.12158,0.01595 0.35760945,0.31901566 0 0 1 -0.0894,-0.02073 l -2.69281,-1.008158 c -0.0626,-0.02313 -0.12516,-0.04865 -0.18506,-0.07975 a 1.0165049,0.90680205 0 0 1 -0.17254,-0.0965 h -0.004 a 0.57932735,0.51680538 0 0 1 -0.19848,-0.305462 0.54714248,0.48809398 0 0 1 -0.01,-0.07975 z"
       id="path9238-04"
       style="fill:#a3e635;fill-opacity:1;stroke-width:0.0844405" /><rect
       style="fill:#a3e635;fill-opacity:1;stroke-width:0.240058"
       id="rect10779-05"
       width="50.810909"
       height="1.4513344"
       x="81.722191"
       y="108.78123" /><text
       xml:space="preserve"
       style="font-size:9.60228px;line-height:1.25;font-family:sans-serif;text-align:center;text-anchor:middle;fill:#000000;fill-opacity:1;stroke-width:0.240058"
       x="109.71069"
       y="65.869553"
       id="text113-3-6"
       transform="scale(0.98342323,1.0168562)"><tspan
         sodipodi:role="line"
         id="tspan111-7-8"
         style="font-style:normal;font-variant:normal;font-weight:normal;font-stretch:normal;font-family:Tahoma;-inkscape-font-specification:Tahoma;fill:#000000;fill-opacity:1;stroke-width:0.240058"
         x="109.71069"
         y="65.869553">SOLUTIONS</tspan></text><text
       xml:space="preserve"
       style="font-size:9.60228px;line-height:1.25;font-family:sans-serif;text-align:center;text-anchor:middle;fill:#000000;fill-opacity:1;stroke-width:0.240058"
       x="109.59601"
       y="44.759781"
       id="text113-3-7-5"
       transform="scale(0.98342323,1.0168562)"><tspan
         sodipodi:role="line"
         id="tspan111-7-5-37"
         style="font-style:normal;font-variant:normal;font-weight:normal;font-stretch:normal;font-family:Tahoma;-inkscape-font-specification:Tahoma;fill:#000000;fill-opacity:1;stroke-width:0.240058"
         x="109.59601"
         y="44.759781">MICROGRID</tspan></text><path
       class="st0"
       d="m 107.54789,50.975192 h 0.78224 c 0.17991,0 0.32686,0.13889 0.32686,0.30892 v 0.27143 h 0.94706 c 0.12795,0 0.233,0.0993 0.233,0.22021 v 5.46816 c 0,0.12093 -0.10505,0.22021 -0.233,0.22021 h -3.33009 c -0.12794,0 -0.23299,-0.0993 -0.23299,-0.22021 v -5.46816 c 0,-0.12093 0.10505,-0.22021 0.23299,-0.22021 h 0.94707 v -0.27143 c 0,-0.17003 0.14695,-0.30892 0.32686,-0.30892 z m -0.86772,1.19608 h 2.51824 v 4.61163 h -2.51824 z m 0.88449,1.2943 0.72523,0.008 -0.33747,1.03396 h 0.78335 l -1.28957,1.50818 0.32742,-1.03978 h -0.63081 z m -1.21526,-1.6122 h 3.17922 v 5.24743 h -3.17922 z"
       id="path9105-6"
       style="clip-rule:evenodd;fill:#65a30d;fill-opacity:1;fill-rule:evenodd;stroke-width:0.0543187" /><path
       d="m 93.496919,48.735442 c -0.06318,-0.0418 -0.08446,-0.13437 -0.04827,-0.20728 0.0362,-0.0729 0.116403,-0.0975 0.179572,-0.0557 l 0.293135,0.19498 c 0.06318,0.0418 0.08446,0.13437 0.04827,0.20729 -0.0362,0.0729 -0.116402,0.0975 -0.179572,0.0557 z m 2.712036,2.05888 0.0625,0.72507 h 1.17112 l -0.11499,-0.72507 z m 1.4245,0 0.11499,0.72507 h 0.91702 l -0.17319,-0.72507 z m 1.11505,1.07409 h -0.9447 l 0.0887,0.56121 h 0.99013 z m 0.2179,0.91187 h -1.01781 l 0.0887,0.56122 h 1.06253 z m 0.21719,0.91023 h -1.09092 l 0.16609,1.04788 h 1.17467 z m -1.23145,1.04788 -0.16609,-1.04788 h -1.32868 l 0.0901,1.04788 z m -1.70842,0 -0.0901,-1.04788 h -1.6424 l -0.12421,1.04788 z m -2.160536,0 0.124206,-1.04788 h -1.25487 l -0.210801,1.04788 z m -1.650925,0 0.210802,-1.04788 h -0.970965 l -0.249839,1.04788 z m -0.676411,-1.39689 h 0.95748 l 0.112853,-0.56122 H 91.88929 Z m 0.217191,-0.91188 h 0.9227 l 0.112853,-0.56121 h -0.901408 z m 0.217189,-0.91023 h 0.888631 l 0.146213,-0.72507 h -0.861661 z m 1.344304,-0.72507 -0.146213,0.72507 h 1.075301 l 0.0859,-0.72507 z m 1.318038,0 c 0,0.007 -6.7e-4,0.0123 -0.001,0.0189 l -0.0838,0.70623 h 1.20094 l -0.0625,-0.72508 z m 4.64758,4.29309 h -3.75327 v 1.61318 h 1.15622 v 0.73654 h -2.950513 v -0.73654 h 1.156213 v -1.61318 h -3.753262 c -0.02201,0 -0.04542,-0.004 -0.06884,-0.0115 -0.04613,-0.0147 -0.08944,-0.0434 -0.121371,-0.0819 -0.04045,-0.0483 -0.066,-0.1106 -0.066,-0.18107 0,-0.0204 0.0029,-0.0426 0.0085,-0.0656 v 0 l 0.967418,-4.05467 c 0.0149,-0.0614 0.03974,-0.12126 0.07879,-0.16632 0.04329,-0.05 0.09937,-0.0811 0.169635,-0.0811 h 1.88231 c -0.107885,-0.20564 -0.170344,-0.44651 -0.170344,-0.70459 0,-0.37523 0.132016,-0.71524 0.344944,-0.96184 0.21293,-0.24579 0.50749,-0.39818 0.83327,-0.39818 0.32579,0 0.61963,0.15239 0.83327,0.39818 0.21293,0.24578 0.34495,0.58579 0.34495,0.96184 0,0.25808 -0.0625,0.49895 -0.17034,0.70459 h 2.31101 c 0.0639,0 0.11569,0.0262 0.15686,0.0688 0.004,0.004 0.008,0.008 0.0121,0.0123 0.039,0.0451 0.0639,0.10487 0.0788,0.16632 l 0.96812,4.0555 c 0.006,0.0238 0.009,0.0451 0.009,0.0648 0,0.0705 -0.0256,0.13272 -0.066,0.18024 -0.0319,0.0385 -0.0759,0.0672 -0.12137,0.0819 -0.0241,0.008 -0.0476,0.0123 -0.0696,0.0123 z m -3.19965,-3.219 0.0483,0.56121 h 1.23784 l -0.0887,-0.56121 z m -2.981739,0 -0.112853,0.56121 h 1.149832 l 0.066,-0.56121 z m 1.407469,0 -0.066,0.56121 h 1.38618 l -0.0483,-0.56121 z m 1.65306,0.91187 0.0483,0.56122 h 1.30385 l -0.0887,-0.56122 z m -3.243649,0 -0.112853,0.56122 h 1.225772 l 0.066,-0.56122 z m 1.482709,0 -0.066,0.56122 h 1.57214 l -0.0483,-0.56122 z m -0.456381,-4.90018 c -0.0362,-0.0729 -0.0149,-0.16551 0.04827,-0.20729 0.0632,-0.0418 0.14337,-0.0172 0.17957,0.0557 l 0.16893,0.33755 c 0.0362,0.0729 0.0149,0.1655 -0.0476,0.20728 -0.0632,0.0418 -0.14338,0.0172 -0.17957,-0.0557 z m 0.946121,-0.35804 c 0,-0.0844 0.0589,-0.15238 0.13202,-0.15238 0.0731,0 0.13202,0.068 0.13202,0.15238 v 0.38999 c 0,0.0844 -0.0589,0.15238 -0.13202,0.15238 -0.0731,0 -0.13202,-0.068 -0.13202,-0.15238 z m 0.97594,0.2376 c 0.0362,-0.0729 0.1164,-0.0975 0.17957,-0.0557 0.0632,0.0418 0.0845,0.13436 0.0483,0.20728 l -0.16893,0.33837 c -0.0362,0.0729 -0.1164,0.0975 -0.17957,0.0557 -0.0632,-0.0418 -0.0845,-0.13437 -0.0483,-0.20728 z m 0.741,0.76767 c 0.0632,-0.0418 0.14337,-0.0172 0.17957,0.0557 0.0362,0.0729 0.0149,0.1655 -0.0483,0.20728 l -0.29243,0.195 c -0.0632,0.0418 -0.14337,0.0172 -0.17957,-0.0549 -0.0362,-0.0729 -0.0149,-0.1655 0.0483,-0.20728 z m 0.31017,1.09212 c 0.0731,0 0.13201,0.068 0.13201,0.15239 0,0.0844 -0.0589,0.15239 -0.13201,0.15239 h -0.33786 c -0.0731,0 -0.13201,-0.068 -0.13201,-0.15239 0,-0.0844 0.0589,-0.15239 0.13201,-0.15239 z m -3.844119,0.24251 c -0.0731,0 -0.132017,-0.068 -0.132017,-0.15239 0,-0.0844 0.05891,-0.15239 0.132017,-0.15239 h 0.33785 c 0.0731,0 0.132017,0.068 0.132017,0.15239 0,0.0844 -0.05891,0.15239 -0.132017,0.15239 z"
       id="path9153-8"
       style="fill:#65a30d;fill-opacity:1;stroke-width:0.0762568" /><path
       d="m 119.13483,52.279162 a 0.63565081,0.56705036 0 0 1 0.0644,0.0327 l 0.0107,0.005 a 0.53641419,0.4785235 0 0 1 0.12784,0.10846 0.52210982,0.4657629 0 0 1 0.0796,0.14037 v 0 a 0.52657992,0.46975056 0 0 1 0.0206,0.15951 0.67856397,0.60533222 0 0 1 -0.033,0.1595 v 0 a 0.71521893,0.63803135 0 0 1 -0.0366,0.0798 0.83233597,0.742509 0 0 1 -0.0465,0.0718 0.81713756,0.72895078 0 0 1 -0.27626,0.21774 2.3164153,2.0664241 0 0 1 -0.30844,0.13398 c -0.84931,0.31104 -1.68702,0.68589 -2.53633,0.98895 a 0.28072343,0.2504273 0 0 1 -0.0894,0.0151 v 0 a 0.20383739,0.18183893 0 0 1 -0.11176,-0.0256 l -0.033,-0.0231 a 0.17880473,0.15950784 0 0 1 -0.0304,-0.0375 l -0.009,-0.0191 -0.0108,-0.0215 a 0.1591362,0.14196197 0 0 1 0,-0.0311 v 0 a 0.20383739,0.18183893 0 0 1 0.042,-0.10447 v 0 a 0.36565566,0.32619351 0 0 1 0.0608,-0.0574 c 0.74741,-0.55509 1.53325,-1.08306 2.29407,-1.62299 0.0537,-0.0383 0.10907,-0.075 0.1636,-0.10688 a 0.99862436,0.89085122 0 0 1 0.17255,-0.0797 h 0.0116 a 0.58558547,0.52238812 0 0 1 0.18864,-0.0343 0.60435996,0.53913648 0 0 1 0.19757,0.0256 h 0.009 a 0.65531934,0.58459619 0 0 1 0.0805,0.0279 z m -1.28383,4.49413 h 1.5261 l 0.57217,-3.4988 a 0.14572586,0.12999889 0 0 1 0.14484,-0.11884 h 0.53641 a 0.14572586,0.12999889 0 0 1 0.14304,0.10847 l 0.66159,3.50917 h 1.53324 a 0.07956811,0.07098099 0 0 1 0.0787,0.0702 v 0.53276 a 0.07956811,0.07098099 0 0 1 -0.0787,0.0702 H 117.851 a 0.07867408,0.07018344 0 0 1 -0.0787,-0.0702 v -0.53276 a 0.07867408,0.07018344 0 0 1 0.0787,-0.0702 z m 2.86088,-5.26934 a 0.80462124,0.71778529 0 0 1 0.25658,0.15233 0.78048265,0.6962517 0 0 1 0.22977,0.4865 v 0.012 a 0.78405873,0.69944188 0 0 1 -0.23155,0.49767 0.77690657,0.69306152 0 0 1 -0.25658,0.15232 0.78674082,0.70183445 0 0 1 -1.03082,-0.38122 0.7903169,0.70502463 0 0 1 0,-0.53834 0.78674082,0.70183445 0 0 1 0.17076,-0.2289 v 0 a 0.81803165,0.72974833 0 0 1 0.25658,-0.15152 0.78763489,0.70263198 0 0 1 0.60257,0 z m 0,-0.36527 a 0.49975921,0.44582438 0 0 1 -0.0715,0.0359 0.52032176,0.4641678 0 0 1 -0.17344,0.0431 0.49528911,0.44183671 0 0 1 -0.16987,-0.012 h -0.008 a 0.55697676,0.49686693 0 0 1 -0.16092,-0.0662 0.59631376,0.53195862 0 0 1 -0.12427,-0.0981 l -0.01,-0.01 a 0.68929227,0.61490272 0 0 1 -0.0527,-0.0646 c -0.0152,-0.0223 -0.0304,-0.0463 -0.0438,-0.071 v 0 c -0.10729,-0.20257 -0.0715,-0.41232 -0.0358,-0.62606 0.16092,-0.79754 0.20115,-1.65569 0.36297,-2.45323 a 0.30843816,0.27515101 0 0 1 0.0286,-0.0702 v -0.005 a 0.21635373,0.19300449 0 0 1 0.076,-0.0686 h 0.005 a 0.15109,0.13478413 0 0 1 0.0447,-0.0144 0.15645415,0.13956936 0 0 1 0.0376,0 0.16897047,0.15073491 0 0 1 0.059,-0.001 l 0.0286,0.0128 a 0.20651946,0.18423155 0 0 1 0.0787,0.0797 l 0.005,0.01 a 0.3522453,0.31423042 0 0 1 0.025,0.0869 c 0.15735,0.81189 0.24496,1.73465 0.35761,2.56249 a 0.1966852,0.17545862 0 0 1 0,0.0287 v 0 c 0.007,0.0558 0.0134,0.11085 0.0152,0.16508 a 0.98342596,0.87729314 0 0 1 -0.0116,0.17945 v 0.005 a 0.61061815,0.54471927 0 0 1 -0.0644,0.15951 0.58200938,0.51919802 0 0 1 -0.1359,0.14595 0.63118071,0.56306268 0 0 1 -0.0697,0.0454 z m 0.62581,1.67483 a 0.62581656,0.5582774 0 0 1 0,-0.0734 0.52121577,0.46496532 0 0 1 0.0447,-0.1595 0.48545484,0.43306377 0 0 1 0.0894,-0.12282 l 0.008,-0.007 a 0.5435664,0.48490384 0 0 1 0.14394,-0.0909 0.66694166,0.59496425 0 0 1 0.15914,-0.0478 h 0.0125 a 0.67677587,0.60373716 0 0 1 0.0894,-0.009 0.72773519,0.6491969 0 0 1 0.0894,0 h 0.007 a 0.82965389,0.74011635 0 0 1 0.35046,0.10607 2.4299563,2.1677115 0 0 1 0.2843,0.18183 c 0.72595,0.50325 1.46083,0.99773 2.19214,1.49619 l 0.0125,0.01 a 0.33794093,0.3014698 0 0 1 0.0545,0.0622 0.21814177,0.19459956 0 0 1 0.0286,0.0917 v 0.0207 0.0136 a 0.16897047,0.15073491 0 0 1 -0.0215,0.0478 0.18327485,0.16349553 0 0 1 -0.0349,0.0351 l -0.0125,0.008 a 0.15645415,0.13956936 0 0 1 -0.0241,0.0128 0.22439994,0.20018234 0 0 1 -0.12158,0.0159 0.35760945,0.31901566 0 0 1 -0.0894,-0.0207 l -2.69281,-1.00816 c -0.0626,-0.0231 -0.12516,-0.0487 -0.18506,-0.0798 a 1.0165049,0.90680205 0 0 1 -0.17254,-0.0965 h -0.005 a 0.57932735,0.51680538 0 0 1 -0.19848,-0.30546 0.54714248,0.48809398 0 0 1 -0.01,-0.0798 z"
       id="path9238-6"
       style="fill:#65a30d;fill-opacity:1;stroke-width:0.0844405" /><rect
       style="fill:#65a30d;fill-opacity:1;stroke-width:0.240058"
       id="rect10779-7"
       width="50.810909"
       height="1.4513344"
       x="82.666046"
       y="68.510033" /></g><style
     type="text/css"
     id="style9103">.st0{fill-rule:evenodd;clip-rule:evenodd;}</style></svg>
