<svg xmlns="http://www.w3.org/2000/svg" viewBox="0 0 350.00000000000006 329" preserveAspectRatio="xMidYMid meet" class="css-g5ufxp" id="dhhhfbcc"><defs id="SvgjsDefs1695"></defs><g id="SvgjsG1696" featurekey="rootContainer" transform="matrix(1,0,0,1,0,19)" fill="#111"><rect y="0" height="1" width="1" opacity="0"></rect><rect y="305" width="350" height="5"></rect></g><g id="SvgjsG1697" featurekey="symbolFeature-0" transform="matrix(1.750140067820064,0,0,1.750140067820064,88,18)" fill="#111"><circle xmlns="http://www.w3.org/2000/svg" cx="24.998" cy="24.998" r="13.888"></circle><g xmlns="http://www.w3.org/2000/svg"><path d="M8.333,24.998c0-0.469,0.032-0.931,0.07-1.389H0v2.777h8.403C8.365,25.928,8.333,25.467,8.333,24.998z"></path><path d="M14.243,12.279L7.926,5.962L5.962,7.926l6.317,6.317C12.877,13.535,13.535,12.877,14.243,12.279z"></path><path d="M24.998,8.333c0.469,0,0.931,0.033,1.389,0.071V0h-2.777v8.403C24.068,8.365,24.529,8.333,24.998,8.333z"></path><path d="M37.717,14.242l5.562-5.562l-1.964-1.964l-5.562,5.562C36.461,12.877,37.117,13.534,37.717,14.242z"></path><path d="M35.753,37.717l5.562,5.562l1.964-1.963l-5.562-5.562C37.119,36.461,36.461,37.119,35.753,37.717z"></path><path d="M41.593,23.609c0.038,0.458,0.071,0.919,0.071,1.389s-0.033,0.93-0.071,1.389h8.403v-2.777H41.593z"></path><path d="M24.998,41.663c-0.469,0-0.93-0.032-1.389-0.07v8.403h2.777v-8.403C25.929,41.631,25.467,41.663,24.998,41.663z"></path><path d="M12.279,35.753L5.962,42.07l1.964,1.964l6.317-6.317C13.535,37.119,12.877,36.461,12.279,35.753z"></path></g><rect xmlns="http://www.w3.org/2000/svg" x="52.773" y="86.112" width="8.333" height="13.888"></rect><polygon xmlns="http://www.w3.org/2000/svg" points="59.718,80.549 59.718,83.326 76.383,83.326 87.493,72.217 87.493,69.438 70.828,69.438 "></polygon><polygon xmlns="http://www.w3.org/2000/svg" points="83.327,56.939 73.605,66.661 90.271,66.661 90.271,69.438 99.992,59.718 99.992,56.939 "></polygon><polygon xmlns="http://www.w3.org/2000/svg" points="69.438,66.661 79.16,56.939 62.495,56.939 52.773,66.661 "></polygon><polygon xmlns="http://www.w3.org/2000/svg" points="49.996,69.438 38.886,80.549 38.886,83.326 55.551,83.326 55.551,80.549 55.551,80.549 66.661,69.438 "></polygon><polygon xmlns="http://www.w3.org/2000/svg" points="58.329,56.939 41.664,56.939 31.942,66.661 48.607,66.661 "></polygon><polygon xmlns="http://www.w3.org/2000/svg" points="29.165,69.438 18.054,80.549 18.054,83.326 34.72,83.326 34.72,80.549 45.83,69.438 "></polygon></g><g id="SvgjsG1698" featurekey="nameFeature-0" transform="matrix(1.176508242369233,0,0,1.176508242369233,-3.6992934451247663,198.86885553136753)" fill="#111"><path d="M33.828 40 l-3.8086 0 l-1.8164 -22.461 l-8.5352 22.461 l-2.3633 0 l-8.4766 -22.383 l-1.8555 22.383 l-3.8281 0 l2.1289 -27.617 l5.2539 0 l7.9492 20.879 l7.9883 -20.879 l5.2539 0 z M47.64207109375 40 l0 -27.617 l3.8867 0 l0 27.617 l-3.8867 0 z M78.3117734375 40.37109 c-7.832 0 -13.809 -5.3711 -13.809 -14.199 c0 -8.7891 5.9766 -14.16 13.809 -14.16 c5.5859 0 10.215 2.7734 12.344 7.5195 l-3.5938 1.4258 c-1.6016 -3.3789 -4.8633 -5.2734 -8.75 -5.2734 c-5.5469 0 -9.9414 3.8281 -9.9414 10.488 c0 6.6992 4.3945 10.527 9.9414 10.527 c3.8867 0 7.1484 -1.8945 8.75 -5.2734 l3.5938 1.4453 c-2.1289 4.7266 -6.7578 7.5 -12.344 7.5 z M117.82905078125 40 l-7.1484 -12.422 l-3.8672 0 l0 12.422 l-3.8867 0 l0 -27.617 l9.2969 0 c5.7813 0 8.418 3.5352 8.418 7.8711 c0 3.8477 -2.2656 6.5234 -6.0547 7.168 l7.793 12.578 l-4.5508 0 z M106.81295078125 15.742 l0 8.8672 l4.8828 0 c3.5938 0 5.2148 -1.7969 5.2148 -4.4141 c0 -2.5781 -1.6211 -4.4531 -5.2148 -4.4531 l-4.8828 0 z M146.408453125 40.37109 c-7.832 0 -13.809 -5.3906 -13.809 -14.199 c0 -8.7891 5.9766 -14.16 13.809 -14.16 c7.793 0 13.789 5.3711 13.789 14.16 c0 8.8086 -5.9961 14.199 -13.789 14.199 z M146.408453125 36.7187 c5.5273 0 9.9023 -3.8281 9.9023 -10.547 c0 -6.6602 -4.375 -10.488 -9.9023 -10.488 c-5.5469 0 -9.9414 3.8281 -9.9414 10.488 c0 6.7188 4.3945 10.547 9.9414 10.547 z M201.7704765625 40.37109 c-7.7344 0 -13.672 -5.293 -13.672 -14.102 c0 -8.8867 5.9766 -14.258 13.809 -14.258 c5.0781 0 9.4336 2.2266 11.816 6.4453 l-3.4375 1.8359 c-1.7383 -3.2422 -4.8438 -4.7461 -8.3789 -4.7461 c-5.5859 0 -9.9023 3.7891 -9.9023 10.645 c0 6.7578 4.2188 10.684 10.039 10.684 c4.6875 0 8.3594 -2.6367 9.0039 -7.8711 l-9.0234 0 l0 -3.2422 l12.793 0 l0 14.238 l-3.1641 0 l0 -4.9609 c-1.8164 3.3789 -5.2344 5.332 -9.8828 5.332 z M243.26069140625 40 l-7.1484 -12.422 l-3.8672 0 l0 12.422 l-3.8867 0 l0 -27.617 l9.2969 0 c5.7813 0 8.418 3.5352 8.418 7.8711 c0 3.8477 -2.2656 6.5234 -6.0547 7.168 l7.793 12.578 l-4.5508 0 z M232.24459140625 15.742 l0 8.8672 l4.8828 0 c3.5938 0 5.2148 -1.7969 5.2148 -4.4141 c0 -2.5781 -1.6211 -4.4531 -5.2148 -4.4531 l-4.8828 0 z M259.94529375 40 l0 -27.617 l3.8867 0 l0 27.617 l-3.8867 0 z M278.72019609375 40 l0 -27.617 l9.1016 0 c8.4961 0 12.813 5.7031 12.813 13.789 c0 8.1445 -4.3164 13.828 -12.813 13.828 l-9.1016 0 z M282.60689609375 36.4844 l5.0586 0 c6.0352 0 8.9063 -4.0039 8.9063 -10.313 c0 -6.2695 -2.8711 -10.293 -8.9063 -10.293 l-5.0586 0 l0 20.605 z"></path></g><g id="SvgjsG1699" featurekey="nameFeature-1" transform="matrix(1.2907708779274558,0,0,1.2907708779274558,-2.4963508976073,240.49566017289587)" fill="#111"><path d="M12.852 40.37109 c-5.7617 0 -9.9805 -2.7539 -10.918 -7.4414 l3.9648 -0.9375 c0.625 3.2227 3.418 5.0781 7.0898 5.0781 c2.9492 0 5.7813 -1.2109 5.7227 -4.5313 c-0.039063 -3.2813 -3.5938 -4.1797 -7.3633 -5.2148 c-4.2773 -1.1719 -8.5547 -2.5195 -8.5547 -7.5977 c0 -5.1367 4.2383 -7.7148 9.2578 -7.7148 c4.8633 0 9.2383 2.0508 10.273 6.7969 l-3.7695 0.95703 c-0.68359 -3.0664 -3.2422 -4.4336 -6.3281 -4.4336 c-2.7734 0 -5.5273 1.2109 -5.5273 4.3555 c0 2.8516 3.0859 3.6914 6.582 4.6289 c4.3945 1.1914 9.4336 2.5586 9.4336 8.1055 c0 5.5859 -4.6875 7.9492 -9.8633 7.9492 z M47.46655859375 40.37109 c-7.832 0 -13.809 -5.3906 -13.809 -14.199 c0 -8.7891 5.9766 -14.16 13.809 -14.16 c7.793 0 13.789 5.3711 13.789 14.16 c0 8.8086 -5.9961 14.199 -13.789 14.199 z M47.46655859375 36.7187 c5.5273 0 9.9023 -3.8281 9.9023 -10.547 c0 -6.6602 -4.375 -10.488 -9.9023 -10.488 c-5.5469 0 -9.9414 3.8281 -9.9414 10.488 c0 6.7188 4.3945 10.547 9.9414 10.547 z M78.0966421875 36.4844 l9.4336 0 l0 3.5156 l-13.32 0 l0 -27.617 l3.8867 0 l0 24.102 z M108.86370703125 40.37109 c-5.7227 0 -10.156 -3.3789 -10.156 -9.6094 l0 -18.379 l3.8867 0 l0 17.832 c0 4.5508 2.7344 6.6406 6.2695 6.6406 s6.3281 -2.1094 6.3281 -6.6406 l0 -17.832 l3.8867 0 l0 18.379 c0 6.2305 -4.4531 9.6094 -10.215 9.6094 z M148.087640625 12.383 l0 3.4961 l-6.9922 0 l0 24.121 l-3.8477 0 l0 -24.121 l-7.0117 0 l0 -3.4961 l17.852 0 z M159.81199296875 40 l0 -27.617 l3.8867 0 l0 27.617 l-3.8867 0 z M190.4816953125 40.37109 c-7.832 0 -13.809 -5.3906 -13.809 -14.199 c0 -8.7891 5.9766 -14.16 13.809 -14.16 c7.793 0 13.789 5.3711 13.789 14.16 c0 8.8086 -5.9961 14.199 -13.789 14.199 z M190.4816953125 36.7187 c5.5273 0 9.9023 -3.8281 9.9023 -10.547 c0 -6.6602 -4.375 -10.488 -9.9023 -10.488 c-5.5469 0 -9.9414 3.8281 -9.9414 10.488 c0 6.7188 4.3945 10.547 9.9414 10.547 z M235.83887890625 12.383 l3.8672 0 l0 27.617 l-4.1992 0 l-14.434 -21.914 l0 21.914 l-3.8477 0 l0 -27.617 l4.1602 0 l14.453 21.816 l0 -21.816 z M263.227 40.37109 c-5.7617 0 -9.9805 -2.7539 -10.918 -7.4414 l3.9648 -0.9375 c0.625 3.2227 3.418 5.0781 7.0898 5.0781 c2.9492 0 5.7813 -1.2109 5.7227 -4.5313 c-0.039063 -3.2813 -3.5938 -4.1797 -7.3633 -5.2148 c-4.2773 -1.1719 -8.5547 -2.5195 -8.5547 -7.5977 c0 -5.1367 4.2383 -7.7148 9.2578 -7.7148 c4.8633 0 9.2383 2.0508 10.273 6.7969 l-3.7695 0.95703 c-0.68359 -3.0664 -3.2422 -4.4336 -6.3281 -4.4336 c-2.7734 0 -5.5273 1.2109 -5.5273 4.3555 c0 2.8516 3.0859 3.6914 6.582 4.6289 c4.3945 1.1914 9.4336 2.5586 9.4336 8.1055 c0 5.5859 -4.6875 7.9492 -9.8633 7.9492 z"></path></g></svg>