<?xml version="1.0" encoding="UTF-8" standalone="no"?>
<!-- Created with Inkscape (http://www.inkscape.org/) -->

<svg version="1.1" id="Layer_1" xmlns="http://www.w3.org/2000/svg"
    xmlns:xlink="http://www.w3.org/1999/xlink" x="0px" y="0px" viewBox="0 0 51 32"
    style="enable-background:new 0 0 51 32" xml:space="preserve">

<!--svg
   width="50.861053mm"
   height="31.693924mm"
   viewBox="0 0 50.861053 31.693924"
   version="1.1"
   id="svg66257"
   xmlns="http://www.w3.org/2000/svg"
   xmlns:svg="http://www.w3.org/2000/svg"-->
  <defs
     id="defs66254" />
  <g
     id="layer1"
     transform="translate(-79.652101,-132.65303)">
    <text
       xml:space="preserve"
       style="font-size:9.60228px;line-height:1.25;font-family:sans-serif;text-align:center;text-anchor:middle;fill:#4169e1;fill-opacity:1;stroke-width:0.240058"
       x="84.092697"
       y="158.49052"
       id="text113-3"
       transform="scale(0.98342323,1.0168562)"><tspan
         id="tspan111-7"
         style="font-style:normal;font-variant:normal;font-weight:normal;font-stretch:normal;font-family:Tahoma;-inkscape-font-specification:Tahoma;fill:#4169e1;fill-opacity:1;stroke-width:0.240058"
         x="84.092697"
         y="158.49052">A</tspan></text>
    <path
       id="text113-3-3"
       style="font-size:9.60228px;line-height:1.25;font-family:sans-serif;text-align:center;text-anchor:middle;fill:#4169e1;fill-opacity:1;stroke-width:0.240058"
       d="m 97.682036,154.04268 v 7.09878 h 0.852662 v -6.11642 l 1.775082,4.16202 h 0.55346 l 1.78904,-4.16202 v 6.11642 h 0.91312 v -7.09878 h -1.26814 l -1.6552,3.95221 -1.715138,-3.95221 z" />
    <text
       xml:space="preserve"
       style="font-size:9.60228px;line-height:1.25;font-family:sans-serif;text-align:center;text-anchor:middle;fill:#000000;fill-opacity:1;stroke-width:0.240058"
       x="106.53126"
       y="137.58076"
       id="text113-3-7"
       transform="scale(0.98342323,1.0168562)"><tspan
         id="tspan111-7-5"
         style="font-style:normal;font-variant:normal;font-weight:normal;font-stretch:normal;font-family:Tahoma;-inkscape-font-specification:Tahoma;fill:#000000;fill-opacity:1;stroke-width:0.240058"
         x="106.53126"
         y="137.58076">MICROGRID</tspan></text>
    <path
       class="st0"
       d="m 104.53394,145.36079 h 0.78224 c 0.17991,0 0.32686,0.13888 0.32686,0.30892 v 0.27143 h 0.94706 c 0.12796,0 0.233,0.0993 0.233,0.2202 v 5.46817 c 0,0.12093 -0.10504,0.22021 -0.233,0.22021 h -3.33008 c -0.12795,0 -0.233,-0.0993 -0.233,-0.22021 v -5.46817 c 0,-0.12093 0.10505,-0.2202 0.233,-0.2202 h 0.94707 v -0.27143 c 0,-0.17004 0.14694,-0.30892 0.32685,-0.30892 z m -0.86772,1.19608 h 2.51824 v 4.61163 h -2.51824 z m 0.88449,1.2943 0.72524,0.008 -0.33748,1.03396 h 0.78335 l -1.28957,1.50817 0.32742,-1.03977 h -0.63081 z m -1.21526,-1.6122 h 3.17923 v 5.24743 h -3.17923 z"
       id="path9105"
       style="clip-rule:evenodd;fill:#4169e1;fill-opacity:1;fill-rule:evenodd;stroke-width:0.0543187" />
    <path
       d="m 90.482967,143.12103 c -0.06318,-0.0418 -0.08446,-0.13437 -0.04827,-0.20728 0.0362,-0.0729 0.116403,-0.0975 0.179572,-0.0557 l 0.293135,0.19499 c 0.06318,0.0418 0.08446,0.13436 0.04827,0.20728 -0.0362,0.0729 -0.116402,0.0975 -0.179572,0.0557 z m 2.712031,2.05888 0.06246,0.72507 h 1.17112 l -0.114982,-0.72507 z m 1.424508,0 0.114982,0.72507 h 0.917023 l -0.173184,-0.72507 z m 1.11505,1.0741 h -0.944705 l 0.08872,0.56121 h 0.99013 z m 0.217899,0.91187 h -1.017811 l 0.08872,0.56121 h 1.062525 z m 0.217188,0.91023 h -1.090916 l 0.166086,1.04788 h 1.174668 z m -1.23145,1.04788 -0.166087,-1.04788 h -1.328688 l 0.09014,1.04788 z m -1.708416,0 -0.09014,-1.04788 H 91.49723 l -0.12421,1.04788 z m -2.16054,0 0.12421,-1.04788 h -1.254874 l -0.210801,1.04788 z m -1.650925,0 0.210802,-1.04788 h -0.970965 l -0.249839,1.04788 z m -0.676411,-1.3969 h 0.95748 l 0.112853,-0.56121 h -0.936896 z m 0.217191,-0.91187 h 0.9227 l 0.112853,-0.56121 h -0.901408 z m 0.217189,-0.91024 h 0.888631 l 0.146213,-0.72507 h -0.861661 z m 1.344304,-0.72507 -0.146213,0.72507 h 1.075302 l 0.08588,-0.72507 z m 1.318042,0 c 0,0.007 -6.76e-4,0.0123 -0.0014,0.0189 l -0.08375,0.70624 h 1.200932 l -0.06246,-0.72508 z m 4.647574,4.29309 h -3.753264 v 1.61319 h 1.156215 v 0.73654 H 90.93864 v -0.73654 h 1.156215 V 149.473 h -3.753264 c -0.02201,0 -0.04542,-0.004 -0.06884,-0.0115 -0.04613,-0.0147 -0.08944,-0.0434 -0.121371,-0.0819 -0.04045,-0.0483 -0.066,-0.1106 -0.066,-0.18106 0,-0.0205 0.0029,-0.0426 0.0085,-0.0656 v 0 l 0.967418,-4.05467 c 0.0149,-0.0614 0.03974,-0.12126 0.07879,-0.16632 0.04329,-0.05 0.09937,-0.0811 0.169635,-0.0811 h 1.88231 c -0.107885,-0.20564 -0.170344,-0.44651 -0.170344,-0.70459 0,-0.37524 0.132016,-0.71524 0.344946,-0.96185 0.212932,-0.24579 0.507488,-0.39817 0.833272,-0.39817 0.325783,0 0.619628,0.15238 0.833269,0.39817 0.212931,0.24579 0.344948,0.5858 0.344948,0.96185 0,0.25808 -0.06246,0.49895 -0.170345,0.70459 h 2.311011 c 0.06387,0 0.115691,0.0262 0.156859,0.0688 0.0043,0.004 0.0085,0.008 0.01207,0.0123 0.03904,0.0451 0.06387,0.10487 0.07878,0.16632 l 0.968127,4.05549 c 0.0057,0.0238 0.0086,0.0451 0.0086,0.0648 0,0.0705 -0.02556,0.13273 -0.066,0.18025 -0.03194,0.0385 -0.07594,0.0672 -0.121369,0.0819 -0.02415,0.008 -0.04756,0.0123 -0.06956,0.0123 z m -3.199644,-3.21899 0.04827,0.56121 h 1.237838 l -0.08872,-0.56121 z m -2.981743,0 -0.112853,0.56121 h 1.149828 l 0.066,-0.56121 z m 1.407474,0 -0.06602,0.56121 h 1.386181 l -0.04827,-0.56121 z m 1.653055,0.91187 0.04827,0.56121 h 1.303848 l -0.08872,-0.56121 z m -3.243649,0 -0.112853,0.56121 h 1.225772 l 0.06602,-0.56121 z m 1.482709,0 -0.06602,0.56121 h 1.57214 l -0.04827,-0.56121 z m -0.456381,-4.90019 c -0.0362,-0.0729 -0.0149,-0.1655 0.04827,-0.20728 0.06318,-0.0418 0.143374,-0.0172 0.179572,0.0557 l 0.168926,0.33755 c 0.0362,0.0729 0.0149,0.16549 -0.04756,0.20728 -0.06318,0.0418 -0.143374,0.0172 -0.179572,-0.0557 z m 0.946123,-0.35803 c 0,-0.0844 0.05891,-0.15239 0.132017,-0.15239 0.0731,0 0.132018,0.068 0.132018,0.15239 v 0.38998 c 0,0.0844 -0.05891,0.15239 -0.132018,0.15239 -0.0731,0 -0.132017,-0.068 -0.132017,-0.15239 z m 0.975934,0.2376 c 0.0362,-0.0729 0.116402,-0.0975 0.179571,-0.0557 0.06318,0.0418 0.08446,0.13436 0.04827,0.20728 l -0.168925,0.33836 c -0.0362,0.0729 -0.116403,0.0975 -0.179573,0.0557 -0.06317,-0.0418 -0.08446,-0.13436 -0.04827,-0.20728 z m 0.740999,0.76767 c 0.06317,-0.0418 0.143374,-0.0172 0.179571,0.0557 0.0362,0.0729 0.0149,0.16549 -0.04827,0.20728 l -0.292425,0.19499 c -0.06318,0.0418 -0.143373,0.0172 -0.179572,-0.0549 -0.0362,-0.0729 -0.0149,-0.16549 0.04827,-0.20728 z m 0.31017,1.09211 c 0.0731,0 0.132017,0.068 0.132017,0.1524 0,0.0844 -0.05891,0.15238 -0.132017,0.15238 h -0.337851 c -0.0731,0 -0.132018,-0.068 -0.132018,-0.15238 0,-0.0844 0.05891,-0.1524 0.132018,-0.1524 z m -3.844114,0.24252 c -0.0731,0 -0.132017,-0.068 -0.132017,-0.15239 0,-0.0844 0.05891,-0.15239 0.132017,-0.15239 h 0.33785 c 0.0731,0 0.132017,0.068 0.132017,0.15239 0,0.0844 -0.05891,0.15239 -0.132017,0.15239 z"
       id="path9153"
       style="fill:#4169e1;fill-opacity:1;stroke-width:0.0762568" />
    <path
       d="m 116.12088,146.66476 a 0.63565081,0.56705036 0 0 1 0.0644,0.0327 l 0.0107,0.005 a 0.53641419,0.4785235 0 0 1 0.12784,0.10846 0.52210982,0.4657629 0 0 1 0.0796,0.14037 v 0 a 0.52657992,0.46975056 0 0 1 0.0206,0.1595 0.67856397,0.60533222 0 0 1 -0.033,0.15951 v 0 a 0.71521893,0.63803135 0 0 1 -0.0366,0.0797 0.83233597,0.742509 0 0 1 -0.0465,0.0718 0.81713756,0.72895078 0 0 1 -0.27626,0.21773 2.3164153,2.0664241 0 0 1 -0.30843,0.13398 c -0.84932,0.31105 -1.68702,0.68589 -2.53634,0.98896 a 0.28072343,0.2504273 0 0 1 -0.0894,0.0152 v 0 a 0.20383739,0.18183893 0 0 1 -0.11175,-0.0256 l -0.033,-0.0231 a 0.17880473,0.15950784 0 0 1 -0.0304,-0.0375 l -0.009,-0.0191 -0.0108,-0.0215 a 0.1591362,0.14196197 0 0 1 0,-0.0311 v 0 a 0.20383739,0.18183893 0 0 1 0.042,-0.10448 v 0 a 0.36565566,0.32619351 0 0 1 0.0608,-0.0574 c 0.7474,-0.55509 1.53325,-1.08306 2.29406,-1.62299 0.0537,-0.0383 0.10907,-0.075 0.16361,-0.10687 a 0.99862436,0.89085122 0 0 1 0.17254,-0.0797 h 0.0116 a 0.58558547,0.52238812 0 0 1 0.18864,-0.0343 0.60435996,0.53913648 0 0 1 0.19757,0.0256 h 0.009 a 0.65531934,0.58459619 0 0 1 0.0804,0.0279 z m -1.28382,4.49413 h 1.5261 l 0.57217,-3.49881 a 0.14572586,0.12999889 0 0 1 0.14483,-0.11883 h 0.53641 a 0.14572586,0.12999889 0 0 1 0.14305,0.10847 l 0.66158,3.50917 h 1.53324 a 0.07956811,0.07098099 0 0 1 0.0787,0.0702 v 0.53275 a 0.07956811,0.07098099 0 0 1 -0.0787,0.0702 h -5.11738 a 0.07867408,0.07018344 0 0 1 -0.0787,-0.0702 v -0.53275 a 0.07867408,0.07018344 0 0 1 0.0787,-0.0702 z m 2.86087,-5.26934 a 0.80462124,0.71778529 0 0 1 0.25659,0.15233 0.78048265,0.6962517 0 0 1 0.22976,0.4865 v 0.012 a 0.78405873,0.69944188 0 0 1 -0.23155,0.49766 0.77690657,0.69306152 0 0 1 -0.25658,0.15233 0.78674082,0.70183445 0 0 1 -1.03081,-0.38122 0.7903169,0.70502463 0 0 1 0,-0.53834 0.78674082,0.70183445 0 0 1 0.17075,-0.2289 v 0 a 0.81803165,0.72974833 0 0 1 0.25659,-0.15153 0.78763489,0.70263198 0 0 1 0.60257,0 z m 0,-0.36528 a 0.49975921,0.44582438 0 0 1 -0.0715,0.0359 0.52032176,0.4641678 0 0 1 -0.17344,0.0431 0.49528911,0.44183671 0 0 1 -0.16987,-0.012 h -0.008 a 0.55697676,0.49686693 0 0 1 -0.16092,-0.0662 0.59631376,0.53195862 0 0 1 -0.12427,-0.0981 l -0.01,-0.01 a 0.68929227,0.61490272 0 0 1 -0.0527,-0.0646 c -0.0152,-0.0223 -0.0304,-0.0462 -0.0438,-0.071 v 0 c -0.10728,-0.20258 -0.0715,-0.41233 -0.0358,-0.62607 0.16092,-0.79753 0.20115,-1.65568 0.36297,-2.45323 a 0.30843816,0.27515101 0 0 1 0.0286,-0.0702 v -0.006 a 0.21635373,0.19300449 0 0 1 0.076,-0.0686 h 0.005 a 0.15109,0.13478413 0 0 1 0.0447,-0.0144 0.15645415,0.13956936 0 0 1 0.0376,0 0.16897047,0.15073491 0 0 1 0.059,-0.001 l 0.0286,0.0128 a 0.20651946,0.18423155 0 0 1 0.0787,0.0797 l 0.005,0.01 a 0.3522453,0.31423042 0 0 1 0.0251,0.0869 c 0.15735,0.8119 0.24497,1.73465 0.35761,2.56249 a 0.1966852,0.17545862 0 0 1 0,0.0287 v 0 c 0.007,0.0558 0.0134,0.11086 0.0152,0.16509 a 0.98342596,0.87729314 0 0 1 -0.0116,0.17945 v 0.006 a 0.61061815,0.54471927 0 0 1 -0.0644,0.1595 0.58200938,0.51919802 0 0 1 -0.1359,0.14596 0.63118071,0.56306268 0 0 1 -0.0697,0.0455 z m 0.62581,1.67484 a 0.62581656,0.5582774 0 0 1 0,-0.0734 0.52121577,0.46496532 0 0 1 0.0447,-0.15951 0.48545484,0.43306377 0 0 1 0.0894,-0.12282 l 0.008,-0.007 a 0.5435664,0.48490384 0 0 1 0.14394,-0.0909 0.66694166,0.59496425 0 0 1 0.15914,-0.0478 h 0.0125 a 0.67677587,0.60373716 0 0 1 0.0894,-0.009 0.72773519,0.6491969 0 0 1 0.0894,0 h 0.007 a 0.82965389,0.74011635 0 0 1 0.35046,0.10607 2.4299563,2.1677115 0 0 1 0.2843,0.18184 c 0.72594,0.50324 1.46082,0.99772 2.19214,1.49618 l 0.0125,0.01 a 0.33794093,0.3014698 0 0 1 0.0545,0.0622 0.21814177,0.19459956 0 0 1 0.0286,0.0917 v 0.0207 0.0136 a 0.16897047,0.15073491 0 0 1 -0.0215,0.0478 0.18327485,0.16349553 0 0 1 -0.0348,0.0351 l -0.0125,0.008 a 0.15645415,0.13956936 0 0 1 -0.0241,0.0128 0.22439994,0.20018234 0 0 1 -0.12159,0.016 0.35760945,0.31901566 0 0 1 -0.0894,-0.0207 l -2.6928,-1.00815 c -0.0626,-0.0231 -0.12517,-0.0487 -0.18506,-0.0798 a 1.0165049,0.90680205 0 0 1 -0.17255,-0.0965 h -0.004 a 0.57932735,0.51680538 0 0 1 -0.19848,-0.30546 0.54714248,0.48809398 0 0 1 -0.01,-0.0798 z"
       id="path9238"
       style="fill:#4169e1;fill-opacity:1;stroke-width:0.0844405" />
    <rect
       style="fill:#4169e1;fill-opacity:1;stroke-width:0.240058"
       id="rect10779"
       width="50.810909"
       height="1.4513344"
       x="79.6521"
       y="162.89563" />
    <text
       xml:space="preserve"
       style="font-size:10.5833px;line-height:1.25;font-family:sans-serif;text-align:center;text-anchor:middle;stroke-width:0.264583"
       x="90.82106"
       y="161.04347"
       id="text57720"><tspan
         id="tspan57718"
         style="font-style:normal;font-variant:normal;font-weight:normal;font-stretch:normal;font-size:4.23333px;font-family:sans-serif;-inkscape-font-specification:'sans-serif, Normal';font-variant-ligatures:normal;font-variant-caps:normal;font-variant-numeric:normal;font-variant-east-asian:normal;stroke-width:0.264583"
         x="90.82106"
         y="161.04347">SSET</tspan></text>
    <text
       xml:space="preserve"
       style="font-style:normal;font-variant:normal;font-weight:normal;font-stretch:normal;font-size:4.23333px;line-height:1.25;font-family:sans-serif;-inkscape-font-specification:'sans-serif, Normal';font-variant-ligatures:normal;font-variant-caps:normal;font-variant-numeric:normal;font-variant-east-asian:normal;text-align:center;text-anchor:middle;stroke-width:0.264583"
       x="117.04629"
       y="161.02397"
       id="text57720-7"><tspan
         id="tspan57718-0"
         style="font-style:normal;font-variant:normal;font-weight:normal;font-stretch:normal;font-size:4.23333px;font-family:sans-serif;-inkscape-font-specification:'sans-serif, Normal';font-variant-ligatures:normal;font-variant-caps:normal;font-variant-numeric:normal;font-variant-east-asian:normal;stroke-width:0.264583"
         x="117.04629"
         y="161.02397">ANAGEMENT</tspan></text>
  </g>
</svg>
