<?xml version="1.0" encoding="UTF-8" standalone="no"?>
<svg
   viewBox="0 0 379.99999 99.999999"
   height="100"
   width="380"
   xml:space="preserve"
   id="svg2"
   version="1.1"
   sodipodi:docname="logo_wide_thin_no_tag.svg"
   inkscape:version="1.2.2 (b0a84865, 2022-12-01)"
   xmlns:inkscape="http://www.inkscape.org/namespaces/inkscape"
   xmlns:sodipodi="http://sodipodi.sourceforge.net/DTD/sodipodi-0.dtd"
   xmlns="http://www.w3.org/2000/svg"
   xmlns:svg="http://www.w3.org/2000/svg"
   xmlns:rdf="http://www.w3.org/1999/02/22-rdf-syntax-ns#"
   xmlns:cc="http://creativecommons.org/ns#"
   xmlns:dc="http://purl.org/dc/elements/1.1/"><sodipodi:namedview
     id="namedview22"
     pagecolor="#ffffff"
     bordercolor="#666666"
     borderopacity="1.0"
     inkscape:showpageshadow="2"
     inkscape:pageopacity="0.0"
     inkscape:pagecheckerboard="0"
     inkscape:deskcolor="#d1d1d1"
     showgrid="false"
     inkscape:zoom="2"
     inkscape:cx="281.25"
     inkscape:cy="47.25"
     inkscape:window-width="2395"
     inkscape:window-height="991"
     inkscape:window-x="2612"
     inkscape:window-y="312"
     inkscape:window-maximized="0"
     inkscape:current-layer="g14"
     showguides="true"><sodipodi:guide
       position="24.5,80.499998"
       orientation="1,0"
       id="guide571"
       inkscape:locked="false" /><sodipodi:guide
       position="725.49999,202.5"
       orientation="1,0"
       id="guide573"
       inkscape:locked="false" /><sodipodi:guide
       position="277.5,84.999998"
       orientation="0,-1"
       id="guide575"
       inkscape:locked="false" /><sodipodi:guide
       position="198,15"
       orientation="0,-1"
       id="guide577"
       inkscape:locked="false" /><sodipodi:guide
       position="354.99999,190.5"
       orientation="1,0"
       id="guide498"
       inkscape:locked="false" /></sodipodi:namedview><metadata
     id="metadata8"><rdf:RDF><cc:Work
         rdf:about=""><dc:format>image/svg+xml</dc:format><dc:type
           rdf:resource="http://purl.org/dc/dcmitype/StillImage" /></cc:Work></rdf:RDF></metadata><defs
     id="defs6"><clipPath
       id="clipPath18"
       clipPathUnits="userSpaceOnUse"><path
         id="path16"
         d="M 0,595.276 H 841.89 V 0 H 0 Z" /></clipPath></defs><g
     id="g12"
     transform="matrix(1.3333333,0,0,-1.3333333,-209.71599,433.53199)"><g
       clip-path="url(#clipPath18)"
       id="g14"><path
         id="path24"
         style="fill:#1c63b7;fill-opacity:1;fill-rule:nonzero;stroke:none"
         d="m 184.217,285.507 h -8.555 v -8.556 h 8.555 z m 0,-10.575 h -8.555 v -8.556 h 8.555 z m 10.575,0 h -8.555 v -8.556 h 8.555 z m 0,10.575 h -8.555 v -8.556 h 8.555 z m 13.392,22.574 -5.412,-9.374 -3.414,-5.912 8.826,5.095 z m 10.824,-18.748 -5.412,9.374 -3.413,5.913 v -10.191 z m -21.648,0 h 10.824 6.827 l -8.825,5.096 z m -12.133,19.131 c -5.283,0 -9.565,-4.283 -9.565,-9.565 0,-5.283 4.282,-9.566 9.565,-9.566 5.283,0 9.565,4.283 9.565,9.566 0,5.282 -4.282,9.565 -9.565,9.565 m 26.783,-24.87 v 1.913 h -1.913 v -3.826 h 5.739 v -13.392 h -15.304 v 13.392 h 5.739 v 3.826 h -1.913 v -1.913 h -5.739 v -17.218 h 19.131 v 17.218 z m 1.913,-3.826 h -11.478 v -1.913 h 11.478 z m 0,-3.826 h -11.478 v -1.913 h 11.478 z m -11.478,-3.827 h 11.478 v -1.913 h -11.478 z" /><path
         id="path22"
         style="fill:#4f4c4d;fill-opacity:1;fill-rule:nonzero;stroke:none;image-rendering:auto"
         d="m 367.63746,308.88672 v -14.486 h 1.796 c 1.015,0 1.623,0.523 1.623,1.971 v 10.544 c 0,1.45 -0.608,1.971 -1.623,1.971 z m -3.185,2.896 h 5.039 c 3.188,0 4.751,-1.766 4.751,-5.013 v -10.254 c 0,-3.244 -1.563,-5.011 -4.751,-5.011 h -5.039 z m -6.278,0 h 3.187 v -20.278 h -3.187 z m -9.451,-2.896 v -6.23 h 1.245 c 1.19,0 1.914,0.522 1.914,2.146 v 1.999 c 0,1.448 -0.493,2.085 -1.622,2.085 z m 3.478,-17.382 c -0.175,0.522 -0.289,0.839 -0.289,2.49 v 3.188 c 0,1.882 -0.64,2.578 -2.088,2.578 h -1.101 v -8.256 h -3.185 v 20.278 h 4.808 c 3.303,0 4.723,-1.535 4.723,-4.665 v -1.593 c 0,-2.085 -0.667,-3.446 -2.087,-4.114 1.593,-0.664 2.115,-2.201 2.115,-4.316 v -3.127 c 0,-0.985 0.031,-1.71 0.348,-2.463 z m -14.047,11.299 h 4.462 v -6.432 c 0,-3.244 -1.621,-5.099 -4.751,-5.099 -3.127,0 -4.75,1.855 -4.75,5.099 v 10.544 c 0,3.246 1.623,5.1 4.75,5.1 3.13,0 4.751,-1.854 4.751,-5.1 v -1.969 h -3.011 v 2.171 c 0,1.448 -0.639,1.999 -1.651,1.999 -1.015,0 -1.653,-0.551 -1.653,-1.999 v -10.949 c 0,-1.448 0.638,-1.971 1.653,-1.971 1.012,0 1.651,0.523 1.651,1.971 v 3.736 h -1.451 z m -14.287,-6.635 c 0,-1.448 0.64,-1.999 1.653,-1.999 1.013,0 1.652,0.551 1.652,1.999 v 10.949 c 0,1.448 -0.639,1.999 -1.652,1.999 -1.013,0 -1.653,-0.551 -1.653,-1.999 z m -3.186,10.747 c 0,3.246 1.709,5.1 4.839,5.1 3.128,0 4.837,-1.854 4.837,-5.1 v -10.544 c 0,-3.244 -1.709,-5.099 -4.837,-5.099 -3.13,0 -4.839,1.855 -4.839,5.099 z m -9.146,1.971 v -6.23 h 1.245 c 1.19,0 1.913,0.522 1.913,2.146 v 1.999 c 0,1.448 -0.492,2.085 -1.621,2.085 z m 3.477,-17.382 c -0.174,0.522 -0.289,0.839 -0.289,2.49 v 3.188 c 0,1.882 -0.639,2.578 -2.088,2.578 h -1.1 v -8.256 h -3.186 v 20.278 h 4.809 c 3.303,0 4.723,-1.535 4.723,-4.665 v -1.593 c 0,-2.085 -0.667,-3.446 -2.087,-4.114 1.592,-0.664 2.115,-2.201 2.115,-4.316 v -3.127 c 0,-0.985 0.03,-1.71 0.348,-2.463 z m -9.483,7.56 v -2.693 c 0,-3.244 -1.621,-5.099 -4.751,-5.099 -3.127,0 -4.75,1.855 -4.75,5.099 v 10.544 c 0,3.246 1.623,5.1 4.75,5.1 3.13,0 4.751,-1.854 4.751,-5.1 v -1.969 h -3.011 v 2.171 c 0,1.448 -0.639,1.999 -1.651,1.999 -1.015,0 -1.653,-0.551 -1.653,-1.999 v -10.949 c 0,-1.448 0.638,-1.971 1.653,-1.971 1.012,0 1.651,0.523 1.651,1.971 v 2.896 z m -15.627,12.718 h 3.186 v -20.278 h -3.186 z m -9.722,-14.396 2.174,14.396 h 4.431 v -20.278 h -3.013 v 14.543 l -2.202,-14.543 h -3.011 l -2.376,14.34 v -14.34 h -2.782 v 20.278 h 4.434 z"
         sodipodi:nodetypes="ccssssccsssscccccccccssssccsssccccssscssccccssssssccsssssscccssssssssssssssccssssccsssccccssscsscccssssssccssssssccccccccccccccccccccc" /><path
         id="path22-7"
         style="fill:#4f4c4d;fill-opacity:1;fill-rule:nonzero;stroke:none;image-rendering:auto"
         d="m 415.0345,283.79229 h 9.852 v -2.896 h -3.333 v -17.382 h -3.186 v 17.382 h -3.333 z m -9.777,-5.591 v -14.687 h -2.869 v 20.278 h 4 l 3.272,-12.137 v 12.137 h 2.841 v -20.278 h -3.276 z m -11.203,-2.954 h 4.375 v -2.897 h -4.375 v -5.94 h 5.503 v -2.896 h -8.689 v 20.278 h 8.689 v -2.896 h -5.503 z m -12.918,-5.851 2.173,14.396 h 4.431 v -20.278 h -3.013 v 14.543 l -2.202,-14.543 h -3.011 l -2.376,14.34 v -14.34 h -2.783 v 20.278 h 4.434 z m -15.112,5.851 h 4.375 v -2.897 h -4.375 v -5.94 h 5.504 v -2.896 h -8.69 v 20.278 h 8.69 v -2.896 h -5.504 z m -10.572,-0.434 h 4.462 v -6.432 c 0,-3.244 -1.621,-5.099 -4.751,-5.099 -3.127,0 -4.751,1.855 -4.751,5.099 v 10.544 c 0,3.246 1.624,5.1 4.751,5.1 3.13,0 4.751,-1.854 4.751,-5.1 v -1.969 h -3.011 v 2.171 c 0,1.448 -0.64,1.999 -1.651,1.999 -1.015,0 -1.654,-0.551 -1.654,-1.999 v -10.949 c 0,-1.448 0.639,-1.971 1.654,-1.971 1.011,0 1.651,0.523 1.651,1.971 v 3.736 h -1.451 z m -14.5,-4.868 h 3.071 l -1.534,10.255 z m 7.271,-6.431 h -3.215 l -0.551,3.679 h -3.911 l -0.55,-3.679 h -2.925 l 3.244,20.278 h 4.664 z m -20.975,14.687 v -14.687 h -2.869 v 20.278 h 4 l 3.272,-12.137 v 12.137 h 2.84 v -20.278 h -3.274 z m -12.718,-8.256 h 3.071 l -1.534,10.255 z m 7.272,-6.431 h -3.216 l -0.55,3.679 h -3.911 l -0.551,-3.679 h -2.925 l 3.244,20.278 h 4.665 z m -20.367,5.882 2.173,14.396 h 4.432 v -20.278 h -3.014 v 14.543 l -2.201,-14.543 h -3.011 l -2.377,14.34 v -14.34 h -2.782 v 20.278 h 4.434 z m -25.661,14.396 h 9.852 v -2.896 h -3.333 v -17.382 h -3.186 v 17.382 h -3.333 z m -7.881,-8.545 h 4.376 v -2.897 h -4.376 v -5.94 h 5.505 v -2.896 h -8.69 v 20.278 h 8.69 v -2.896 h -5.505 z m -10.677,8.778 c 3.099,0 4.695,-1.854 4.695,-5.1 v -0.637 h -3.014 v 0.839 c 0,1.448 -0.581,1.999 -1.593,1.999 -1.014,0 -1.595,-0.551 -1.595,-1.999 0,-4.17 6.229,-4.953 6.229,-10.746 0,-3.244 -1.623,-5.099 -4.751,-5.099 -3.13,0 -4.75,1.855 -4.75,5.099 v 1.245 h 3.013 v -1.448 c 0,-1.448 0.637,-1.971 1.651,-1.971 1.012,0 1.652,0.523 1.652,1.971 0,4.172 -6.23,4.953 -6.23,10.747 0,3.246 1.593,5.1 4.693,5.1 m -12.023,0 c 3.1,0 4.695,-1.854 4.695,-5.1 v -0.637 h -3.013 v 0.839 c 0,1.448 -0.581,1.999 -1.593,1.999 -1.015,0 -1.596,-0.551 -1.596,-1.999 0,-4.17 6.23,-4.953 6.23,-10.746 0,-3.244 -1.623,-5.099 -4.75,-5.099 -3.13,0 -4.751,1.855 -4.751,5.099 v 1.245 h 3.013 v -1.448 c 0,-1.448 0.636,-1.971 1.651,-1.971 1.013,0 1.651,0.523 1.651,1.971 0,4.172 -6.229,4.953 -6.229,10.747 0,3.246 1.593,5.1 4.692,5.1 m -14.125,-14.08 h 3.071 l -1.534,10.255 z m 7.272,-6.431 h -3.216 l -0.551,3.679 h -3.911 l -0.55,-3.679 h -2.925 l 3.244,20.278 h 4.664 z"
         sodipodi:nodetypes="ccccccccccccccccccccccccccccccccccccccccccccccccccccccccccccccssssssccsssssscccccccccccccccccccccccccccccccccccccccccccccccccccccccccccccccccccccccccccccsccssssssccssssccsccssssssccsssscccccccccccccc" /></g></g></svg>
