<?xml version="1.0" encoding="UTF-8" standalone="no"?>
<svg
   viewBox="0 0 300 400.00001"
   height="400"
   width="300"
   xml:space="preserve"
   id="svg2"
   version="1.1"
   sodipodi:docname="logo_square_thin.svg"
   inkscape:version="1.2.2 (b0a84865, 2022-12-01)"
   xmlns:inkscape="http://www.inkscape.org/namespaces/inkscape"
   xmlns:sodipodi="http://sodipodi.sourceforge.net/DTD/sodipodi-0.dtd"
   xmlns="http://www.w3.org/2000/svg"
   xmlns:svg="http://www.w3.org/2000/svg"
   xmlns:rdf="http://www.w3.org/1999/02/22-rdf-syntax-ns#"
   xmlns:cc="http://creativecommons.org/ns#"
   xmlns:dc="http://purl.org/dc/elements/1.1/"><sodipodi:namedview
     id="namedview22"
     pagecolor="#ffffff"
     bordercolor="#666666"
     borderopacity="1.0"
     inkscape:showpageshadow="2"
     inkscape:pageopacity="0.0"
     inkscape:pagecheckerboard="0"
     inkscape:deskcolor="#d1d1d1"
     showgrid="false"
     inkscape:zoom="2"
     inkscape:cx="169.5"
     inkscape:cy="217"
     inkscape:window-width="2165"
     inkscape:window-height="1092"
     inkscape:window-x="3201"
     inkscape:window-y="183"
     inkscape:window-maximized="0"
     inkscape:current-layer="g14"
     showguides="true"><sodipodi:guide
       position="150.5,391.5"
       orientation="1,0"
       id="guide312"
       inkscape:locked="false" /><sodipodi:guide
       position="25,391.5"
       orientation="1,0"
       id="guide314"
       inkscape:locked="false" /><sodipodi:guide
       position="275,395"
       orientation="1,0"
       id="guide316"
       inkscape:locked="false" /><sodipodi:guide
       position="61.937224,124.1489"
       orientation="1,0"
       id="guide318"
       inkscape:locked="false" /><sodipodi:guide
       position="196.2875,134.57873"
       orientation="1,0"
       id="guide320"
       inkscape:locked="false" /><sodipodi:guide
       position="42.5,200"
       orientation="0,-1"
       id="guide459"
       inkscape:locked="false" /><sodipodi:guide
       position="-147.5,375.00001"
       orientation="0,-1"
       id="guide461"
       inkscape:locked="false" /><sodipodi:guide
       position="-105,25.000001"
       orientation="0,-1"
       id="guide463"
       inkscape:locked="false" /></sodipodi:namedview><metadata
     id="metadata8"><rdf:RDF><cc:Work
         rdf:about=""><dc:format>image/svg+xml</dc:format><dc:type
           rdf:resource="http://purl.org/dc/dcmitype/StillImage" /></cc:Work></rdf:RDF></metadata><defs
     id="defs6"><clipPath
       id="clipPath18"
       clipPathUnits="userSpaceOnUse"><path
         id="path16"
         d="M 0,595.276 H 841.89 V 0 H 0 Z" /></clipPath></defs><g
     transform="matrix(1.3333333,0,0,-1.3333333,-428.44134,561.14265)"
     id="g10"><g
       clip-path="url(#clipPath18)"
       id="g14"><g
         transform="translate(578.2928,180.6779)"
         id="g20" /><g
         transform="translate(528.7538,199.1555)"
         id="g24"><path
           id="path26"
           style="fill:#4f4c4d;fill-opacity:1;fill-rule:nonzero;stroke:none"
           d="m 0,0 c 0,0.434 -0.145,0.804 -0.436,1.113 -0.277,0.297 -0.674,0.444 -1.195,0.444 -0.556,0 -0.976,-0.145 -1.261,-0.436 -0.284,-0.29 -0.425,-0.713 -0.425,-1.268 0,-0.526 0.144,-0.936 0.431,-1.228 0.286,-0.294 0.687,-0.441 1.199,-0.441 0.237,0 0.464,0.045 0.688,0.134 0.221,0.088 0.408,0.21 0.563,0.366 0.142,0.141 0.251,0.303 0.325,0.481 C -0.035,-0.655 0,-0.47 0,-0.277 Z m 0.011,-2.539 v 0.796 c -0.224,-0.297 -0.513,-0.528 -0.873,-0.695 -0.358,-0.167 -0.756,-0.249 -1.195,-0.249 -0.469,0 -0.885,0.102 -1.245,0.305 -0.363,0.203 -0.647,0.497 -0.855,0.88 -0.205,0.383 -0.31,0.829 -0.31,1.334 0,0.495 0.102,0.939 0.308,1.332 0.203,0.391 0.497,0.7 0.88,0.926 0.383,0.225 0.827,0.337 1.334,0.337 0.847,0 1.491,-0.284 1.935,-0.853 v 2.504 h 1.114 v -6.617 z m -7.072,6.617 h 1.11 v -6.617 h -1.11 z m -4.604,-6.617 v 4.818 h 1.094 V 1.455 c 0.228,0.289 0.494,0.513 0.801,0.667 0.304,0.155 0.631,0.232 0.977,0.232 0.149,0 0.321,-0.016 0.52,-0.046 L -8.402,1.382 c -0.186,0.03 -0.356,0.046 -0.51,0.046 -0.49,0 -0.886,-0.14 -1.188,-0.419 -0.301,-0.272 -0.454,-0.588 -0.454,-0.953 v -2.595 z m -2.632,2.409 c 0,0.538 -0.147,0.954 -0.441,1.245 -0.295,0.295 -0.708,0.442 -1.246,0.442 -0.538,0 -0.956,-0.147 -1.253,-0.442 -0.294,-0.291 -0.444,-0.707 -0.444,-1.245 0,-0.538 0.147,-0.953 0.442,-1.245 0.291,-0.294 0.705,-0.441 1.235,-0.441 0.545,0 0.964,0.147 1.26,0.441 0.297,0.292 0.447,0.707 0.447,1.245 m 1.149,0.018 c 0,-0.505 -0.115,-0.951 -0.343,-1.339 -0.231,-0.386 -0.561,-0.688 -0.996,-0.908 -0.437,-0.218 -0.95,-0.328 -1.535,-0.328 -0.87,0 -1.557,0.224 -2.057,0.675 -0.5,0.451 -0.751,1.074 -0.751,1.865 0,0.504 0.114,0.951 0.343,1.338 0.228,0.386 0.56,0.688 0.991,0.909 0.434,0.217 0.944,0.327 1.53,0.327 0.877,0 1.568,-0.226 2.067,-0.675 0.5,-0.451 0.751,-1.072 0.751,-1.864 m -9.786,-2.427 -1.678,5.115 -1.695,-5.115 h -1.243 l -2.234,6.617 h 1.308 l 1.593,-5.199 1.704,5.161 h 1.188 l 1.715,-5.18 1.602,5.218 h 1.261 l -2.234,-6.617 z m -13.207,0 v 4.818 h 1.093 V 1.455 c 0.229,0.289 0.495,0.513 0.802,0.667 0.305,0.155 0.632,0.232 0.976,0.232 0.15,0 0.323,-0.016 0.521,-0.046 l -0.13,-0.926 c -0.185,0.03 -0.355,0.046 -0.51,0.046 -0.489,0 -0.884,-0.14 -1.186,-0.419 -0.303,-0.272 -0.454,-0.588 -0.454,-0.953 v -2.595 z m -2.812,0 v 0.796 c -0.538,-0.629 -1.215,-0.944 -2.032,-0.944 -0.612,0 -1.083,0.158 -1.418,0.472 -0.332,0.315 -0.499,0.767 -0.499,1.352 v 3.142 h 1.11 v -2.947 c 0,-0.378 0.097,-0.656 0.284,-0.842 0.188,-0.187 0.478,-0.279 0.868,-0.279 0.461,0 0.872,0.158 1.233,0.473 0.289,0.26 0.433,0.578 0.433,0.956 v 2.639 h 1.114 v -4.818 z m -6.531,2.409 c 0,0.538 -0.148,0.954 -0.442,1.245 -0.294,0.295 -0.708,0.442 -1.245,0.442 -0.538,0 -0.957,-0.147 -1.253,-0.442 -0.295,-0.291 -0.444,-0.707 -0.444,-1.245 0,-0.538 0.147,-0.953 0.441,-1.245 0.292,-0.294 0.705,-0.441 1.236,-0.441 0.544,0 0.963,0.147 1.26,0.441 0.297,0.292 0.447,0.707 0.447,1.245 m 1.148,0.018 c 0,-0.505 -0.114,-0.951 -0.342,-1.339 -0.231,-0.386 -0.56,-0.688 -0.997,-0.908 -0.436,-0.218 -0.948,-0.328 -1.534,-0.328 -0.87,0 -1.558,0.224 -2.058,0.675 -0.499,0.451 -0.751,1.074 -0.751,1.865 0,0.504 0.115,0.951 0.343,1.338 0.229,0.386 0.561,0.688 0.992,0.909 0.434,0.217 0.944,0.327 1.53,0.327 0.877,0 1.567,-0.226 2.067,-0.675 0.499,-0.451 0.75,-1.072 0.75,-1.864 m -9.763,-2.427 v 2.716 l -2.825,3.901 h 1.352 l 2.085,-2.937 2.078,2.937 h 1.316 l -2.828,-3.901 v -2.716 z m -9.145,0 v 4.818 h 1.093 V 1.455 c 0.228,0.289 0.495,0.513 0.801,0.667 0.305,0.155 0.632,0.232 0.977,0.232 0.149,0 0.322,-0.016 0.519,-0.046 l -0.128,-0.926 c -0.186,0.03 -0.356,0.046 -0.51,0.046 -0.489,0 -0.886,-0.14 -1.188,-0.419 -0.301,-0.272 -0.454,-0.588 -0.454,-0.953 v -2.595 z m -2.562,2.873 c -0.012,0.406 -0.155,0.724 -0.431,0.949 -0.274,0.226 -0.658,0.34 -1.144,0.34 -0.439,0 -0.802,-0.117 -1.089,-0.348 -0.289,-0.233 -0.456,-0.545 -0.507,-0.941 z m -3.199,-0.743 c 0.013,-0.444 0.17,-0.796 0.47,-1.06 0.299,-0.263 0.692,-0.393 1.181,-0.393 0.383,0 0.696,0.063 0.942,0.19 0.243,0.127 0.411,0.312 0.505,0.561 h 1.103 c -0.137,-0.533 -0.416,-0.929 -0.84,-1.188 -0.423,-0.258 -0.997,-0.388 -1.719,-0.388 -0.848,0 -1.512,0.224 -1.996,0.67 -0.485,0.449 -0.729,1.063 -0.729,1.841 0,0.505 0.109,0.957 0.33,1.347 0.218,0.393 0.532,0.7 0.944,0.924 0.411,0.222 0.892,0.332 1.443,0.332 0.832,0 1.481,-0.213 1.94,-0.645 0.459,-0.428 0.69,-1.029 0.69,-1.801 v -0.39 z m -4.686,-2.13 -1.317,3.548 -1.306,-3.548 h -1.122 l -1.724,4.818 h 1.187 l 1.166,-3.652 1.317,3.615 h 1.03 l 1.316,-3.604 1.166,3.641 h 1.132 l -1.724,-4.818 z m -7.376,2.409 c 0,0.538 -0.148,0.954 -0.442,1.245 -0.294,0.295 -0.708,0.442 -1.245,0.442 -0.538,0 -0.956,-0.147 -1.253,-0.442 -0.295,-0.291 -0.444,-0.707 -0.444,-1.245 0,-0.538 0.147,-0.953 0.441,-1.245 0.292,-0.294 0.705,-0.441 1.236,-0.441 0.544,0 0.963,0.147 1.26,0.441 0.297,0.292 0.447,0.707 0.447,1.245 m 1.148,0.018 c 0,-0.505 -0.113,-0.951 -0.342,-1.339 -0.23,-0.386 -0.56,-0.688 -0.997,-0.908 -0.436,-0.218 -0.948,-0.328 -1.534,-0.328 -0.87,0 -1.558,0.224 -2.058,0.675 -0.499,0.451 -0.75,1.074 -0.75,1.865 0,0.504 0.115,0.951 0.342,1.338 0.229,0.386 0.561,0.688 0.992,0.909 0.434,0.217 0.944,0.327 1.53,0.327 0.878,0 1.567,-0.226 2.067,-0.675 0.499,-0.451 0.75,-1.072 0.75,-1.864 m -9.531,0.908 c 0.538,0 0.935,0.097 1.197,0.289 0.259,0.19 0.388,0.489 0.388,0.898 0,0.396 -0.127,0.682 -0.38,0.863 -0.254,0.176 -0.65,0.268 -1.185,0.268 h -1.927 V 0.796 Z m -3.067,-3.335 v 6.617 h 3.168 c 0.885,0 1.55,-0.178 1.999,-0.532 0.447,-0.356 0.672,-0.883 0.672,-1.581 0,-0.718 -0.228,-1.253 -0.687,-1.603 -0.457,-0.352 -1.155,-0.53 -2.093,-0.53 h -1.899 v -2.371 z m -5.07,2.409 c 0,0.538 -0.147,0.954 -0.441,1.245 -0.294,0.295 -0.708,0.442 -1.245,0.442 -0.539,0 -0.957,-0.147 -1.253,-0.442 -0.294,-0.291 -0.445,-0.707 -0.445,-1.245 0,-0.538 0.148,-0.953 0.442,-1.245 0.292,-0.294 0.705,-0.441 1.235,-0.441 0.545,0 0.964,0.147 1.261,0.441 0.297,0.292 0.446,0.707 0.446,1.245 m 1.149,0.018 c 0,-0.505 -0.114,-0.951 -0.342,-1.339 -0.231,-0.386 -0.561,-0.688 -0.997,-0.908 -0.436,-0.218 -0.949,-0.328 -1.535,-0.328 -0.87,0 -1.557,0.224 -2.056,0.675 -0.5,0.451 -0.751,1.074 -0.751,1.865 0,0.504 0.114,0.951 0.342,1.338 0.228,0.386 0.56,0.688 0.992,0.909 0.433,0.217 0.943,0.327 1.529,0.327 0.878,0 1.567,-0.226 2.067,-0.675 0.5,-0.451 0.751,-1.072 0.751,-1.864 m -9.497,-2.427 v 5.625 h -2.67 v 0.992 h 6.516 V 3.086 h -2.668 v -5.625 z m -8.775,0.185 -2.399,4.633 h 1.26 l 1.704,-3.548 1.558,3.548 h 1.205 l -2.494,-5.207 c -0.189,-0.395 -0.377,-0.7 -0.555,-0.913 -0.18,-0.213 -0.376,-0.367 -0.589,-0.459 -0.212,-0.094 -0.461,-0.139 -0.745,-0.139 -0.34,0 -0.668,0.061 -0.984,0.185 l 0.185,0.816 c 0.218,-0.076 0.428,-0.111 0.631,-0.111 0.234,0 0.432,0.056 0.589,0.167 0.157,0.11 0.294,0.292 0.413,0.546 z m -4.362,2.067 -1.261,-0.038 c -0.581,-0.018 -0.999,-0.089 -1.256,-0.213 -0.256,-0.124 -0.383,-0.313 -0.383,-0.566 0,-0.228 0.097,-0.406 0.294,-0.533 0.198,-0.127 0.475,-0.189 0.827,-0.189 0.264,0 0.52,0.04 0.764,0.116 0.243,0.076 0.456,0.188 0.634,0.33 0.254,0.19 0.381,0.446 0.381,0.769 z m 0.027,-2.252 v 0.694 c -0.284,-0.284 -0.593,-0.492 -0.926,-0.626 -0.335,-0.132 -0.727,-0.198 -1.176,-0.198 -0.625,0 -1.106,0.127 -1.446,0.383 -0.34,0.259 -0.51,0.622 -0.51,1.091 0,0.525 0.221,0.916 0.663,1.172 0.44,0.256 1.138,0.401 2.089,0.431 l 1.279,0.038 v 0.158 c 0,0.654 -0.432,0.981 -1.296,0.981 -0.422,0 -0.746,-0.051 -0.975,-0.152 -0.228,-0.104 -0.378,-0.259 -0.443,-0.469 l -0.992,0.111 c 0.109,0.464 0.363,0.804 0.758,1.025 0.396,0.217 0.958,0.327 1.687,0.327 0.786,0 1.367,-0.153 1.747,-0.462 0.381,-0.309 0.571,-0.781 0.571,-1.417 v -3.087 z m -8.119,0 -1.679,5.115 -1.694,-5.115 h -1.243 l -2.235,6.617 h 1.31 l 1.593,-5.199 1.704,5.161 h 1.186 l 1.715,-5.18 1.604,5.218 h 1.259 l -2.234,-6.617 z m -9.79,0.094 c -0.413,-0.132 -0.837,-0.196 -1.269,-0.196 -0.567,0 -0.983,0.132 -1.247,0.393 -0.261,0.265 -0.393,0.686 -0.393,1.266 v 2.418 h -0.936 v 0.843 h 0.936 v 1.299 h 1.113 V 2.279 h 1.648 V 1.436 h -1.648 v -2.457 c 0,-0.252 0.061,-0.44 0.187,-0.565 0.127,-0.121 0.326,-0.185 0.589,-0.185 0.285,0 0.571,0.048 0.855,0.14 z m -8.175,-0.094 v 4.818 h 1.094 V 1.455 c 0.227,0.289 0.494,0.513 0.801,0.667 0.304,0.155 0.631,0.232 0.976,0.232 0.15,0 0.322,-0.016 0.521,-0.046 l -0.13,-0.926 c -0.185,0.03 -0.355,0.046 -0.51,0.046 -0.489,0 -0.885,-0.14 -1.187,-0.419 -0.301,-0.272 -0.454,-0.588 -0.454,-0.953 v -2.595 z m -2.765,2.252 -1.26,-0.038 c -0.58,-0.018 -0.999,-0.089 -1.255,-0.213 -0.257,-0.124 -0.383,-0.313 -0.383,-0.566 0,-0.228 0.096,-0.406 0.294,-0.533 0.197,-0.127 0.474,-0.189 0.826,-0.189 0.265,0 0.521,0.04 0.764,0.116 0.244,0.076 0.457,0.188 0.635,0.33 0.252,0.19 0.379,0.446 0.379,0.769 z m 0.029,-2.252 v 0.694 c -0.284,-0.284 -0.594,-0.492 -0.926,-0.626 -0.335,-0.132 -0.729,-0.198 -1.177,-0.198 -0.624,0 -1.106,0.127 -1.446,0.383 -0.34,0.259 -0.51,0.622 -0.51,1.091 0,0.525 0.221,0.916 0.662,1.172 0.442,0.256 1.139,0.401 2.09,0.431 l 1.278,0.038 v 0.158 c 0,0.654 -0.43,0.981 -1.295,0.981 -0.421,0 -0.747,-0.051 -0.974,-0.152 -0.229,-0.104 -0.378,-0.259 -0.444,-0.469 l -0.992,0.111 c 0.109,0.464 0.363,0.804 0.758,1.025 0.396,0.217 0.959,0.327 1.687,0.327 0.786,0 1.367,-0.153 1.748,-0.462 0.38,-0.309 0.57,-0.781 0.57,-1.417 v -3.087 z m -6.555,0 V 0.38 c 0,0.395 -0.083,0.684 -0.251,0.87 -0.167,0.186 -0.431,0.279 -0.796,0.279 -0.414,0 -0.781,-0.144 -1.103,-0.436 -0.124,-0.112 -0.218,-0.241 -0.287,-0.388 -0.069,-0.15 -0.101,-0.305 -0.101,-0.465 v -2.779 h -1.114 V 0.38 c 0,0.395 -0.083,0.684 -0.248,0.87 -0.168,0.186 -0.434,0.279 -0.799,0.279 -0.406,0 -0.772,-0.16 -1.094,-0.482 -0.266,-0.266 -0.397,-0.581 -0.397,-0.946 v -2.64 h -1.112 v 4.818 h 1.093 V 1.483 c 0.5,0.629 1.119,0.944 1.855,0.944 0.419,0 0.771,-0.081 1.054,-0.243 0.284,-0.165 0.488,-0.409 0.612,-0.729 0.512,0.649 1.174,0.972 1.983,0.972 0.594,0 1.045,-0.157 1.354,-0.472 0.308,-0.314 0.462,-0.776 0.462,-1.38 v -3.114 z m -10.104,4.791 c -0.099,0.259 -0.229,0.467 -0.388,0.621 -0.16,0.155 -0.363,0.267 -0.605,0.332 -0.24,0.069 -0.54,0.105 -0.897,0.105 -0.594,0 -1.053,-0.081 -1.38,-0.239 -0.33,-0.157 -0.492,-0.383 -0.492,-0.679 0,-0.28 0.106,-0.491 0.32,-0.632 0.213,-0.142 0.585,-0.254 1.115,-0.332 l 1.372,-0.206 c 0.772,-0.117 1.34,-0.334 1.701,-0.652 0.362,-0.319 0.542,-0.756 0.542,-1.311 0,-0.624 -0.266,-1.109 -0.801,-1.45 -0.535,-0.343 -1.284,-0.516 -2.247,-0.516 -1.051,0 -1.847,0.183 -2.388,0.548 -0.54,0.365 -0.856,0.929 -0.948,1.694 h 1.184 c 0.081,-0.456 0.294,-0.788 0.637,-0.994 0.343,-0.208 0.847,-0.312 1.515,-0.312 0.597,0 1.057,0.091 1.377,0.269 0.316,0.18 0.476,0.434 0.476,0.761 0,0.271 -0.109,0.484 -0.33,0.639 -0.218,0.155 -0.56,0.266 -1.024,0.332 l -1.185,0.178 c -0.611,0.091 -1.097,0.218 -1.456,0.38 -0.357,0.16 -0.616,0.368 -0.778,0.624 -0.16,0.257 -0.241,0.573 -0.241,0.951 0,0.594 0.269,1.056 0.801,1.385 0.536,0.33 1.284,0.497 2.247,0.497 0.594,0 1.091,-0.065 1.495,-0.195 0.4,-0.129 0.722,-0.327 0.966,-0.593 0.246,-0.267 0.423,-0.611 0.533,-1.038 z m -9.628,-1.918 c -0.013,0.406 -0.156,0.724 -0.432,0.949 -0.273,0.226 -0.656,0.34 -1.144,0.34 -0.438,0 -0.801,-0.117 -1.087,-0.348 -0.29,-0.233 -0.457,-0.545 -0.508,-0.941 z m -3.199,-0.743 c 0.013,-0.444 0.17,-0.796 0.469,-1.06 0.3,-0.263 0.693,-0.393 1.183,-0.393 0.383,0 0.694,0.063 0.94,0.19 0.243,0.127 0.411,0.312 0.505,0.561 h 1.104 c -0.138,-0.533 -0.416,-0.929 -0.84,-1.188 -0.424,-0.258 -0.997,-0.388 -1.72,-0.388 -0.847,0 -1.512,0.224 -1.996,0.67 -0.484,0.449 -0.728,1.063 -0.728,1.841 0,0.505 0.109,0.957 0.329,1.347 0.219,0.393 0.534,0.7 0.944,0.924 0.411,0.222 0.893,0.332 1.443,0.332 0.832,0 1.482,-0.213 1.941,-0.645 0.459,-0.428 0.69,-1.029 0.69,-1.801 v -0.39 z m -3.645,-2.13 V 0.37 c 0,0.408 -0.094,0.702 -0.286,0.885 -0.191,0.182 -0.5,0.274 -0.926,0.274 -0.236,0 -0.462,-0.043 -0.683,-0.13 -0.217,-0.086 -0.41,-0.208 -0.578,-0.362 -0.292,-0.271 -0.436,-0.586 -0.436,-0.943 v -2.633 h -1.111 v 6.617 h 1.111 V 1.501 c 0.525,0.619 1.205,0.926 2.04,0.926 0.648,0 1.14,-0.157 1.478,-0.472 0.335,-0.314 0.505,-0.776 0.505,-1.38 v -3.114 z m -9.055,0 v 5.625 h -2.671 v 0.992 h 6.517 V 3.086 h -2.669 v -5.625 z" /></g><path
         id="path28"
         style="fill:#1c63b7;fill-opacity:1;fill-rule:nonzero;stroke:none"
         d="m 381.434,313.837 h -34.572 v -34.572 h 34.572 z m 0,-42.736 h -34.572 v -34.572 h 34.572 z m 42.737,0 h -34.573 v -34.572 h 34.573 z m 0,42.736 h -34.573 v -34.572 h 34.573 z m 54.115,91.224 -21.87,-37.882 -13.794,-23.892 35.664,20.591 z m 43.742,-75.762 -21.871,37.881 -13.794,23.892 V 349.89 Z m -87.483,0 h 43.742 27.588 L 470.21,349.89 Z m -49.029,77.308 c -21.348,0 -38.654,-17.306 -38.654,-38.654 0,-21.348 17.306,-38.654 38.654,-38.654 21.348,0 38.655,17.306 38.655,38.654 0,21.348 -17.307,38.654 -38.655,38.654 M 493.747,306.106 v 7.731 h -7.73 v -15.462 h 23.193 v -54.114 h -61.846 v 54.114 h 23.192 v 15.462 h -7.73 v -7.731 h -23.194 v -69.577 h 77.308 v 69.577 z m 7.731,-15.461 h -46.383 v -7.731 h 46.383 z m 0,-15.461 h -46.383 v -7.731 h 46.383 z m -46.382,-15.462 h 46.383 v -7.731 h -46.383 z" /><path
         id="path22"
         style="fill:#4f4c4d;fill-opacity:1;fill-rule:nonzero;stroke:none;image-rendering:auto"
         d="m 475.28097,180.91448 v -14.486 h 1.796 c 1.015,0 1.623,0.523 1.623,1.971 v 10.544 c 0,1.45 -0.608,1.971 -1.623,1.971 z m -3.185,2.896 h 5.039 c 3.188,0 4.751,-1.766 4.751,-5.013 v -10.254 c 0,-3.244 -1.563,-5.011 -4.751,-5.011 h -5.039 z m -6.278,0 h 3.187 v -20.278 h -3.187 z m -9.451,-2.896 v -6.23 h 1.245 c 1.19,0 1.914,0.522 1.914,2.146 v 1.999 c 0,1.448 -0.493,2.085 -1.622,2.085 z m 3.478,-17.382 c -0.175,0.522 -0.289,0.839 -0.289,2.49 v 3.188 c 0,1.882 -0.64,2.578 -2.088,2.578 h -1.101 v -8.256 h -3.185 v 20.278 h 4.808 c 3.303,0 4.723,-1.535 4.723,-4.665 v -1.593 c 0,-2.085 -0.667,-3.446 -2.087,-4.114 1.593,-0.664 2.115,-2.201 2.115,-4.316 v -3.127 c 0,-0.985 0.031,-1.71 0.348,-2.463 z m -14.047,11.299 h 4.462 v -6.432 c 0,-3.244 -1.621,-5.099 -4.751,-5.099 -3.127,0 -4.75,1.855 -4.75,5.099 v 10.544 c 0,3.246 1.623,5.1 4.75,5.1 3.13,0 4.751,-1.854 4.751,-5.1 v -1.969 h -3.011 v 2.171 c 0,1.448 -0.639,1.999 -1.651,1.999 -1.015,0 -1.653,-0.551 -1.653,-1.999 v -10.949 c 0,-1.448 0.638,-1.971 1.653,-1.971 1.012,0 1.651,0.523 1.651,1.971 v 3.736 h -1.451 z m -14.287,-6.635 c 0,-1.448 0.64,-1.999 1.653,-1.999 1.013,0 1.652,0.551 1.652,1.999 v 10.949 c 0,1.448 -0.639,1.999 -1.652,1.999 -1.013,0 -1.653,-0.551 -1.653,-1.999 z m -3.186,10.747 c 0,3.246 1.709,5.1 4.839,5.1 3.128,0 4.837,-1.854 4.837,-5.1 v -10.544 c 0,-3.244 -1.709,-5.099 -4.837,-5.099 -3.13,0 -4.839,1.855 -4.839,5.099 z m -9.146,1.971 v -6.23 h 1.245 c 1.19,0 1.913,0.522 1.913,2.146 v 1.999 c 0,1.448 -0.492,2.085 -1.621,2.085 z m 3.477,-17.382 c -0.174,0.522 -0.289,0.839 -0.289,2.49 v 3.188 c 0,1.882 -0.639,2.578 -2.088,2.578 h -1.1 v -8.256 h -3.186 v 20.278 h 4.809 c 3.303,0 4.723,-1.535 4.723,-4.665 v -1.593 c 0,-2.085 -0.667,-3.446 -2.087,-4.114 1.592,-0.664 2.115,-2.201 2.115,-4.316 v -3.127 c 0,-0.985 0.03,-1.71 0.348,-2.463 z m -9.483,7.56 v -2.693 c 0,-3.244 -1.621,-5.099 -4.751,-5.099 -3.127,0 -4.75,1.855 -4.75,5.099 v 10.544 c 0,3.246 1.623,5.1 4.75,5.1 3.13,0 4.751,-1.854 4.751,-5.1 v -1.969 h -3.011 v 2.171 c 0,1.448 -0.639,1.999 -1.651,1.999 -1.015,0 -1.653,-0.551 -1.653,-1.999 v -10.949 c 0,-1.448 0.638,-1.971 1.653,-1.971 1.012,0 1.651,0.523 1.651,1.971 v 2.896 z m -15.627,12.718 h 3.186 v -20.278 h -3.186 z m -9.722,-14.396 2.174,14.396 h 4.431 v -20.278 h -3.013 v 14.543 l -2.202,-14.543 h -3.011 l -2.376,14.34 v -14.34 h -2.782 v 20.278 h 4.434 z"
         sodipodi:nodetypes="ccssssccsssscccccccccssssccsssccccssscssccccssssssccsssssscccssssssssssssssccssssccsssccccssscsscccssssssccssssssccccccccccccccccccccc" /><path
         id="path22-7"
         style="fill:#4f4c4d;fill-opacity:1;fill-rule:nonzero;stroke:none;image-rendering:auto"
         d="m 522.67801,155.82005 h 9.852 v -2.896 h -3.333 v -17.382 h -3.186 v 17.382 h -3.333 z m -9.777,-5.591 v -14.687 h -2.869 v 20.278 h 4 l 3.272,-12.137 v 12.137 h 2.841 v -20.278 h -3.276 z m -11.203,-2.954 h 4.375 v -2.897 h -4.375 v -5.94 h 5.503 v -2.896 h -8.689 v 20.278 h 8.689 v -2.896 h -5.503 z m -12.918,-5.851 2.173,14.396 h 4.431 v -20.278 h -3.013 v 14.543 l -2.202,-14.543 h -3.011 l -2.376,14.34 v -14.34 h -2.783 v 20.278 h 4.434 z m -15.112,5.851 h 4.375 v -2.897 h -4.375 v -5.94 h 5.504 v -2.896 h -8.69 v 20.278 h 8.69 v -2.896 h -5.504 z m -10.572,-0.434 h 4.462 v -6.432 c 0,-3.244 -1.621,-5.099 -4.751,-5.099 -3.127,0 -4.751,1.855 -4.751,5.099 v 10.544 c 0,3.246 1.624,5.1 4.751,5.1 3.13,0 4.751,-1.854 4.751,-5.1 v -1.969 h -3.011 v 2.171 c 0,1.448 -0.64,1.999 -1.651,1.999 -1.015,0 -1.654,-0.551 -1.654,-1.999 v -10.949 c 0,-1.448 0.639,-1.971 1.654,-1.971 1.011,0 1.651,0.523 1.651,1.971 v 3.736 h -1.451 z m -14.5,-4.868 h 3.071 l -1.534,10.255 z m 7.271,-6.431 h -3.215 l -0.551,3.679 h -3.911 l -0.55,-3.679 h -2.925 l 3.244,20.278 h 4.664 z m -20.975,14.687 v -14.687 h -2.869 v 20.278 h 4 l 3.272,-12.137 v 12.137 h 2.84 v -20.278 h -3.274 z m -12.718,-8.256 h 3.071 l -1.534,10.255 z m 7.272,-6.431 h -3.216 l -0.55,3.679 h -3.911 l -0.551,-3.679 h -2.925 l 3.244,20.278 h 4.665 z m -20.367,5.882 2.173,14.396 h 4.432 v -20.278 h -3.014 v 14.543 l -2.201,-14.543 h -3.011 l -2.377,14.34 v -14.34 h -2.782 v 20.278 h 4.434 z m -25.661,14.396 h 9.852 v -2.896 h -3.333 v -17.382 h -3.186 v 17.382 h -3.333 z m -7.881,-8.545 h 4.376 v -2.897 h -4.376 v -5.94 h 5.505 v -2.896 h -8.69 v 20.278 h 8.69 v -2.896 h -5.505 z m -10.677,8.778 c 3.099,0 4.695,-1.854 4.695,-5.1 v -0.637 h -3.014 v 0.839 c 0,1.448 -0.581,1.999 -1.593,1.999 -1.014,0 -1.595,-0.551 -1.595,-1.999 0,-4.17 6.229,-4.953 6.229,-10.746 0,-3.244 -1.623,-5.099 -4.751,-5.099 -3.13,0 -4.75,1.855 -4.75,5.099 v 1.245 h 3.013 v -1.448 c 0,-1.448 0.637,-1.971 1.651,-1.971 1.012,0 1.652,0.523 1.652,1.971 0,4.172 -6.23,4.953 -6.23,10.747 0,3.246 1.593,5.1 4.693,5.1 m -12.023,0 c 3.1,0 4.695,-1.854 4.695,-5.1 v -0.637 h -3.013 v 0.839 c 0,1.448 -0.581,1.999 -1.593,1.999 -1.015,0 -1.596,-0.551 -1.596,-1.999 0,-4.17 6.23,-4.953 6.23,-10.746 0,-3.244 -1.623,-5.099 -4.75,-5.099 -3.13,0 -4.751,1.855 -4.751,5.099 v 1.245 h 3.013 v -1.448 c 0,-1.448 0.636,-1.971 1.651,-1.971 1.013,0 1.651,0.523 1.651,1.971 0,4.172 -6.229,4.953 -6.229,10.747 0,3.246 1.593,5.1 4.692,5.1 m -14.125,-14.08 h 3.071 l -1.534,10.255 z m 7.272,-6.431 h -3.216 l -0.551,3.679 h -3.911 l -0.55,-3.679 h -2.925 l 3.244,20.278 h 4.664 z"
         sodipodi:nodetypes="ccccccccccccccccccccccccccccccccccccccccccccccccccccccccccccccssssssccsssssscccccccccccccccccccccccccccccccccccccccccccccccccccccccccccccccccccccccccccccsccssssssccssssccsccssssssccsssscccccccccccccc" /></g></g></svg>
