<?xml version="1.0" encoding="UTF-8" standalone="no"?>
<svg
   viewBox="0 0 749.99999 99.999999"
   height="100"
   width="750"
   xml:space="preserve"
   id="svg2"
   version="1.1"
   sodipodi:docname="logo_long.svg"
   inkscape:version="1.2.2 (b0a84865, 2022-12-01)"
   xmlns:inkscape="http://www.inkscape.org/namespaces/inkscape"
   xmlns:sodipodi="http://sodipodi.sourceforge.net/DTD/sodipodi-0.dtd"
   xmlns="http://www.w3.org/2000/svg"
   xmlns:svg="http://www.w3.org/2000/svg"
   xmlns:rdf="http://www.w3.org/1999/02/22-rdf-syntax-ns#"
   xmlns:cc="http://creativecommons.org/ns#"
   xmlns:dc="http://purl.org/dc/elements/1.1/"><sodipodi:namedview
     id="namedview22"
     pagecolor="#ffffff"
     bordercolor="#666666"
     borderopacity="1.0"
     inkscape:showpageshadow="2"
     inkscape:pageopacity="0.0"
     inkscape:pagecheckerboard="0"
     inkscape:deskcolor="#d1d1d1"
     showgrid="false"
     inkscape:zoom="2"
     inkscape:cx="332.25"
     inkscape:cy="47.25"
     inkscape:window-width="2395"
     inkscape:window-height="991"
     inkscape:window-x="2612"
     inkscape:window-y="368"
     inkscape:window-maximized="0"
     inkscape:current-layer="g14"
     showguides="true"><sodipodi:guide
       position="24.5,80.499999"
       orientation="1,0"
       id="guide571"
       inkscape:locked="false" /><sodipodi:guide
       position="725.49999,202.5"
       orientation="1,0"
       id="guide573"
       inkscape:locked="false" /><sodipodi:guide
       position="277.5,84.999999"
       orientation="0,-1"
       id="guide575"
       inkscape:locked="false" /><sodipodi:guide
       position="198,15"
       orientation="0,-1"
       id="guide577"
       inkscape:locked="false" /></sodipodi:namedview><metadata
     id="metadata8"><rdf:RDF><cc:Work
         rdf:about=""><dc:format>image/svg+xml</dc:format><dc:type
           rdf:resource="http://purl.org/dc/dcmitype/StillImage" /></cc:Work></rdf:RDF></metadata><defs
     id="defs6"><clipPath
       id="clipPath18"
       clipPathUnits="userSpaceOnUse"><path
         id="path16"
         d="M 0,595.276 H 841.89 V 0 H 0 Z" /></clipPath></defs><g
     id="g12"
     transform="matrix(1.3333333,0,0,-1.3333333,-209.71599,433.53199)"><g
       clip-path="url(#clipPath18)"
       id="g14"><g
         transform="translate(686.6943,291.9421)"
         id="g20"><path
           id="path22"
           style="fill:#4f4c4d;fill-opacity:1;fill-rule:nonzero;stroke:none"
           d="M 0,0 H 15.159 V -4.458 H 10.032 V -31.209 H 5.126 V -4.458 H 0 Z m -14.768,-8.605 v -22.604 h -4.414 V 0 h 6.153 l 5.038,-18.681 V 0 h 4.371 v -31.209 h -5.038 z m -16.941,-4.548 h 6.731 v -4.458 h -6.731 v -9.139 h 8.472 v -4.459 H -36.614 V 0 h 13.377 v -4.458 h -8.472 z M -51.288,-22.159 -47.944,0 h 6.821 v -31.209 h -4.637 v 22.381 l -3.388,-22.381 h -4.636 L -57.44,-9.14 v -22.069 h -4.281 V 0 h 6.823 z m -22.961,9.006 h 6.732 v -4.458 h -6.732 v -9.139 h 8.471 v -4.459 H -79.153 V 0 h 13.375 v -4.458 h -8.471 z m -15.975,-0.669 h 6.866 v -9.897 c 0,-4.993 -2.496,-7.847 -7.312,-7.847 -4.814,0 -7.311,2.854 -7.311,7.847 V -7.49 c 0,4.993 2.497,7.847 7.311,7.847 4.816,0 7.312,-2.854 7.312,-7.847 v -3.032 h -4.636 v 3.344 c 0,2.229 -0.981,3.076 -2.542,3.076 -1.561,0 -2.541,-0.847 -2.541,-3.076 v -16.854 c 0,-2.228 0.98,-3.032 2.541,-3.032 1.561,0 2.542,0.804 2.542,3.032 v 5.752 h -2.23 z m -22.024,-7.489 h 4.726 l -2.364,15.782 z m 11.19,-9.898 h -4.949 l -0.847,5.662 h -6.018 l -0.849,-5.662 h -4.503 L -113.229,0 h 7.177 z m -31.999,22.604 v -22.604 h -4.415 V 0 h 6.154 l 5.038,-18.681 V 0 h 4.37 v -31.209 h -5.037 z m -19.292,-12.706 h 4.727 l -2.364,15.782 z m 11.192,-9.898 h -4.949 l -0.847,5.662 h -6.019 l -0.848,-5.662 h -4.503 L -153.329,0 h 7.177 z m -31.065,9.05 3.343,22.159 h 6.822 v -31.209 h -4.637 v 22.381 l -3.388,-22.381 h -4.636 l -3.656,22.069 v -22.069 h -4.28 V 0 h 6.821 z M -211.73,0 h 15.159 v -4.458 h -5.127 v -26.751 h -4.905 v 26.751 h -5.127 z m -11.85,-13.153 h 6.731 v -4.458 h -6.731 v -9.139 h 8.472 v -4.459 h -13.377 V 0 h 13.377 v -4.458 h -8.472 z m -16.14,13.51 c 4.77,0 7.222,-2.854 7.222,-7.847 v -0.981 h -4.637 v 1.293 c 0,2.229 -0.891,3.076 -2.451,3.076 -1.56,0 -2.453,-0.847 -2.453,-3.076 0,-6.42 9.587,-7.624 9.587,-16.541 0,-4.993 -2.498,-7.847 -7.314,-7.847 -4.814,0 -7.311,2.854 -7.311,7.847 v 1.918 h 4.638 v -2.231 c 0,-2.228 0.98,-3.032 2.54,-3.032 1.56,0 2.542,0.804 2.542,3.032 0,6.421 -9.585,7.624 -9.585,16.542 0,4.993 2.451,7.847 7.222,7.847 m -18.222,0 c 4.77,0 7.223,-2.854 7.223,-7.847 v -0.981 h -4.637 v 1.293 c 0,2.229 -0.893,3.076 -2.452,3.076 -1.561,0 -2.452,-0.847 -2.452,-3.076 0,-6.42 9.586,-7.624 9.586,-16.541 0,-4.993 -2.498,-7.847 -7.313,-7.847 -4.815,0 -7.311,2.854 -7.311,7.847 v 1.918 h 4.637 v -2.231 c 0,-2.228 0.981,-3.032 2.54,-3.032 1.56,0 2.541,0.804 2.541,3.032 0,6.421 -9.584,7.624 -9.584,16.542 0,4.993 2.451,7.847 7.222,7.847 m -21.45,-21.668 h 4.726 l -2.363,15.782 z m 11.191,-9.898 h -4.949 l -0.847,5.662 h -6.018 l -0.848,-5.662 h -4.504 L -280.372,0 h 7.177 z m -40.981,26.751 V -26.75 h 2.765 c 1.561,0 2.496,0.801 2.496,3.031 V -7.49 c 0,2.229 -0.935,3.032 -2.496,3.032 z M -314.086,0 h 7.757 c 4.906,0 7.313,-2.719 7.313,-7.713 v -15.784 c 0,-4.994 -2.407,-7.712 -7.313,-7.712 h -7.757 z m -9.351,0 h 4.904 v -31.209 h -4.904 z m -14.245,-4.458 v -9.586 h 1.916 c 1.829,0 2.945,0.802 2.945,3.299 v 3.077 c 0,2.228 -0.76,3.21 -2.498,3.21 z m 5.35,-26.751 c -0.268,0.801 -0.446,1.292 -0.446,3.834 v 4.905 c 0,2.897 -0.981,3.967 -3.21,3.967 h -1.694 v -12.706 h -4.905 V 0 h 7.401 c 5.084,0 7.269,-2.363 7.269,-7.178 V -9.63 c 0,-3.21 -1.027,-5.306 -3.211,-6.331 2.453,-1.026 3.254,-3.389 3.254,-6.644 v -4.814 c 0,-1.516 0.045,-2.631 0.537,-3.79 z m -21.326,17.387 h 6.867 v -9.897 c 0,-4.993 -2.496,-7.847 -7.311,-7.847 -4.817,0 -7.313,2.854 -7.313,7.847 V -7.49 c 0,4.993 2.496,7.847 7.313,7.847 4.815,0 7.311,-2.854 7.311,-7.847 v -3.032 h -4.637 v 3.344 c 0,2.229 -0.981,3.076 -2.542,3.076 -1.559,0 -2.541,-0.847 -2.541,-3.076 v -16.854 c 0,-2.228 0.982,-3.032 2.541,-3.032 1.561,0 2.542,0.804 2.542,3.032 v 5.752 h -2.23 z m -21.69,-10.21 c 0,-2.228 0.981,-3.076 2.542,-3.076 1.56,0 2.541,0.848 2.541,3.076 v 16.854 c 0,2.229 -0.981,3.076 -2.541,3.076 -1.561,0 -2.542,-0.847 -2.542,-3.076 z m -4.904,16.542 c 0,4.993 2.631,7.847 7.446,7.847 4.815,0 7.445,-2.854 7.445,-7.847 v -16.229 c 0,-4.993 -2.63,-7.847 -7.445,-7.847 -4.815,0 -7.446,2.854 -7.446,7.847 z m -13.778,3.032 v -9.586 h 1.919 c 1.827,0 2.942,0.802 2.942,3.299 v 3.077 c 0,2.228 -0.758,3.21 -2.497,3.21 z m 5.352,-26.751 c -0.268,0.801 -0.446,1.292 -0.446,3.834 v 4.905 c 0,2.897 -0.981,3.967 -3.21,3.967 h -1.696 v -12.706 h -4.904 V 0 h 7.403 c 5.081,0 7.265,-2.363 7.265,-7.178 V -9.63 c 0,-3.21 -1.024,-5.306 -3.208,-6.331 2.451,-1.026 3.254,-3.389 3.254,-6.644 v -4.814 c 0,-1.516 0.045,-2.631 0.534,-3.79 z m -14.313,11.636 v -4.146 c 0,-4.993 -2.496,-7.847 -7.311,-7.847 -4.815,0 -7.311,2.854 -7.311,7.847 V -7.49 c 0,4.993 2.496,7.847 7.311,7.847 4.815,0 7.311,-2.854 7.311,-7.847 v -3.032 h -4.635 v 3.344 c 0,2.229 -0.981,3.076 -2.542,3.076 -1.561,0 -2.541,-0.847 -2.541,-3.076 v -16.854 c 0,-2.228 0.98,-3.032 2.541,-3.032 1.561,0 2.542,0.804 2.542,3.032 v 4.459 z M -426.738,0 h 4.904 v -31.209 h -4.904 z M -441.399,-22.159 -438.054,0 h 6.822 v -31.209 h -4.638 v 22.381 l -3.388,-22.381 h -4.638 l -3.656,22.069 v -22.069 h -4.28 V 0 h 6.822 z" /></g><path
         id="path24"
         style="fill:#1c63b7;fill-opacity:1;fill-rule:nonzero;stroke:none"
         d="m 183.092,279.507 h -8.555 v -8.556 h 8.555 z m 0,-10.575 h -8.555 v -8.556 h 8.555 z m 10.575,0 h -8.555 v -8.556 h 8.555 z m 0,10.575 h -8.555 v -8.556 h 8.555 z m 13.392,22.574 -5.412,-9.374 -3.414,-5.912 8.826,5.095 z m 10.824,-18.748 -5.412,9.374 -3.413,5.913 v -10.191 z m -21.648,0 h 10.824 6.827 l -8.825,5.096 z m -12.133,19.131 c -5.283,0 -9.565,-4.283 -9.565,-9.565 0,-5.283 4.282,-9.566 9.565,-9.566 5.283,0 9.565,4.283 9.565,9.566 0,5.282 -4.282,9.565 -9.565,9.565 m 26.783,-24.87 v 1.913 h -1.913 v -3.826 h 5.739 v -13.392 h -15.304 v 13.392 h 5.739 v 3.826 h -1.913 v -1.913 h -5.739 v -17.218 h 19.131 v 17.218 z m 1.913,-3.826 H 201.32 v -1.913 h 11.478 z m 0,-3.826 H 201.32 v -1.913 h 11.478 z m -11.478,-3.827 h 11.478 v -1.913 H 201.32 Z" /><g
         transform="translate(614.3896,308.863)"
         id="g26"><path
           id="path28"
           style="fill:#4f4c4d;fill-opacity:1;fill-rule:nonzero;stroke:none"
           d="m 0,0 c 0,0.667 -0.225,1.237 -0.67,1.712 -0.429,0.458 -1.044,0.686 -1.842,0.686 -0.857,0 -1.503,-0.224 -1.94,-0.67 -0.44,-0.448 -0.657,-1.1 -0.657,-1.956 0,-0.808 0.221,-1.439 0.664,-1.891 0.442,-0.452 1.057,-0.677 1.848,-0.677 0.361,0 0.712,0.068 1.056,0.207 0.341,0.137 0.632,0.325 0.871,0.563 0.217,0.219 0.385,0.466 0.498,0.742 C -0.058,-1.008 0,-0.723 0,-0.427 Z m 0.015,-3.91 v 1.227 c -0.344,-0.456 -0.791,-0.813 -1.342,-1.07 -0.552,-0.257 -1.165,-0.385 -1.842,-0.385 -0.723,0 -1.361,0.157 -1.919,0.471 -0.556,0.314 -0.995,0.766 -1.313,1.355 -0.32,0.59 -0.478,1.276 -0.478,2.055 0,0.761 0.156,1.444 0.471,2.048 0.314,0.605 0.765,1.08 1.356,1.428 0.589,0.346 1.274,0.52 2.054,0.52 1.304,0 2.298,-0.438 2.982,-1.313 V 6.279 H 1.697 V -3.91 Z M -10.748,6.279 h 1.712 V -3.91 h -1.712 z M -17.716,-3.91 v 7.421 h 1.685 v -1.27 c 0.351,0.447 0.762,0.789 1.233,1.027 0.472,0.238 0.974,0.357 1.507,0.357 0.228,0 0.494,-0.024 0.798,-0.071 l -0.199,-1.428 c -0.286,0.048 -0.547,0.072 -0.786,0.072 -0.751,0 -1.361,-0.214 -1.826,-0.642 -0.467,-0.419 -0.7,-0.909 -0.7,-1.47 V -3.91 Z m -3.908,3.711 c 0,0.827 -0.226,1.468 -0.677,1.919 -0.453,0.452 -1.093,0.678 -1.92,0.678 -0.828,0 -1.47,-0.226 -1.926,-0.678 -0.457,-0.451 -0.685,-1.092 -0.685,-1.919 0,-0.828 0.225,-1.468 0.678,-1.92 0.451,-0.452 1.087,-0.677 1.905,-0.677 0.836,0 1.484,0.225 1.94,0.677 0.457,0.452 0.685,1.092 0.685,1.92 m 1.77,0.029 c 0,-0.781 -0.175,-1.468 -0.528,-2.063 -0.353,-0.595 -0.863,-1.061 -1.534,-1.399 -0.671,-0.337 -1.458,-0.506 -2.362,-0.506 -1.342,0 -2.398,0.346 -3.167,1.042 -0.772,0.694 -1.158,1.65 -1.158,2.868 0,0.78 0.177,1.468 0.529,2.062 0.351,0.595 0.86,1.061 1.527,1.398 0.666,0.338 1.449,0.507 2.354,0.507 1.352,0 2.413,-0.347 3.182,-1.041 0.771,-0.695 1.157,-1.651 1.157,-2.868 m -14.905,-3.74 -2.583,7.878 -2.611,-7.878 h -1.913 l -3.439,10.189 h 2.012 l 2.455,-8.005 2.625,7.949 h 1.827 l 2.64,-7.978 2.468,8.034 h 1.941 L -32.776,-3.91 Z m -20.336,0 v 7.421 h 1.685 v -1.27 c 0.351,0.447 0.763,0.789 1.233,1.027 0.472,0.238 0.974,0.357 1.507,0.357 0.228,0 0.494,-0.024 0.798,-0.071 l -0.199,-1.428 c -0.285,0.048 -0.547,0.072 -0.785,0.072 -0.751,0 -1.361,-0.214 -1.827,-0.642 -0.466,-0.419 -0.7,-0.909 -0.7,-1.47 V -3.91 Z m -4.2,0 v 1.227 c -0.828,-0.97 -1.869,-1.455 -3.125,-1.455 -0.942,0 -1.669,0.242 -2.184,0.727 -0.513,0.486 -0.771,1.181 -0.771,2.085 v 4.837 h 1.713 v -4.538 c 0,-0.581 0.146,-1.014 0.435,-1.298 0.291,-0.286 0.735,-0.429 1.334,-0.429 0.714,0 1.347,0.243 1.899,0.728 0.446,0.399 0.671,0.89 0.671,1.47 v 4.067 h 1.713 V -3.91 Z m -9.91,3.711 c 0,0.827 -0.227,1.468 -0.678,1.919 -0.453,0.452 -1.093,0.678 -1.92,0.678 -0.828,0 -1.47,-0.226 -1.926,-0.678 -0.457,-0.451 -0.685,-1.092 -0.685,-1.919 0,-0.828 0.225,-1.468 0.678,-1.92 0.451,-0.452 1.087,-0.677 1.905,-0.677 0.837,0 1.484,0.225 1.94,0.677 0.457,0.452 0.686,1.092 0.686,1.92 m 1.769,0.029 c 0,-0.781 -0.175,-1.468 -0.528,-2.063 -0.353,-0.595 -0.863,-1.061 -1.534,-1.399 -0.671,-0.337 -1.458,-0.506 -2.362,-0.506 -1.342,0 -2.398,0.346 -3.167,1.042 -0.772,0.694 -1.158,1.65 -1.158,2.868 0,0.78 0.177,1.468 0.529,2.062 0.351,0.595 0.86,1.061 1.527,1.398 0.666,0.338 1.45,0.507 2.354,0.507 1.352,0 2.413,-0.347 3.182,-1.041 0.771,-0.695 1.157,-1.651 1.157,-2.868 m -14.84,-3.74 v 4.182 l -4.352,6.007 h 2.084 l 3.21,-4.524 3.197,4.524 h 2.026 L -80.463,0.272 V -3.91 Z m -14.084,0 v 7.421 h 1.684 v -1.27 c 0.352,0.447 0.763,0.789 1.234,1.027 0.471,0.238 0.973,0.357 1.506,0.357 0.229,0 0.496,-0.024 0.798,-0.071 l -0.198,-1.428 c -0.286,0.048 -0.548,0.072 -0.786,0.072 -0.751,0 -1.36,-0.214 -1.825,-0.642 -0.467,-0.419 -0.701,-0.909 -0.701,-1.47 V -3.91 Z m -3.801,4.424 c -0.02,0.628 -0.241,1.116 -0.664,1.463 -0.424,0.347 -1.012,0.521 -1.763,0.521 -0.676,0 -1.235,-0.178 -1.678,-0.536 -0.44,-0.357 -0.7,-0.839 -0.777,-1.448 z m -4.925,-1.142 c 0.019,-0.684 0.259,-1.229 0.721,-1.634 0.462,-0.404 1.068,-0.606 1.82,-0.606 0.589,0 1.071,0.097 1.448,0.293 0.376,0.195 0.636,0.482 0.779,0.863 h 1.697 c -0.21,-0.818 -0.64,-1.427 -1.291,-1.827 -0.651,-0.399 -1.535,-0.599 -2.649,-0.599 -1.302,0 -2.327,0.345 -3.074,1.035 -0.747,0.689 -1.12,1.634 -1.12,2.832 0,0.78 0.169,1.472 0.507,2.077 0.338,0.604 0.822,1.077 1.454,1.42 0.635,0.342 1.373,0.513 2.22,0.513 1.285,0 2.282,-0.33 2.989,-0.991 0.709,-0.662 1.064,-1.587 1.064,-2.776 v -0.6 z m -7.052,-3.282 -2.026,5.466 -2.012,-5.466 h -1.726 l -2.656,7.421 h 1.829 l 1.797,-5.623 2.026,5.566 h 1.584 l 2.027,-5.551 1.798,5.608 h 1.74 l -2.653,-7.421 z m -11.209,3.711 c 0,0.827 -0.225,1.468 -0.676,1.919 -0.454,0.452 -1.093,0.678 -1.92,0.678 -0.828,0 -1.471,-0.226 -1.927,-0.678 -0.457,-0.451 -0.685,-1.092 -0.685,-1.919 0,-0.828 0.225,-1.468 0.678,-1.92 0.451,-0.452 1.087,-0.677 1.905,-0.677 0.836,0 1.485,0.225 1.941,0.677 0.457,0.452 0.684,1.092 0.684,1.92 m 1.771,0.029 c 0,-0.781 -0.176,-1.468 -0.528,-2.063 -0.354,-0.595 -0.864,-1.061 -1.535,-1.399 -0.671,-0.337 -1.458,-0.506 -2.362,-0.506 -1.342,0 -2.397,0.346 -3.167,1.042 -0.771,0.694 -1.157,1.65 -1.157,2.868 0,0.78 0.177,1.468 0.528,2.062 0.352,0.595 0.86,1.061 1.527,1.398 0.666,0.338 1.45,0.507 2.354,0.507 1.353,0 2.413,-0.347 3.183,-1.041 0.77,-0.695 1.157,-1.651 1.157,-2.868 m -14.526,1.398 c 0.83,0 1.443,0.147 1.842,0.442 0.401,0.295 0.599,0.756 0.599,1.384 0,0.609 -0.195,1.051 -0.585,1.327 -0.391,0.277 -0.998,0.414 -1.826,0.414 h -2.968 V 1.228 Z m -4.722,-5.138 V 6.279 h 4.881 c 1.359,0 2.385,-0.273 3.075,-0.82 0.689,-0.547 1.035,-1.358 1.035,-2.433 0,-1.104 -0.353,-1.926 -1.056,-2.469 -0.706,-0.542 -1.781,-0.814 -3.226,-0.814 h -2.925 V -3.91 Z m -7.806,3.711 c 0,0.827 -0.226,1.468 -0.678,1.919 -0.453,0.452 -1.092,0.678 -1.92,0.678 -0.827,0 -1.47,-0.226 -1.926,-0.678 -0.456,-0.451 -0.685,-1.092 -0.685,-1.919 0,-0.828 0.225,-1.468 0.678,-1.92 0.451,-0.452 1.087,-0.677 1.905,-0.677 0.837,0 1.485,0.225 1.942,0.677 0.456,0.452 0.684,1.092 0.684,1.92 m 1.77,0.029 c 0,-0.781 -0.176,-1.468 -0.528,-2.063 -0.354,-0.595 -0.864,-1.061 -1.535,-1.399 -0.671,-0.337 -1.458,-0.506 -2.362,-0.506 -1.341,0 -2.397,0.346 -3.167,1.042 -0.772,0.694 -1.156,1.65 -1.156,2.868 0,0.78 0.175,1.468 0.527,2.062 0.352,0.595 0.86,1.061 1.528,1.398 0.665,0.338 1.449,0.507 2.354,0.507 1.351,0 2.412,-0.347 3.182,-1.041 0.77,-0.695 1.157,-1.651 1.157,-2.868 m -14.424,-3.74 v 8.662 h -4.112 v 1.527 h 10.033 V 4.752 h -4.11 V -3.91 Z m -13.517,0.286 -3.695,7.135 h 1.941 l 2.625,-5.465 2.398,5.465 h 1.854 l -3.837,-8.02 c -0.297,-0.608 -0.581,-1.078 -0.857,-1.406 -0.275,-0.327 -0.578,-0.564 -0.906,-0.706 -0.327,-0.142 -0.711,-0.213 -1.148,-0.213 -0.524,0 -1.028,0.093 -1.514,0.283 l 0.286,1.256 c 0.333,-0.113 0.656,-0.17 0.97,-0.17 0.362,0 0.664,0.085 0.906,0.257 0.244,0.171 0.455,0.452 0.636,0.842 z m -6.562,3.182 -1.941,-0.057 c -0.895,-0.029 -1.54,-0.138 -1.933,-0.328 -0.396,-0.191 -0.593,-0.481 -0.593,-0.87 0,-0.353 0.152,-0.627 0.457,-0.822 0.305,-0.195 0.728,-0.292 1.27,-0.292 0.409,0 0.801,0.06 1.177,0.178 0.377,0.119 0.702,0.288 0.978,0.507 0.39,0.294 0.585,0.69 0.585,1.185 z m 0.044,-3.468 v 1.071 c -0.439,-0.438 -0.915,-0.759 -1.429,-0.964 -0.514,-0.204 -1.117,-0.306 -1.812,-0.306 -0.961,0 -1.703,0.196 -2.226,0.592 -0.523,0.394 -0.786,0.953 -0.786,1.677 0,0.808 0.342,1.41 1.021,1.804 0.681,0.395 1.753,0.616 3.218,0.664 l 1.97,0.058 v 0.242 c 0,1.009 -0.665,1.513 -1.998,1.513 -0.646,0 -1.146,-0.079 -1.498,-0.235 -0.352,-0.158 -0.58,-0.398 -0.685,-0.722 l -1.528,0.172 c 0.171,0.714 0.561,1.239 1.171,1.576 0.608,0.338 1.474,0.507 2.597,0.507 1.208,0 2.105,-0.237 2.69,-0.713 0.585,-0.476 0.878,-1.204 0.878,-2.184 V -3.91 Z m -12.345,0 -2.583,7.878 -2.611,-7.878 h -1.913 l -3.439,10.189 h 2.012 l 2.455,-8.005 2.625,7.949 h 1.827 l 2.64,-7.978 2.468,8.034 h 1.941 l -3.439,-10.189 z m -15.071,0.143 c -0.638,-0.2 -1.29,-0.299 -1.955,-0.299 -0.876,0 -1.516,0.202 -1.92,0.606 -0.404,0.404 -0.606,1.054 -0.606,1.948 v 3.724 h -1.443 v 1.299 h 1.443 v 1.997 h 1.712 V 3.511 h 2.54 V 2.212 h -2.54 v -3.781 c 0,-0.39 0.098,-0.681 0.293,-0.87 0.195,-0.191 0.497,-0.286 0.906,-0.286 0.437,0 0.874,0.071 1.313,0.214 z m -12.463,-0.143 v 7.421 h 1.684 v -1.27 c 0.352,0.447 0.764,0.789 1.234,1.027 0.472,0.238 0.973,0.357 1.507,0.357 0.228,0 0.494,-0.024 0.797,-0.071 l -0.198,-1.428 c -0.286,0.048 -0.547,0.072 -0.786,0.072 -0.75,0 -1.36,-0.214 -1.825,-0.642 -0.467,-0.419 -0.701,-0.909 -0.701,-1.47 V -3.91 Z m -4.11,3.468 -1.94,-0.057 c -0.896,-0.029 -1.54,-0.138 -1.934,-0.328 -0.395,-0.191 -0.592,-0.481 -0.592,-0.87 0,-0.353 0.151,-0.627 0.456,-0.822 0.305,-0.195 0.729,-0.292 1.27,-0.292 0.41,0 0.801,0.06 1.178,0.178 0.376,0.119 0.702,0.288 0.977,0.507 0.391,0.294 0.585,0.69 0.585,1.185 z m 0.044,-3.468 v 1.071 c -0.439,-0.438 -0.915,-0.759 -1.428,-0.964 -0.515,-0.204 -1.117,-0.306 -1.812,-0.306 -0.962,0 -1.704,0.196 -2.226,0.592 -0.523,0.394 -0.786,0.953 -0.786,1.677 0,0.808 0.341,1.41 1.021,1.804 0.681,0.395 1.752,0.616 3.217,0.664 l 1.97,0.058 v 0.242 c 0,1.009 -0.665,1.513 -1.998,1.513 -0.646,0 -1.146,-0.079 -1.498,-0.235 -0.352,-0.158 -0.58,-0.398 -0.684,-0.722 l -1.528,0.172 c 0.17,0.714 0.561,1.239 1.17,1.576 0.608,0.338 1.474,0.507 2.598,0.507 1.207,0 2.104,-0.237 2.689,-0.713 0.586,-0.476 0.878,-1.204 0.878,-2.184 V -3.91 Z m -9.949,0 v 4.495 c 0,0.609 -0.127,1.056 -0.385,1.342 -0.256,0.285 -0.665,0.428 -1.226,0.428 -0.638,0 -1.204,-0.223 -1.698,-0.67 -0.19,-0.172 -0.339,-0.372 -0.443,-0.601 -0.105,-0.228 -0.157,-0.465 -0.157,-0.713 V -3.91 h -1.712 v 4.495 c 0,0.609 -0.129,1.056 -0.385,1.342 -0.258,0.285 -0.668,0.428 -1.228,0.428 -0.628,0 -1.19,-0.248 -1.685,-0.742 -0.408,-0.409 -0.613,-0.894 -0.613,-1.456 V -3.91 h -1.713 v 7.421 h 1.685 V 2.284 c 0.77,0.97 1.721,1.455 2.854,1.455 0.648,0 1.189,-0.126 1.627,-0.378 0.437,-0.252 0.75,-0.626 0.942,-1.12 0.789,0.999 1.807,1.498 3.054,1.498 0.913,0 1.608,-0.242 2.083,-0.728 0.476,-0.485 0.714,-1.194 0.714,-2.126 V -3.91 Z m -15.415,7.379 c -0.152,0.399 -0.352,0.718 -0.6,0.955 -0.247,0.238 -0.557,0.409 -0.926,0.514 -0.371,0.104 -0.833,0.157 -1.385,0.157 -0.913,0 -1.622,-0.121 -2.127,-0.364 -0.503,-0.242 -0.756,-0.592 -0.756,-1.049 0,-0.428 0.164,-0.752 0.493,-0.97 0.327,-0.219 0.901,-0.391 1.72,-0.514 l 2.111,-0.314 c 1.189,-0.181 2.062,-0.516 2.619,-1.006 0.557,-0.49 0.835,-1.163 0.835,-2.02 0,-0.961 -0.413,-1.704 -1.235,-2.233 -0.822,-0.528 -1.975,-0.792 -3.46,-0.792 -1.618,0 -2.843,0.281 -3.675,0.843 -0.833,0.56 -1.321,1.431 -1.464,2.611 h 1.828 c 0.124,-0.704 0.449,-1.215 0.977,-1.534 0.528,-0.319 1.306,-0.478 2.334,-0.478 0.922,0 1.629,0.138 2.119,0.413 0.489,0.277 0.735,0.666 0.735,1.17 0,0.419 -0.169,0.747 -0.507,0.985 -0.338,0.238 -0.862,0.409 -1.577,0.514 l -1.827,0.271 c -0.941,0.143 -1.688,0.338 -2.24,0.585 -0.552,0.248 -0.951,0.568 -1.199,0.964 -0.247,0.394 -0.371,0.882 -0.371,1.462 0,0.914 0.411,1.625 1.235,2.134 0.823,0.509 1.976,0.763 3.46,0.763 0.914,0 1.679,-0.1 2.298,-0.299 0.618,-0.2 1.114,-0.505 1.491,-0.914 0.376,-0.408 0.65,-0.942 0.82,-1.598 z m -14.827,-2.955 c -0.019,0.628 -0.24,1.116 -0.663,1.463 -0.424,0.347 -1.012,0.521 -1.763,0.521 -0.676,0 -1.235,-0.178 -1.678,-0.536 -0.441,-0.357 -0.7,-0.839 -0.777,-1.448 z m -4.924,-1.142 c 0.019,-0.684 0.259,-1.229 0.721,-1.634 0.462,-0.404 1.068,-0.606 1.821,-0.606 0.588,0 1.071,0.097 1.447,0.293 0.376,0.195 0.636,0.482 0.779,0.863 h 1.696 c -0.209,-0.818 -0.639,-1.427 -1.291,-1.827 -0.651,-0.399 -1.534,-0.599 -2.648,-0.599 -1.302,0 -2.327,0.345 -3.074,1.035 -0.747,0.689 -1.12,1.634 -1.12,2.832 0,0.78 0.169,1.472 0.507,2.077 0.338,0.604 0.822,1.077 1.455,1.42 0.633,0.342 1.372,0.513 2.219,0.513 1.285,0 2.282,-0.33 2.989,-0.991 0.709,-0.662 1.065,-1.587 1.065,-2.776 v -0.6 z m -5.469,-3.282 v 4.482 c 0,0.627 -0.146,1.081 -0.44,1.362 -0.296,0.28 -0.772,0.421 -1.429,0.421 -0.36,0 -0.71,-0.066 -1.049,-0.2 -0.338,-0.133 -0.633,-0.319 -0.891,-0.556 -0.448,-0.419 -0.671,-0.905 -0.671,-1.456 V -3.91 h -1.713 V 6.279 h 1.713 V 2.312 c 0.808,0.952 1.855,1.427 3.139,1.427 1,0 1.758,-0.242 2.277,-0.728 0.519,-0.485 0.779,-1.194 0.779,-2.126 V -3.91 Z m -13.801,0 v 8.662 h -4.112 v 1.527 h 10.031 V 4.752 h -4.108 V -3.91 Z" /></g></g></g></svg>
