<?xml version="1.0" encoding="UTF-8" standalone="no"?>
<svg
   viewBox="0 0 259.99999 260"
   height="260"
   width="260"
   xml:space="preserve"
   id="svg2"
   version="1.1"
   sodipodi:docname="logo_only.svg"
   inkscape:version="1.2.2 (b0a84865, 2022-12-01)"
   xmlns:inkscape="http://www.inkscape.org/namespaces/inkscape"
   xmlns:sodipodi="http://sodipodi.sourceforge.net/DTD/sodipodi-0.dtd"
   xmlns="http://www.w3.org/2000/svg"
   xmlns:svg="http://www.w3.org/2000/svg"
   xmlns:rdf="http://www.w3.org/1999/02/22-rdf-syntax-ns#"
   xmlns:cc="http://creativecommons.org/ns#"
   xmlns:dc="http://purl.org/dc/elements/1.1/"><sodipodi:namedview
     id="namedview22"
     pagecolor="#ffffff"
     bordercolor="#666666"
     borderopacity="1.0"
     inkscape:showpageshadow="2"
     inkscape:pageopacity="0.0"
     inkscape:pagecheckerboard="0"
     inkscape:deskcolor="#d1d1d1"
     showgrid="false"
     inkscape:zoom="2"
     inkscape:cx="51.25"
     inkscape:cy="133.5"
     inkscape:window-width="1831"
     inkscape:window-height="884"
     inkscape:window-x="2634"
     inkscape:window-y="275"
     inkscape:window-maximized="0"
     inkscape:current-layer="g14" /><metadata
     id="metadata8"><rdf:RDF><cc:Work
         rdf:about=""><dc:format>image/svg+xml</dc:format><dc:type
           rdf:resource="http://purl.org/dc/dcmitype/StillImage" /></cc:Work></rdf:RDF></metadata><defs
     id="defs6"><clipPath
       id="clipPath18"
       clipPathUnits="userSpaceOnUse"><path
         id="path16"
         d="M 0,595.276 H 841.89 V 0 H 0 Z" /></clipPath></defs><g
     transform="matrix(1.3333333,0,0,-1.3333333,-444.48266,561.14265)"
     id="g10"><g
       clip-path="url(#clipPath18)"
       id="g14"><path
         id="path28"
         style="fill:#1c63b7;fill-opacity:1;fill-rule:nonzero;stroke:none"
         d="M 377.684,315.712 H 343.112 V 281.14 h 34.572 z m 0,-42.736 h -34.572 v -34.572 h 34.572 z m 42.737,0 h -34.573 v -34.572 h 34.573 z m 0,42.736 H 385.848 V 281.14 h 34.573 z m 54.115,91.224 -21.87,-37.882 -13.794,-23.892 35.664,20.591 z m 43.742,-75.762 -21.871,37.881 -13.794,23.892 v -41.182 z m -87.483,0 h 43.742 27.588 l -35.665,20.591 z m -49.029,77.308 c -21.348,0 -38.654,-17.306 -38.654,-38.654 0,-21.348 17.306,-38.654 38.654,-38.654 21.348,0 38.655,17.306 38.655,38.654 0,21.348 -17.307,38.654 -38.655,38.654 M 489.997,307.981 v 7.731 h -7.73 V 300.25 h 23.193 v -54.114 h -61.846 v 54.114 h 23.192 v 15.462 h -7.73 v -7.731 h -23.194 v -69.577 h 77.308 v 69.577 z m 7.731,-15.461 h -46.383 v -7.731 h 46.383 z m 0,-15.461 h -46.383 v -7.731 h 46.383 z m -46.382,-15.462 h 46.383 v -7.731 h -46.383 z" /></g></g></svg>
